<?xml version="1.0" encoding="utf-8"?>
<svg xmlns="http://www.w3.org/2000/svg" xmlns:xlink="http://www.w3.org/1999/xlink" xml:space="preserve" width="435" height="543.75" viewBox="0 0 435 543.75"><rect width="402.7375" height="402.7375" fill="#ffffff" x="18.125" y="18.125"/><g transform="scale(18.125)" fill="#000000"><path d="M1.3,24l21.3,0c0.7,0,1.3-0.6,1.3-1.3l0-21.3C24,0.6,23.4,0,22.7,0L1.3,0C0.6,0,0,0.6,0,1.3l0,21.3 C0,23.4,0.6,24,1.3,24z M1,2c0-0.6,0.5-1,1-1l20,0c0.6,0,1,0.5,1,1v20c0,0.6-0.5,1-1,1L2,23c-0.6,0-1-0.5-1-1V2z"/><path d="M1,30h22c0.5,0,1-0.4,1-1v-3c0-0.5-0.4-1-1-1H13l-1-1l-1,1H1c-0.5,0-1,0.4-1,1v3C0,29.6,0.4,30,1,30z"/></g><g fill="#000000">
<g transform="translate(139.5,43.5) scale(2.06)"><path d="M3,0.8c-1.2,0-2.2,1-2.2,2.2s1,2.2,2.2,2.2c0.6,0,1.2-0.3,1.6-0.7C5,4.2,5.5,4,6,4V2C5.5,2,5,1.8,4.6,1.4 C4.2,1,3.6,0.8,3,0.8z"/></g>
<g transform="translate(151.5,43.5) scale(2.06)"><path d="M0.3,4.3C0.8,5.3,1.8,6,3,6s2.2-0.7,2.7-1.7C5.8,4.1,5.9,4,6,4V2C5.9,2,5.8,1.9,5.7,1.7C5.2,0.7,4.2,0,3,0 S0.8,0.7,0.3,1.7C0.2,1.9,0.1,2,0,2v2C0.1,4,0.2,4.1,0.3,4.3z"/></g>
<g transform="translate(163.5,43.5) scale(2.06)"><path d="M1.4,4.6C1.4,4.6,1.4,4.6,1.4,4.6c0.3,0.3,0.5,0.6,0.6,1C2,5.7,2,5.9,2,6h2c0-0.1,0-0.3,0-0.4 c0.1-0.4,0.3-0.7,0.5-1c0,0,0,0,0,0C5,4.2,5.5,4,6,4V2C5.5,2,5,1.8,4.7,1.5c0,0,0,0,0,0C4.2,1,3.7,0.8,3,0.8S1.8,1,1.4,1.5 c0,0,0,0,0,0C1,1.8,0.5,2,0,2v2C0.5,4,1,4.2,1.4,4.6z"/></g>
<g transform="translate(175.5,43.5) scale(2.06)"><path d="M1.4,4.6C1.4,4.6,1.4,4.6,1.4,4.6C1.8,5,2,5.5,2,6h2c0-0.5,0.2-1,0.5-1.3l0,0C5,4.2,5.2,3.7,5.2,3 c0-1.2-1-2.2-2.2-2.2C2.4,0.8,1.9,1,1.5,1.4l0,0C1.1,1.8,0.6,2,0,2v2C0.5,4,1,4.2,1.4,4.6z"/></g>
<g transform="translate(211.5,43.5) scale(2.06)"><path d="M3,0.8c-1.2,0-2.2,1-2.2,2.2s1,2.2,2.2,2.2c0.6,0,1.2-0.3,1.6-0.7C5,4.2,5.5,4,6,4V2C5.5,2,5,1.8,4.6,1.4 C4.2,1,3.6,0.8,3,0.8z"/></g>
<g transform="translate(223.5,43.5) scale(2.06)"><path d="M1.4,4.6C1.4,4.6,1.4,4.6,1.4,4.6C1.8,5,2,5.5,2,6h2c0-0.5,0.2-1,0.5-1.3l0,0C5,4.2,5.2,3.7,5.2,3 c0-1.2-1-2.2-2.2-2.2C2.4,0.8,1.9,1,1.5,1.4l0,0C1.1,1.8,0.6,2,0,2v2C0.5,4,1,4.2,1.4,4.6z"/></g>
<g transform="translate(271.5,43.5) scale(2.06)"><path d="M5.2,3c0-1.2-1-2.2-2.2-2.2S0.8,1.8,0.8,3c0,0.6,0.3,1.2,0.7,1.6C1.8,5,2,5.5,2,6h2c0-0.5,0.2-1,0.6-1.4 C5,4.2,5.2,3.6,5.2,3z"/></g>
<g transform="translate(163.5,55.5) scale(2.06)"><path d="M4.6,1.4C4.6,1.4,4.6,1.4,4.6,1.4C4.2,1,4,0.5,4,0H2c0,0.5-0.2,1-0.5,1.3l0,0C1,1.8,0.8,2.3,0.8,3 c0,1.2,1,2.2,2.2,2.2c0.6,0,1.1-0.2,1.5-0.6l0,0C4.9,4.2,5.4,4,6,4V2C5.5,2,5,1.8,4.6,1.4z"/></g>
<g transform="translate(175.5,55.5) scale(2.06)"><path d="M4.6,1.4C4.6,1.4,4.6,1.4,4.6,1.4C4.3,1.1,4.1,0.8,4,0.4C4,0.3,4,0.1,4,0H2c0,0.1,0,0.3,0,0.4 c-0.1,0.4-0.3,0.7-0.5,1c0,0,0,0,0,0C1,1.8,0.5,2,0,2v2c0.5,0,1,0.2,1.3,0.5c0,0,0,0,0,0C1.8,5,2.3,5.2,3,5.2S4.2,5,4.6,4.5 c0,0,0,0,0,0C5,4.2,5.5,4,6,4V2C5.5,2,5,1.8,4.6,1.4z"/></g>
<g transform="translate(187.5,55.5) scale(2.06)"><path d="M3,5.2c1.2,0,2.2-1,2.2-2.2S4.2,0.8,3,0.8C2.4,0.8,1.8,1,1.4,1.4C1,1.8,0.5,2,0,2v2c0.5,0,1,0.2,1.4,0.6 C1.8,5,2.4,5.2,3,5.2z"/></g>
<g transform="translate(223.5,55.5) scale(2.06)"><path d="M4.6,4.6C4.6,4.6,4.6,4.6,4.6,4.6c0.3-0.3,0.6-0.5,1-0.6C5.7,4,5.9,4,6,4V2C5.9,2,5.7,2,5.6,2 c-0.4-0.1-0.7-0.3-1-0.5c0,0,0,0,0,0C4.2,1,4,0.5,4,0H2c0,0.5-0.2,1-0.5,1.3c0,0,0,0,0,0C1,1.8,0.8,2.3,0.8,3S1,4.2,1.5,4.6 c0,0,0,0,0,0C1.8,5,2,5.5,2,6h2C4,5.5,4.2,5,4.6,4.6z"/></g>
<g transform="translate(235.5,55.5) scale(2.06)"><path d="M3,5.2c1.2,0,2.2-1,2.2-2.2S4.2,0.8,3,0.8C2.4,0.8,1.8,1,1.4,1.4C1,1.8,0.5,2,0,2v2c0.5,0,1,0.2,1.4,0.6 C1.8,5,2.4,5.2,3,5.2z"/></g>
<g transform="translate(271.5,55.5) scale(2.06)"><path d="M4.6,4.6C4.6,4.6,4.6,4.6,4.6,4.6c0.3-0.3,0.6-0.5,1-0.6C5.7,4,5.9,4,6,4V2C5.9,2,5.7,2,5.6,2 c-0.4-0.1-0.7-0.3-1-0.5c0,0,0,0,0,0C4.2,1,4,0.5,4,0H2c0,0.5-0.2,1-0.5,1.3c0,0,0,0,0,0C1,1.8,0.8,2.3,0.8,3S1,4.2,1.5,4.6 c0,0,0,0,0,0C1.8,5,2,5.5,2,6h2C4,5.5,4.2,5,4.6,4.6z"/></g>
<g transform="translate(283.5,55.5) scale(2.06)"><path d="M3,5.2c1.2,0,2.2-1,2.2-2.2S4.2,0.8,3,0.8C2.4,0.8,1.8,1,1.4,1.4C1,1.8,0.5,2,0,2v2c0.5,0,1,0.2,1.4,0.6 C1.8,5,2.4,5.2,3,5.2z"/></g>
<g transform="translate(199.5,67.5) scale(2.06)"><path d="M4.6,4.6C4.6,4.6,4.6,4.6,4.6,4.6C5,4.2,5.5,4,6,4V2C5.5,2,5,1.8,4.7,1.5l0,0C4.2,1,3.7,0.8,3,0.8 c-1.2,0-2.2,1-2.2,2.2c0,0.6,0.2,1.1,0.6,1.5l0,0C1.8,4.9,2,5.4,2,6h2C4,5.5,4.2,5,4.6,4.6z"/></g>
<g transform="translate(211.5,67.5) scale(2.06)"><path d="M0.3,4.3C0.8,5.3,1.8,6,3,6s2.2-0.7,2.7-1.7C5.8,4.1,5.9,4,6,4V2C5.9,2,5.8,1.9,5.7,1.7C5.2,0.7,4.2,0,3,0 S0.8,0.7,0.3,1.7C0.2,1.9,0.1,2,0,2v2C0.1,4,0.2,4.1,0.3,4.3z"/></g>
<g transform="translate(223.5,67.5) scale(2.06)"><path d="M1.4,1.4C1.4,1.4,1.4,1.4,1.4,1.4C1.1,1.7,0.8,1.9,0.4,2C0.3,2,0.1,2,0,2v2c0.1,0,0.3,0,0.4,0 c0.4,0.1,0.7,0.3,1,0.5c0,0,0,0,0,0C1.8,5,2,5.5,2,6h2c0-0.5,0.2-1,0.5-1.3c0,0,0,0,0,0C5,4.2,5.2,3.7,5.2,3S5,1.8,4.5,1.4 c0,0,0,0,0,0C4.2,1,4,0.5,4,0H2C2,0.5,1.8,1,1.4,1.4z"/></g>
<g transform="translate(271.5,67.5) scale(2.06)"><path d="M0.8,3c0,1.2,1,2.2,2.2,2.2s2.2-1,2.2-2.2c0-0.6-0.3-1.2-0.7-1.6C4.2,1,4,0.5,4,0H2c0,0.5-0.2,1-0.6,1.4 C1,1.8,0.8,2.4,0.8,3z"/></g>
<g transform="translate(151.5,79.5) scale(2.06)"><circle cx="3" cy="3" r="3"/></g>
<g transform="translate(175.5,79.5) scale(2.06)"><path d="M5.2,3c0-1.2-1-2.2-2.2-2.2S0.8,1.8,0.8,3c0,0.6,0.3,1.2,0.7,1.6C1.8,5,2,5.5,2,6h2c0-0.5,0.2-1,0.6-1.4 C5,4.2,5.2,3.6,5.2,3z"/></g>
<g transform="translate(199.5,79.5) scale(2.06)"><path d="M0.8,3c0,1.2,1,2.2,2.2,2.2s2.2-1,2.2-2.2c0-0.6-0.3-1.2-0.7-1.6C4.2,1,4,0.5,4,0H2c0,0.5-0.2,1-0.6,1.4 C1,1.8,0.8,2.4,0.8,3z"/></g>
<g transform="translate(223.5,79.5) scale(2.06)"><path d="M4.6,1.4C4.6,1.4,4.6,1.4,4.6,1.4C4.2,1,4,0.5,4,0H2c0,0.5-0.2,1-0.5,1.3l0,0C1,1.8,0.8,2.3,0.8,3 c0,1.2,1,2.2,2.2,2.2c0.6,0,1.1-0.2,1.5-0.6l0,0C4.9,4.2,5.4,4,6,4V2C5.5,2,5,1.8,4.6,1.4z"/></g>
<g transform="translate(235.5,79.5) scale(2.06)"><path d="M1.4,4.6C1.4,4.6,1.4,4.6,1.4,4.6C1.8,5,2,5.5,2,6h2c0-0.5,0.2-1,0.5-1.3l0,0C5,4.2,5.2,3.7,5.2,3 c0-1.2-1-2.2-2.2-2.2C2.4,0.8,1.9,1,1.5,1.4l0,0C1.1,1.8,0.6,2,0,2v2C0.5,4,1,4.2,1.4,4.6z"/></g>
<g transform="translate(283.5,79.5) scale(2.06)"><circle cx="3" cy="3" r="3"/></g>
<g transform="translate(139.5,91.5) scale(2.06)"><path d="M5.2,3c0-1.2-1-2.2-2.2-2.2S0.8,1.8,0.8,3c0,0.6,0.3,1.2,0.7,1.6C1.8,5,2,5.5,2,6h2c0-0.5,0.2-1,0.6-1.4 C5,4.2,5.2,3.6,5.2,3z"/></g>
<g transform="translate(175.5,91.5) scale(2.06)"><path d="M4.3,5.7C5.3,5.2,6,4.2,6,3S5.3,0.8,4.3,0.3C4.1,0.2,4,0.1,4,0H2c0,0.1-0.1,0.2-0.3,0.3C0.7,0.8,0,1.8,0,3 s0.7,2.2,1.7,2.7C1.9,5.8,2,5.9,2,6h2C4,5.9,4.1,5.8,4.3,5.7z"/></g>
<g transform="translate(235.5,91.5) scale(2.06)"><path d="M0.8,3c0,1.2,1,2.2,2.2,2.2s2.2-1,2.2-2.2c0-0.6-0.3-1.2-0.7-1.6C4.2,1,4,0.5,4,0H2c0,0.5-0.2,1-0.6,1.4 C1,1.8,0.8,2.4,0.8,3z"/></g>
<g transform="translate(259.5,91.5) scale(2.06)"><path d="M4.6,4.6C4.6,4.6,4.6,4.6,4.6,4.6C5,4.2,5.5,4,6,4V2C5.5,2,5,1.8,4.7,1.5l0,0C4.2,1,3.7,0.8,3,0.8 c-1.2,0-2.2,1-2.2,2.2c0,0.6,0.2,1.1,0.6,1.5l0,0C1.8,4.9,2,5.4,2,6h2C4,5.5,4.2,5,4.6,4.6z"/></g>
<g transform="translate(271.5,91.5) scale(2.06)"><path d="M1.4,4.6C1.4,4.6,1.4,4.6,1.4,4.6C1.8,5,2,5.5,2,6h2c0-0.5,0.2-1,0.5-1.3l0,0C5,4.2,5.2,3.7,5.2,3 c0-1.2-1-2.2-2.2-2.2C2.4,0.8,1.9,1,1.5,1.4l0,0C1.1,1.8,0.6,2,0,2v2C0.5,4,1,4.2,1.4,4.6z"/></g>
<g transform="translate(139.5,103.5) scale(2.06)"><path d="M4.6,4.6C4.6,4.6,4.6,4.6,4.6,4.6c0.3-0.3,0.6-0.5,1-0.6C5.7,4,5.9,4,6,4V2C5.9,2,5.7,2,5.6,2 c-0.4-0.1-0.7-0.3-1-0.5c0,0,0,0,0,0C4.2,1,4,0.5,4,0H2c0,0.5-0.2,1-0.5,1.3c0,0,0,0,0,0C1,1.8,0.8,2.3,0.8,3S1,4.2,1.5,4.6 c0,0,0,0,0,0C1.8,5,2,5.5,2,6h2C4,5.5,4.2,5,4.6,4.6z"/></g>
<g transform="translate(151.5,103.5) scale(2.06)"><path d="M0.3,4.3C0.8,5.3,1.8,6,3,6s2.2-0.7,2.7-1.7C5.8,4.1,5.9,4,6,4V2C5.9,2,5.8,1.9,5.7,1.7C5.2,0.7,4.2,0,3,0 S0.8,0.7,0.3,1.7C0.2,1.9,0.1,2,0,2v2C0.1,4,0.2,4.1,0.3,4.3z"/></g>
<g transform="translate(163.5,103.5) scale(2.06)"><path d="M1.4,4.6C1.4,4.6,1.4,4.6,1.4,4.6c0.3,0.3,0.5,0.6,0.6,1C2,5.7,2,5.9,2,6h2c0-0.1,0-0.3,0-0.4 c0.1-0.4,0.3-0.7,0.5-1c0,0,0,0,0,0C5,4.2,5.5,4,6,4V2C5.5,2,5,1.8,4.7,1.5c0,0,0,0,0,0C4.2,1,3.7,0.8,3,0.8S1.8,1,1.4,1.5 c0,0,0,0,0,0C1,1.8,0.5,2,0,2v2C0.5,4,1,4.2,1.4,4.6z"/></g>
<g transform="translate(175.5,103.5) scale(2.06)"><path d="M1.4,1.4C1.4,1.4,1.4,1.4,1.4,1.4C1,1.8,0.5,2,0,2v2c0.5,0,1,0.2,1.3,0.5l0,0C1.8,5,2.3,5.2,3,5.2 c1.2,0,2.2-1,2.2-2.2c0-0.6-0.2-1.1-0.6-1.5l0,0C4.2,1.1,4,0.6,4,0H2C2,0.5,1.8,1,1.4,1.4z"/></g>
<g transform="translate(223.5,103.5) scale(2.06)"><circle cx="3" cy="3" r="3"/></g>
<g transform="translate(247.5,103.5) scale(2.06)"><path d="M3,0.8c-1.2,0-2.2,1-2.2,2.2s1,2.2,2.2,2.2c0.6,0,1.2-0.3,1.6-0.7C5,4.2,5.5,4,6,4V2C5.5,2,5,1.8,4.6,1.4 C4.2,1,3.6,0.8,3,0.8z"/></g>
<g transform="translate(259.5,103.5) scale(2.06)"><path d="M4,0H2c0,1.1-0.9,2-2,2v2c1.1,0,2,0.9,2,2h2c0-1.1,0.9-2,2-2V2C4.9,2,4,1.1,4,0z"/></g>
<g transform="translate(271.5,103.5) scale(2.06)"><path d="M4.6,1.4C4.6,1.4,4.6,1.4,4.6,1.4C4.3,1.1,4.1,0.8,4,0.4C4,0.3,4,0.1,4,0H2c0,0.1,0,0.3,0,0.4 c-0.1,0.4-0.3,0.7-0.5,1c0,0,0,0,0,0C1,1.8,0.5,2,0,2v2c0.5,0,1,0.2,1.3,0.5c0,0,0,0,0,0C1.8,5,2.3,5.2,3,5.2S4.2,5,4.6,4.5 c0,0,0,0,0,0C5,4.2,5.5,4,6,4V2C5.5,2,5,1.8,4.6,1.4z"/></g>
<g transform="translate(283.5,103.5) scale(2.06)"><path d="M1.4,4.6C1.4,4.6,1.4,4.6,1.4,4.6C1.8,5,2,5.5,2,6h2c0-0.5,0.2-1,0.5-1.3l0,0C5,4.2,5.2,3.7,5.2,3 c0-1.2-1-2.2-2.2-2.2C2.4,0.8,1.9,1,1.5,1.4l0,0C1.1,1.8,0.6,2,0,2v2C0.5,4,1,4.2,1.4,4.6z"/></g>
<g transform="translate(139.5,115.5) scale(2.06)"><path d="M0.8,3c0,1.2,1,2.2,2.2,2.2s2.2-1,2.2-2.2c0-0.6-0.3-1.2-0.7-1.6C4.2,1,4,0.5,4,0H2c0,0.5-0.2,1-0.6,1.4 C1,1.8,0.8,2.4,0.8,3z"/></g>
<g transform="translate(163.5,115.5) scale(2.06)"><path d="M0.8,3c0,1.2,1,2.2,2.2,2.2s2.2-1,2.2-2.2c0-0.6-0.3-1.2-0.7-1.6C4.2,1,4,0.5,4,0H2c0,0.5-0.2,1-0.6,1.4 C1,1.8,0.8,2.4,0.8,3z"/></g>
<g transform="translate(187.5,115.5) scale(2.06)"><circle cx="3" cy="3" r="3"/></g>
<g transform="translate(211.5,115.5) scale(2.06)"><path d="M5.2,3c0-1.2-1-2.2-2.2-2.2S0.8,1.8,0.8,3c0,0.6,0.3,1.2,0.7,1.6C1.8,5,2,5.5,2,6h2c0-0.5,0.2-1,0.6-1.4 C5,4.2,5.2,3.6,5.2,3z"/></g>
<g transform="translate(235.5,115.5) scale(2.06)"><path d="M5.2,3c0-1.2-1-2.2-2.2-2.2S0.8,1.8,0.8,3c0,0.6,0.3,1.2,0.7,1.6C1.8,5,2,5.5,2,6h2c0-0.5,0.2-1,0.6-1.4 C5,4.2,5.2,3.6,5.2,3z"/></g>
<g transform="translate(259.5,115.5) scale(2.06)"><path d="M0.8,3c0,1.2,1,2.2,2.2,2.2s2.2-1,2.2-2.2c0-0.6-0.3-1.2-0.7-1.6C4.2,1,4,0.5,4,0H2c0,0.5-0.2,1-0.6,1.4 C1,1.8,0.8,2.4,0.8,3z"/></g>
<g transform="translate(283.5,115.5) scale(2.06)"><path d="M0.8,3c0,1.2,1,2.2,2.2,2.2s2.2-1,2.2-2.2c0-0.6-0.3-1.2-0.7-1.6C4.2,1,4,0.5,4,0H2c0,0.5-0.2,1-0.6,1.4 C1,1.8,0.8,2.4,0.8,3z"/></g>
<g transform="translate(211.5,127.5) scale(2.06)"><path d="M0.8,3c0,1.2,1,2.2,2.2,2.2s2.2-1,2.2-2.2c0-0.6-0.3-1.2-0.7-1.6C4.2,1,4,0.5,4,0H2c0,0.5-0.2,1-0.6,1.4 C1,1.8,0.8,2.4,0.8,3z"/></g>
<g transform="translate(235.5,127.5) scale(2.06)"><path d="M4.6,1.4C4.6,1.4,4.6,1.4,4.6,1.4C4.2,1,4,0.5,4,0H2c0,0.5-0.2,1-0.5,1.3l0,0C1,1.8,0.8,2.3,0.8,3 c0,1.2,1,2.2,2.2,2.2c0.6,0,1.1-0.2,1.5-0.6l0,0C4.9,4.2,5.4,4,6,4V2C5.5,2,5,1.8,4.6,1.4z"/></g>
<g transform="translate(247.5,127.5) scale(2.06)"><path d="M1.4,4.6C1.4,4.6,1.4,4.6,1.4,4.6C1.8,5,2,5.5,2,6h2c0-0.5,0.2-1,0.5-1.3l0,0C5,4.2,5.2,3.7,5.2,3 c0-1.2-1-2.2-2.2-2.2C2.4,0.8,1.9,1,1.5,1.4l0,0C1.1,1.8,0.6,2,0,2v2C0.5,4,1,4.2,1.4,4.6z"/></g>
<g transform="translate(271.5,127.5) scale(2.06)"><circle cx="3" cy="3" r="3"/></g>
<g transform="translate(55.5,139.5) scale(2.06)"><path d="M3,0.8c-1.2,0-2.2,1-2.2,2.2s1,2.2,2.2,2.2c0.6,0,1.2-0.3,1.6-0.7C5,4.2,5.5,4,6,4V2C5.5,2,5,1.8,4.6,1.4 C4.2,1,3.6,0.8,3,0.8z"/></g>
<g transform="translate(67.5,139.5) scale(2.06)"><path d="M0.3,4.3C0.8,5.3,1.8,6,3,6s2.2-0.7,2.7-1.7C5.8,4.1,5.9,4,6,4V2C5.9,2,5.8,1.9,5.7,1.7C5.2,0.7,4.2,0,3,0 S0.8,0.7,0.3,1.7C0.2,1.9,0.1,2,0,2v2C0.1,4,0.2,4.1,0.3,4.3z"/></g>
<g transform="translate(79.5,139.5) scale(2.06)"><path d="M1.4,4.6C1.4,4.6,1.4,4.6,1.4,4.6c0.3,0.3,0.5,0.6,0.6,1C2,5.7,2,5.9,2,6h2c0-0.1,0-0.3,0-0.4 c0.1-0.4,0.3-0.7,0.5-1c0,0,0,0,0,0C5,4.2,5.5,4,6,4V2C5.5,2,5,1.8,4.7,1.5c0,0,0,0,0,0C4.2,1,3.7,0.8,3,0.8S1.8,1,1.4,1.5 c0,0,0,0,0,0C1,1.8,0.5,2,0,2v2C0.5,4,1,4.2,1.4,4.6z"/></g>
<g transform="translate(91.5,139.5) scale(2.06)"><path d="M1.4,4.6C1.4,4.6,1.4,4.6,1.4,4.6c0.3,0.3,0.5,0.6,0.6,1C2,5.7,2,5.9,2,6h2c0-0.1,0-0.3,0-0.4 c0.1-0.4,0.3-0.7,0.5-1c0,0,0,0,0,0C5,4.2,5.5,4,6,4V2C5.5,2,5,1.8,4.7,1.5c0,0,0,0,0,0C4.2,1,3.7,0.8,3,0.8S1.8,1,1.4,1.5 c0,0,0,0,0,0C1,1.8,0.5,2,0,2v2C0.5,4,1,4.2,1.4,4.6z"/></g>
<g transform="translate(103.5,139.5) scale(2.06)"><path d="M1.4,4.6C1.4,4.6,1.4,4.6,1.4,4.6c0.3,0.3,0.5,0.6,0.6,1C2,5.7,2,5.9,2,6h2c0-0.1,0-0.3,0-0.4 c0.1-0.4,0.3-0.7,0.5-1c0,0,0,0,0,0C5,4.2,5.5,4,6,4V2C5.5,2,5,1.8,4.7,1.5c0,0,0,0,0,0C4.2,1,3.7,0.8,3,0.8S1.8,1,1.4,1.5 c0,0,0,0,0,0C1,1.8,0.5,2,0,2v2C0.5,4,1,4.2,1.4,4.6z"/></g>
<g transform="translate(115.5,139.5) scale(2.06)"><path d="M0.3,4.3C0.8,5.3,1.8,6,3,6s2.2-0.7,2.7-1.7C5.8,4.1,5.9,4,6,4V2C5.9,2,5.8,1.9,5.7,1.7C5.2,0.7,4.2,0,3,0 S0.8,0.7,0.3,1.7C0.2,1.9,0.1,2,0,2v2C0.1,4,0.2,4.1,0.3,4.3z"/></g>
<g transform="translate(127.5,139.5) scale(2.06)"><path d="M3,5.2c1.2,0,2.2-1,2.2-2.2S4.2,0.8,3,0.8C2.4,0.8,1.8,1,1.4,1.4C1,1.8,0.5,2,0,2v2c0.5,0,1,0.2,1.4,0.6 C1.8,5,2.4,5.2,3,5.2z"/></g>
<g transform="translate(151.5,139.5) scale(2.06)"><circle cx="3" cy="3" r="3"/></g>
<g transform="translate(199.5,139.5) scale(2.06)"><circle cx="3" cy="3" r="3"/></g>
<g transform="translate(247.5,139.5) scale(2.06)"><path d="M4.6,1.4C4.6,1.4,4.6,1.4,4.6,1.4C4.2,1,4,0.5,4,0H2c0,0.5-0.2,1-0.5,1.3l0,0C1,1.8,0.8,2.3,0.8,3 c0,1.2,1,2.2,2.2,2.2c0.6,0,1.1-0.2,1.5-0.6l0,0C4.9,4.2,5.4,4,6,4V2C5.5,2,5,1.8,4.6,1.4z"/></g>
<g transform="translate(259.5,139.5) scale(2.06)"><path d="M3,5.2c1.2,0,2.2-1,2.2-2.2S4.2,0.8,3,0.8C2.4,0.8,1.8,1,1.4,1.4C1,1.8,0.5,2,0,2v2c0.5,0,1,0.2,1.4,0.6 C1.8,5,2.4,5.2,3,5.2z"/></g>
<g transform="translate(319.5,139.5) scale(2.06)"><path d="M4.6,4.6C4.6,4.6,4.6,4.6,4.6,4.6C5,4.2,5.5,4,6,4V2C5.5,2,5,1.8,4.7,1.5l0,0C4.2,1,3.7,0.8,3,0.8 c-1.2,0-2.2,1-2.2,2.2c0,0.6,0.2,1.1,0.6,1.5l0,0C1.8,4.9,2,5.4,2,6h2C4,5.5,4.2,5,4.6,4.6z"/></g>
<g transform="translate(331.5,139.5) scale(2.06)"><path d="M1.4,4.6C1.4,4.6,1.4,4.6,1.4,4.6C1.8,5,2,5.5,2,6h2c0-0.5,0.2-1,0.5-1.3l0,0C5,4.2,5.2,3.7,5.2,3 c0-1.2-1-2.2-2.2-2.2C2.4,0.8,1.9,1,1.5,1.4l0,0C1.1,1.8,0.6,2,0,2v2C0.5,4,1,4.2,1.4,4.6z"/></g>
<g transform="translate(379.5,139.5) scale(2.06)"><path d="M5.2,3c0-1.2-1-2.2-2.2-2.2S0.8,1.8,0.8,3c0,0.6,0.3,1.2,0.7,1.6C1.8,5,2,5.5,2,6h2c0-0.5,0.2-1,0.6-1.4 C5,4.2,5.2,3.6,5.2,3z"/></g>
<g transform="translate(79.5,151.5) scale(2.06)"><path d="M4.6,1.4C4.6,1.4,4.6,1.4,4.6,1.4C4.2,1,4,0.5,4,0H2c0,0.5-0.2,1-0.5,1.3l0,0C1,1.8,0.8,2.3,0.8,3 c0,1.2,1,2.2,2.2,2.2c0.6,0,1.1-0.2,1.5-0.6l0,0C4.9,4.2,5.4,4,6,4V2C5.5,2,5,1.8,4.6,1.4z"/></g>
<g transform="translate(91.5,151.5) scale(2.06)"><path d="M4.6,1.4C4.6,1.4,4.6,1.4,4.6,1.4C4.3,1.1,4.1,0.8,4,0.4C4,0.3,4,0.1,4,0H2c0,0.1,0,0.3,0,0.4 c-0.1,0.4-0.3,0.7-0.5,1c0,0,0,0,0,0C1,1.8,0.5,2,0,2v2c0.5,0,1,0.2,1.3,0.5c0,0,0,0,0,0C1.8,5,2.3,5.2,3,5.2S4.2,5,4.6,4.5 c0,0,0,0,0,0C5,4.2,5.5,4,6,4V2C5.5,2,5,1.8,4.6,1.4z"/></g>
<g transform="translate(103.5,151.5) scale(2.06)"><path d="M1.4,1.4C1.4,1.4,1.4,1.4,1.4,1.4C1,1.8,0.5,2,0,2v2c0.5,0,1,0.2,1.3,0.5l0,0C1.8,5,2.3,5.2,3,5.2 c1.2,0,2.2-1,2.2-2.2c0-0.6-0.2-1.1-0.6-1.5l0,0C4.2,1.1,4,0.6,4,0H2C2,0.5,1.8,1,1.4,1.4z"/></g>
<g transform="translate(223.5,151.5) scale(2.06)"><path d="M3,0.8c-1.2,0-2.2,1-2.2,2.2s1,2.2,2.2,2.2c0.6,0,1.2-0.3,1.6-0.7C5,4.2,5.5,4,6,4V2C5.5,2,5,1.8,4.6,1.4 C4.2,1,3.6,0.8,3,0.8z"/></g>
<g transform="translate(235.5,151.5) scale(2.06)"><path d="M3,5.2c1.2,0,2.2-1,2.2-2.2S4.2,0.8,3,0.8C2.4,0.8,1.8,1,1.4,1.4C1,1.8,0.5,2,0,2v2c0.5,0,1,0.2,1.4,0.6 C1.8,5,2.4,5.2,3,5.2z"/></g>
<g transform="translate(295.5,151.5) scale(2.06)"><path d="M5.2,3c0-1.2-1-2.2-2.2-2.2S0.8,1.8,0.8,3c0,0.6,0.3,1.2,0.7,1.6C1.8,5,2,5.5,2,6h2c0-0.5,0.2-1,0.6-1.4 C5,4.2,5.2,3.6,5.2,3z"/></g>
<g transform="translate(319.5,151.5) scale(2.06)"><path d="M4.6,4.6C4.6,4.6,4.6,4.6,4.6,4.6c0.3-0.3,0.6-0.5,1-0.6C5.7,4,5.9,4,6,4V2C5.9,2,5.7,2,5.6,2 c-0.4-0.1-0.7-0.3-1-0.5c0,0,0,0,0,0C4.2,1,4,0.5,4,0H2c0,0.5-0.2,1-0.5,1.3c0,0,0,0,0,0C1,1.8,0.8,2.3,0.8,3S1,4.2,1.5,4.6 c0,0,0,0,0,0C1.8,5,2,5.5,2,6h2C4,5.5,4.2,5,4.6,4.6z"/></g>
<g transform="translate(331.5,151.5) scale(2.06)"><path d="M1.4,1.4C1.4,1.4,1.4,1.4,1.4,1.4C1,1.8,0.5,2,0,2v2c0.5,0,1,0.2,1.3,0.5l0,0C1.8,5,2.3,5.2,3,5.2 c1.2,0,2.2-1,2.2-2.2c0-0.6-0.2-1.1-0.6-1.5l0,0C4.2,1.1,4,0.6,4,0H2C2,0.5,1.8,1,1.4,1.4z"/></g>
<g transform="translate(367.5,151.5) scale(2.06)"><path d="M4.6,4.6C4.6,4.6,4.6,4.6,4.6,4.6C5,4.2,5.5,4,6,4V2C5.5,2,5,1.8,4.7,1.5l0,0C4.2,1,3.7,0.8,3,0.8 c-1.2,0-2.2,1-2.2,2.2c0,0.6,0.2,1.1,0.6,1.5l0,0C1.8,4.9,2,5.4,2,6h2C4,5.5,4.2,5,4.6,4.6z"/></g>
<g transform="translate(379.5,151.5) scale(2.06)"><path d="M1.4,1.4C1.4,1.4,1.4,1.4,1.4,1.4C1,1.8,0.5,2,0,2v2c0.5,0,1,0.2,1.3,0.5l0,0C1.8,5,2.3,5.2,3,5.2 c1.2,0,2.2-1,2.2-2.2c0-0.6-0.2-1.1-0.6-1.5l0,0C4.2,1.1,4,0.6,4,0H2C2,0.5,1.8,1,1.4,1.4z"/></g>
<g transform="translate(43.5,163.5) scale(2.06)"><circle cx="3" cy="3" r="3"/></g>
<g transform="translate(115.5,163.5) scale(2.06)"><path d="M3,0.8c-1.2,0-2.2,1-2.2,2.2s1,2.2,2.2,2.2c0.6,0,1.2-0.3,1.6-0.7C5,4.2,5.5,4,6,4V2C5.5,2,5,1.8,4.6,1.4 C4.2,1,3.6,0.8,3,0.8z"/></g>
<g transform="translate(127.5,163.5) scale(2.06)"><path d="M0.3,4.3C0.8,5.3,1.8,6,3,6s2.2-0.7,2.7-1.7C5.8,4.1,5.9,4,6,4V2C5.9,2,5.8,1.9,5.7,1.7C5.2,0.7,4.2,0,3,0 S0.8,0.7,0.3,1.7C0.2,1.9,0.1,2,0,2v2C0.1,4,0.2,4.1,0.3,4.3z"/></g>
<g transform="translate(139.5,163.5) scale(2.06)"><path d="M0.3,4.3C0.8,5.3,1.8,6,3,6s2.2-0.7,2.7-1.7C5.8,4.1,5.9,4,6,4V2C5.9,2,5.8,1.9,5.7,1.7C5.2,0.7,4.2,0,3,0 S0.8,0.7,0.3,1.7C0.2,1.9,0.1,2,0,2v2C0.1,4,0.2,4.1,0.3,4.3z"/></g>
<g transform="translate(151.5,163.5) scale(2.06)"><path d="M3,5.2c1.2,0,2.2-1,2.2-2.2S4.2,0.8,3,0.8C2.4,0.8,1.8,1,1.4,1.4C1,1.8,0.5,2,0,2v2c0.5,0,1,0.2,1.4,0.6 C1.8,5,2.4,5.2,3,5.2z"/></g>
<g transform="translate(247.5,163.5) scale(2.06)"><path d="M4.6,4.6C4.6,4.6,4.6,4.6,4.6,4.6C5,4.2,5.5,4,6,4V2C5.5,2,5,1.8,4.7,1.5l0,0C4.2,1,3.7,0.8,3,0.8 c-1.2,0-2.2,1-2.2,2.2c0,0.6,0.2,1.1,0.6,1.5l0,0C1.8,4.9,2,5.4,2,6h2C4,5.5,4.2,5,4.6,4.6z"/></g>
<g transform="translate(259.5,163.5) scale(2.06)"><path d="M0.3,4.3C0.8,5.3,1.8,6,3,6s2.2-0.7,2.7-1.7C5.8,4.1,5.9,4,6,4V2C5.9,2,5.8,1.9,5.7,1.7C5.2,0.7,4.2,0,3,0 S0.8,0.7,0.3,1.7C0.2,1.9,0.1,2,0,2v2C0.1,4,0.2,4.1,0.3,4.3z"/></g>
<g transform="translate(271.5,163.5) scale(2.06)"><path d="M1.4,4.6C1.4,4.6,1.4,4.6,1.4,4.6c0.3,0.3,0.5,0.6,0.6,1C2,5.7,2,5.9,2,6h2c0-0.1,0-0.3,0-0.4 c0.1-0.4,0.3-0.7,0.5-1c0,0,0,0,0,0C5,4.2,5.5,4,6,4V2C5.5,2,5,1.8,4.7,1.5c0,0,0,0,0,0C4.2,1,3.7,0.8,3,0.8S1.8,1,1.4,1.5 c0,0,0,0,0,0C1,1.8,0.5,2,0,2v2C0.5,4,1,4.2,1.4,4.6z"/></g>
<g transform="translate(283.5,163.5) scale(2.06)"><path d="M0.3,4.3C0.8,5.3,1.8,6,3,6s2.2-0.7,2.7-1.7C5.8,4.1,5.9,4,6,4V2C5.9,2,5.8,1.9,5.7,1.7C5.2,0.7,4.2,0,3,0 S0.8,0.7,0.3,1.7C0.2,1.9,0.1,2,0,2v2C0.1,4,0.2,4.1,0.3,4.3z"/></g>
<g transform="translate(295.5,163.5) scale(2.06)"><path d="M1.4,1.4C1.4,1.4,1.4,1.4,1.4,1.4C1,1.8,0.5,2,0,2v2c0.5,0,1,0.2,1.3,0.5l0,0C1.8,5,2.3,5.2,3,5.2 c1.2,0,2.2-1,2.2-2.2c0-0.6-0.2-1.1-0.6-1.5l0,0C4.2,1.1,4,0.6,4,0H2C2,0.5,1.8,1,1.4,1.4z"/></g>
<g transform="translate(319.5,163.5) scale(2.06)"><path d="M4.3,5.7C5.3,5.2,6,4.2,6,3S5.3,0.8,4.3,0.3C4.1,0.2,4,0.1,4,0H2c0,0.1-0.1,0.2-0.3,0.3C0.7,0.8,0,1.8,0,3 s0.7,2.2,1.7,2.7C1.9,5.8,2,5.9,2,6h2C4,5.9,4.1,5.8,4.3,5.7z"/></g>
<g transform="translate(343.5,163.5) scale(2.06)"><path d="M3,0.8c-1.2,0-2.2,1-2.2,2.2s1,2.2,2.2,2.2c0.6,0,1.2-0.3,1.6-0.7C5,4.2,5.5,4,6,4V2C5.5,2,5,1.8,4.6,1.4 C4.2,1,3.6,0.8,3,0.8z"/></g>
<g transform="translate(355.5,163.5) scale(2.06)"><path d="M1.4,4.6C1.4,4.6,1.4,4.6,1.4,4.6c0.3,0.3,0.5,0.6,0.6,1C2,5.7,2,5.9,2,6h2c0-0.1,0-0.3,0-0.4 c0.1-0.4,0.3-0.7,0.5-1c0,0,0,0,0,0C5,4.2,5.5,4,6,4V2C5.5,2,5,1.8,4.7,1.5c0,0,0,0,0,0C4.2,1,3.7,0.8,3,0.8S1.8,1,1.4,1.5 c0,0,0,0,0,0C1,1.8,0.5,2,0,2v2C0.5,4,1,4.2,1.4,4.6z"/></g>
<g transform="translate(367.5,163.5) scale(2.06)"><path d="M1.4,1.4C1.4,1.4,1.4,1.4,1.4,1.4C1,1.8,0.5,2,0,2v2c0.5,0,1,0.2,1.3,0.5l0,0C1.8,5,2.3,5.2,3,5.2 c1.2,0,2.2-1,2.2-2.2c0-0.6-0.2-1.1-0.6-1.5l0,0C4.2,1.1,4,0.6,4,0H2C2,0.5,1.8,1,1.4,1.4z"/></g>
<g transform="translate(55.5,175.5) scale(2.06)"><path d="M3,0.8c-1.2,0-2.2,1-2.2,2.2s1,2.2,2.2,2.2c0.6,0,1.2-0.3,1.6-0.7C5,4.2,5.5,4,6,4V2C5.5,2,5,1.8,4.6,1.4 C4.2,1,3.6,0.8,3,0.8z"/></g>
<g transform="translate(67.5,175.5) scale(2.06)"><path d="M3,5.2c1.2,0,2.2-1,2.2-2.2S4.2,0.8,3,0.8C2.4,0.8,1.8,1,1.4,1.4C1,1.8,0.5,2,0,2v2c0.5,0,1,0.2,1.4,0.6 C1.8,5,2.4,5.2,3,5.2z"/></g>
<g transform="translate(103.5,175.5) scale(2.06)"><circle cx="3" cy="3" r="3"/></g>
<g transform="translate(163.5,175.5) scale(2.06)"><path d="M5.2,3c0-1.2-1-2.2-2.2-2.2S0.8,1.8,0.8,3c0,0.6,0.3,1.2,0.7,1.6C1.8,5,2,5.5,2,6h2c0-0.5,0.2-1,0.6-1.4 C5,4.2,5.2,3.6,5.2,3z"/></g>
<g transform="translate(187.5,175.5) scale(2.06)"><path d="M5.2,3c0-1.2-1-2.2-2.2-2.2S0.8,1.8,0.8,3c0,0.6,0.3,1.2,0.7,1.6C1.8,5,2,5.5,2,6h2c0-0.5,0.2-1,0.6-1.4 C5,4.2,5.2,3.6,5.2,3z"/></g>
<g transform="translate(211.5,175.5) scale(2.06)"><circle cx="3" cy="3" r="3"/></g>
<g transform="translate(247.5,175.5) scale(2.06)"><path d="M4.3,5.7C5.3,5.2,6,4.2,6,3S5.3,0.8,4.3,0.3C4.1,0.2,4,0.1,4,0H2c0,0.1-0.1,0.2-0.3,0.3C0.7,0.8,0,1.8,0,3 s0.7,2.2,1.7,2.7C1.9,5.8,2,5.9,2,6h2C4,5.9,4.1,5.8,4.3,5.7z"/></g>
<g transform="translate(271.5,175.5) scale(2.06)"><path d="M0.8,3c0,1.2,1,2.2,2.2,2.2s2.2-1,2.2-2.2c0-0.6-0.3-1.2-0.7-1.6C4.2,1,4,0.5,4,0H2c0,0.5-0.2,1-0.6,1.4 C1,1.8,0.8,2.4,0.8,3z"/></g>
<g transform="translate(319.5,175.5) scale(2.06)"><path d="M4.6,1.4C4.6,1.4,4.6,1.4,4.6,1.4C4.2,1,4,0.5,4,0H2c0,0.5-0.2,1-0.5,1.3l0,0C1,1.8,0.8,2.3,0.8,3 c0,1.2,1,2.2,2.2,2.2c0.6,0,1.1-0.2,1.5-0.6l0,0C4.9,4.2,5.4,4,6,4V2C5.5,2,5,1.8,4.6,1.4z"/></g>
<g transform="translate(331.5,175.5) scale(2.06)"><path d="M1.4,4.6C1.4,4.6,1.4,4.6,1.4,4.6C1.8,5,2,5.5,2,6h2c0-0.5,0.2-1,0.5-1.3l0,0C5,4.2,5.2,3.7,5.2,3 c0-1.2-1-2.2-2.2-2.2C2.4,0.8,1.9,1,1.5,1.4l0,0C1.1,1.8,0.6,2,0,2v2C0.5,4,1,4.2,1.4,4.6z"/></g>
<g transform="translate(355.5,175.5) scale(2.06)"><path d="M4.3,5.7C5.3,5.2,6,4.2,6,3S5.3,0.8,4.3,0.3C4.1,0.2,4,0.1,4,0H2c0,0.1-0.1,0.2-0.3,0.3C0.7,0.8,0,1.8,0,3 s0.7,2.2,1.7,2.7C1.9,5.8,2,5.9,2,6h2C4,5.9,4.1,5.8,4.3,5.7z"/></g>
<g transform="translate(379.5,175.5) scale(2.06)"><path d="M5.2,3c0-1.2-1-2.2-2.2-2.2S0.8,1.8,0.8,3c0,0.6,0.3,1.2,0.7,1.6C1.8,5,2,5.5,2,6h2c0-0.5,0.2-1,0.6-1.4 C5,4.2,5.2,3.6,5.2,3z"/></g>
<g transform="translate(43.5,187.5) scale(2.06)"><circle cx="3" cy="3" r="3"/></g>
<g transform="translate(79.5,187.5) scale(2.06)"><path d="M4.6,4.6C4.6,4.6,4.6,4.6,4.6,4.6C5,4.2,5.5,4,6,4V2C5.5,2,5,1.8,4.7,1.5l0,0C4.2,1,3.7,0.8,3,0.8 c-1.2,0-2.2,1-2.2,2.2c0,0.6,0.2,1.1,0.6,1.5l0,0C1.8,4.9,2,5.4,2,6h2C4,5.5,4.2,5,4.6,4.6z"/></g>
<g transform="translate(91.5,187.5) scale(2.06)"><path d="M3,5.2c1.2,0,2.2-1,2.2-2.2S4.2,0.8,3,0.8C2.4,0.8,1.8,1,1.4,1.4C1,1.8,0.5,2,0,2v2c0.5,0,1,0.2,1.4,0.6 C1.8,5,2.4,5.2,3,5.2z"/></g>
<g transform="translate(115.5,187.5) scale(2.06)"><path d="M3,0.8c-1.2,0-2.2,1-2.2,2.2s1,2.2,2.2,2.2c0.6,0,1.2-0.3,1.6-0.7C5,4.2,5.5,4,6,4V2C5.5,2,5,1.8,4.6,1.4 C4.2,1,3.6,0.8,3,0.8z"/></g>
<g transform="translate(127.5,187.5) scale(2.06)"><path d="M0.3,4.3C0.8,5.3,1.8,6,3,6s2.2-0.7,2.7-1.7C5.8,4.1,5.9,4,6,4V2C5.9,2,5.8,1.9,5.7,1.7C5.2,0.7,4.2,0,3,0 S0.8,0.7,0.3,1.7C0.2,1.9,0.1,2,0,2v2C0.1,4,0.2,4.1,0.3,4.3z"/></g>
<g transform="translate(139.5,187.5) scale(2.06)"><path d="M1.4,4.6C1.4,4.6,1.4,4.6,1.4,4.6C1.8,5,2,5.5,2,6h2c0-0.5,0.2-1,0.5-1.3l0,0C5,4.2,5.2,3.7,5.2,3 c0-1.2-1-2.2-2.2-2.2C2.4,0.8,1.9,1,1.5,1.4l0,0C1.1,1.8,0.6,2,0,2v2C0.5,4,1,4.2,1.4,4.6z"/></g>
<g transform="translate(163.5,187.5) scale(2.06)"><path d="M4.3,5.7C5.3,5.2,6,4.2,6,3S5.3,0.8,4.3,0.3C4.1,0.2,4,0.1,4,0H2c0,0.1-0.1,0.2-0.3,0.3C0.7,0.8,0,1.8,0,3 s0.7,2.2,1.7,2.7C1.9,5.8,2,5.9,2,6h2C4,5.9,4.1,5.8,4.3,5.7z"/></g>
<g transform="translate(187.5,187.5) scale(2.06)"><path d="M4.6,1.4C4.6,1.4,4.6,1.4,4.6,1.4C4.2,1,4,0.5,4,0H2c0,0.5-0.2,1-0.5,1.3l0,0C1,1.8,0.8,2.3,0.8,3 c0,1.2,1,2.2,2.2,2.2c0.6,0,1.1-0.2,1.5-0.6l0,0C4.9,4.2,5.4,4,6,4V2C5.5,2,5,1.8,4.6,1.4z"/></g>
<g transform="translate(199.5,187.5) scale(2.06)"><path d="M3,5.2c1.2,0,2.2-1,2.2-2.2S4.2,0.8,3,0.8C2.4,0.8,1.8,1,1.4,1.4C1,1.8,0.5,2,0,2v2c0.5,0,1,0.2,1.4,0.6 C1.8,5,2.4,5.2,3,5.2z"/></g>
<g transform="translate(223.5,187.5) scale(2.06)"><path d="M5.2,3c0-1.2-1-2.2-2.2-2.2S0.8,1.8,0.8,3c0,0.6,0.3,1.2,0.7,1.6C1.8,5,2,5.5,2,6h2c0-0.5,0.2-1,0.6-1.4 C5,4.2,5.2,3.6,5.2,3z"/></g>
<g transform="translate(247.5,187.5) scale(2.06)"><path d="M4.6,1.4C4.6,1.4,4.6,1.4,4.6,1.4C4.2,1,4,0.5,4,0H2c0,0.5-0.2,1-0.5,1.3l0,0C1,1.8,0.8,2.3,0.8,3 c0,1.2,1,2.2,2.2,2.2c0.6,0,1.1-0.2,1.5-0.6l0,0C4.9,4.2,5.4,4,6,4V2C5.5,2,5,1.8,4.6,1.4z"/></g>
<g transform="translate(259.5,187.5) scale(2.06)"><path d="M1.4,4.6C1.4,4.6,1.4,4.6,1.4,4.6C1.8,5,2,5.5,2,6h2c0-0.5,0.2-1,0.5-1.3l0,0C5,4.2,5.2,3.7,5.2,3 c0-1.2-1-2.2-2.2-2.2C2.4,0.8,1.9,1,1.5,1.4l0,0C1.1,1.8,0.6,2,0,2v2C0.5,4,1,4.2,1.4,4.6z"/></g>
<g transform="translate(283.5,187.5) scale(2.06)"><circle cx="3" cy="3" r="3"/></g>
<g transform="translate(331.5,187.5) scale(2.06)"><path d="M4.3,5.7C5.3,5.2,6,4.2,6,3S5.3,0.8,4.3,0.3C4.1,0.2,4,0.1,4,0H2c0,0.1-0.1,0.2-0.3,0.3C0.7,0.8,0,1.8,0,3 s0.7,2.2,1.7,2.7C1.9,5.8,2,5.9,2,6h2C4,5.9,4.1,5.8,4.3,5.7z"/></g>
<g transform="translate(355.5,187.5) scale(2.06)"><path d="M4.6,1.4C4.6,1.4,4.6,1.4,4.6,1.4C4.2,1,4,0.5,4,0H2c0,0.5-0.2,1-0.5,1.3l0,0C1,1.8,0.8,2.3,0.8,3 c0,1.2,1,2.2,2.2,2.2c0.6,0,1.1-0.2,1.5-0.6l0,0C4.9,4.2,5.4,4,6,4V2C5.5,2,5,1.8,4.6,1.4z"/></g>
<g transform="translate(367.5,187.5) scale(2.06)"><path d="M1.4,4.6C1.4,4.6,1.4,4.6,1.4,4.6c0.3,0.3,0.5,0.6,0.6,1C2,5.7,2,5.9,2,6h2c0-0.1,0-0.3,0-0.4 c0.1-0.4,0.3-0.7,0.5-1c0,0,0,0,0,0C5,4.2,5.5,4,6,4V2C5.5,2,5,1.8,4.7,1.5c0,0,0,0,0,0C4.2,1,3.7,0.8,3,0.8S1.8,1,1.4,1.5 c0,0,0,0,0,0C1,1.8,0.5,2,0,2v2C0.5,4,1,4.2,1.4,4.6z"/></g>
<g transform="translate(379.5,187.5) scale(2.06)"><path d="M1.4,1.4C1.4,1.4,1.4,1.4,1.4,1.4C1,1.8,0.5,2,0,2v2c0.5,0,1,0.2,1.3,0.5l0,0C1.8,5,2.3,5.2,3,5.2 c1.2,0,2.2-1,2.2-2.2c0-0.6-0.2-1.1-0.6-1.5l0,0C4.2,1.1,4,0.6,4,0H2C2,0.5,1.8,1,1.4,1.4z"/></g>
<g transform="translate(55.5,199.5) scale(2.06)"><circle cx="3" cy="3" r="3"/></g>
<g transform="translate(79.5,199.5) scale(2.06)"><path d="M4.3,5.7C5.3,5.2,6,4.2,6,3S5.3,0.8,4.3,0.3C4.1,0.2,4,0.1,4,0H2c0,0.1-0.1,0.2-0.3,0.3C0.7,0.8,0,1.8,0,3 s0.7,2.2,1.7,2.7C1.9,5.8,2,5.9,2,6h2C4,5.9,4.1,5.8,4.3,5.7z"/></g>
<g transform="translate(139.5,199.5) scale(2.06)"><path d="M4.6,1.4C4.6,1.4,4.6,1.4,4.6,1.4C4.2,1,4,0.5,4,0H2c0,0.5-0.2,1-0.5,1.3l0,0C1,1.8,0.8,2.3,0.8,3 c0,1.2,1,2.2,2.2,2.2c0.6,0,1.1-0.2,1.5-0.6l0,0C4.9,4.2,5.4,4,6,4V2C5.5,2,5,1.8,4.6,1.4z"/></g>
<g transform="translate(151.5,199.5) scale(2.06)"><path d="M1.4,4.6C1.4,4.6,1.4,4.6,1.4,4.6c0.3,0.3,0.5,0.6,0.6,1C2,5.7,2,5.9,2,6h2c0-0.1,0-0.3,0-0.4 c0.1-0.4,0.3-0.7,0.5-1c0,0,0,0,0,0C5,4.2,5.5,4,6,4V2C5.5,2,5,1.8,4.7,1.5c0,0,0,0,0,0C4.2,1,3.7,0.8,3,0.8S1.8,1,1.4,1.5 c0,0,0,0,0,0C1,1.8,0.5,2,0,2v2C0.5,4,1,4.2,1.4,4.6z"/></g>
<g transform="translate(163.5,199.5) scale(2.06)"><path d="M4.6,1.4C4.6,1.4,4.6,1.4,4.6,1.4C4.3,1.1,4.1,0.8,4,0.4C4,0.3,4,0.1,4,0H2c0,0.1,0,0.3,0,0.4 c-0.1,0.4-0.3,0.7-0.5,1c0,0,0,0,0,0C1,1.8,0.5,2,0,2v2c0.5,0,1,0.2,1.3,0.5c0,0,0,0,0,0C1.8,5,2.3,5.2,3,5.2S4.2,5,4.6,4.5 c0,0,0,0,0,0C5,4.2,5.5,4,6,4V2C5.5,2,5,1.8,4.6,1.4z"/></g>
<g transform="translate(175.5,199.5) scale(2.06)"><path d="M1.4,4.6C1.4,4.6,1.4,4.6,1.4,4.6C1.8,5,2,5.5,2,6h2c0-0.5,0.2-1,0.5-1.3l0,0C5,4.2,5.2,3.7,5.2,3 c0-1.2-1-2.2-2.2-2.2C2.4,0.8,1.9,1,1.5,1.4l0,0C1.1,1.8,0.6,2,0,2v2C0.5,4,1,4.2,1.4,4.6z"/></g>
<g transform="translate(211.5,199.5) scale(2.06)"><path d="M4.6,4.6C4.6,4.6,4.6,4.6,4.6,4.6C5,4.2,5.5,4,6,4V2C5.5,2,5,1.8,4.7,1.5l0,0C4.2,1,3.7,0.8,3,0.8 c-1.2,0-2.2,1-2.2,2.2c0,0.6,0.2,1.1,0.6,1.5l0,0C1.8,4.9,2,5.4,2,6h2C4,5.5,4.2,5,4.6,4.6z"/></g>
<g transform="translate(223.5,199.5) scale(2.06)"><path d="M1.4,1.4C1.4,1.4,1.4,1.4,1.4,1.4C1,1.8,0.5,2,0,2v2c0.5,0,1,0.2,1.3,0.5l0,0C1.8,5,2.3,5.2,3,5.2 c1.2,0,2.2-1,2.2-2.2c0-0.6-0.2-1.1-0.6-1.5l0,0C4.2,1.1,4,0.6,4,0H2C2,0.5,1.8,1,1.4,1.4z"/></g>
<g transform="translate(259.5,199.5) scale(2.06)"><path d="M4.3,5.7C5.3,5.2,6,4.2,6,3S5.3,0.8,4.3,0.3C4.1,0.2,4,0.1,4,0H2c0,0.1-0.1,0.2-0.3,0.3C0.7,0.8,0,1.8,0,3 s0.7,2.2,1.7,2.7C1.9,5.8,2,5.9,2,6h2C4,5.9,4.1,5.8,4.3,5.7z"/></g>
<g transform="translate(295.5,199.5) scale(2.06)"><path d="M3,0.8c-1.2,0-2.2,1-2.2,2.2s1,2.2,2.2,2.2c0.6,0,1.2-0.3,1.6-0.7C5,4.2,5.5,4,6,4V2C5.5,2,5,1.8,4.6,1.4 C4.2,1,3.6,0.8,3,0.8z"/></g>
<g transform="translate(307.5,199.5) scale(2.06)"><path d="M0.3,4.3C0.8,5.3,1.8,6,3,6s2.2-0.7,2.7-1.7C5.8,4.1,5.9,4,6,4V2C5.9,2,5.8,1.9,5.7,1.7C5.2,0.7,4.2,0,3,0 S0.8,0.7,0.3,1.7C0.2,1.9,0.1,2,0,2v2C0.1,4,0.2,4.1,0.3,4.3z"/></g>
<g transform="translate(319.5,199.5) scale(2.06)"><path d="M0.3,4.3C0.8,5.3,1.8,6,3,6s2.2-0.7,2.7-1.7C5.8,4.1,5.9,4,6,4V2C5.9,2,5.8,1.9,5.7,1.7C5.2,0.7,4.2,0,3,0 S0.8,0.7,0.3,1.7C0.2,1.9,0.1,2,0,2v2C0.1,4,0.2,4.1,0.3,4.3z"/></g>
<g transform="translate(331.5,199.5) scale(2.06)"><path d="M4,0H2c0,1.1-0.9,2-2,2v2c1.1,0,2,0.9,2,2h2c0-1.1,0.9-2,2-2V2C4.9,2,4,1.1,4,0z"/></g>
<g transform="translate(343.5,199.5) scale(2.06)"><path d="M1.4,4.6C1.4,4.6,1.4,4.6,1.4,4.6C1.8,5,2,5.5,2,6h2c0-0.5,0.2-1,0.5-1.3l0,0C5,4.2,5.2,3.7,5.2,3 c0-1.2-1-2.2-2.2-2.2C2.4,0.8,1.9,1,1.5,1.4l0,0C1.1,1.8,0.6,2,0,2v2C0.5,4,1,4.2,1.4,4.6z"/></g>
<g transform="translate(367.5,199.5) scale(2.06)"><path d="M4.3,5.7C5.3,5.2,6,4.2,6,3S5.3,0.8,4.3,0.3C4.1,0.2,4,0.1,4,0H2c0,0.1-0.1,0.2-0.3,0.3C0.7,0.8,0,1.8,0,3 s0.7,2.2,1.7,2.7C1.9,5.8,2,5.9,2,6h2C4,5.9,4.1,5.8,4.3,5.7z"/></g>
<g transform="translate(67.5,211.5) scale(2.06)"><path d="M4.6,4.6C4.6,4.6,4.6,4.6,4.6,4.6C5,4.2,5.5,4,6,4V2C5.5,2,5,1.8,4.7,1.5l0,0C4.2,1,3.7,0.8,3,0.8 c-1.2,0-2.2,1-2.2,2.2c0,0.6,0.2,1.1,0.6,1.5l0,0C1.8,4.9,2,5.4,2,6h2C4,5.5,4.2,5,4.6,4.6z"/></g>
<g transform="translate(79.5,211.5) scale(2.06)"><path d="M4,0H2c0,1.1-0.9,2-2,2v2c1.1,0,2,0.9,2,2h2c0-1.1,0.9-2,2-2V2C4.9,2,4,1.1,4,0z"/></g>
<g transform="translate(91.5,211.5) scale(2.06)"><path d="M1.4,4.6C1.4,4.6,1.4,4.6,1.4,4.6C1.8,5,2,5.5,2,6h2c0-0.5,0.2-1,0.5-1.3l0,0C5,4.2,5.2,3.7,5.2,3 c0-1.2-1-2.2-2.2-2.2C2.4,0.8,1.9,1,1.5,1.4l0,0C1.1,1.8,0.6,2,0,2v2C0.5,4,1,4.2,1.4,4.6z"/></g>
<g transform="translate(115.5,211.5) scale(2.06)"><circle cx="3" cy="3" r="3"/></g>
<g transform="translate(151.5,211.5) scale(2.06)"><path d="M4.3,5.7C5.3,5.2,6,4.2,6,3S5.3,0.8,4.3,0.3C4.1,0.2,4,0.1,4,0H2c0,0.1-0.1,0.2-0.3,0.3C0.7,0.8,0,1.8,0,3 s0.7,2.2,1.7,2.7C1.9,5.8,2,5.9,2,6h2C4,5.9,4.1,5.8,4.3,5.7z"/></g>
<g transform="translate(175.5,211.5) scale(2.06)"><path d="M0.8,3c0,1.2,1,2.2,2.2,2.2s2.2-1,2.2-2.2c0-0.6-0.3-1.2-0.7-1.6C4.2,1,4,0.5,4,0H2c0,0.5-0.2,1-0.6,1.4 C1,1.8,0.8,2.4,0.8,3z"/></g>
<g transform="translate(199.5,211.5) scale(2.06)"><path d="M4.6,4.6C4.6,4.6,4.6,4.6,4.6,4.6C5,4.2,5.5,4,6,4V2C5.5,2,5,1.8,4.7,1.5l0,0C4.2,1,3.7,0.8,3,0.8 c-1.2,0-2.2,1-2.2,2.2c0,0.6,0.2,1.1,0.6,1.5l0,0C1.8,4.9,2,5.4,2,6h2C4,5.5,4.2,5,4.6,4.6z"/></g>
<g transform="translate(211.5,211.5) scale(2.06)"><path d="M1.4,1.4C1.4,1.4,1.4,1.4,1.4,1.4C1.1,1.7,0.8,1.9,0.4,2C0.3,2,0.1,2,0,2v2c0.1,0,0.3,0,0.4,0 c0.4,0.1,0.7,0.3,1,0.5c0,0,0,0,0,0C1.8,5,2,5.5,2,6h2c0-0.5,0.2-1,0.5-1.3c0,0,0,0,0,0C5,4.2,5.2,3.7,5.2,3S5,1.8,4.5,1.4 c0,0,0,0,0,0C4.2,1,4,0.5,4,0H2C2,0.5,1.8,1,1.4,1.4z"/></g>
<g transform="translate(235.5,211.5) scale(2.06)"><path d="M5.2,3c0-1.2-1-2.2-2.2-2.2S0.8,1.8,0.8,3c0,0.6,0.3,1.2,0.7,1.6C1.8,5,2,5.5,2,6h2c0-0.5,0.2-1,0.6-1.4 C5,4.2,5.2,3.6,5.2,3z"/></g>
<g transform="translate(259.5,211.5) scale(2.06)"><path d="M4.6,4.6C4.6,4.6,4.6,4.6,4.6,4.6c0.3-0.3,0.6-0.5,1-0.6C5.7,4,5.9,4,6,4V2C5.9,2,5.7,2,5.6,2 c-0.4-0.1-0.7-0.3-1-0.5c0,0,0,0,0,0C4.2,1,4,0.5,4,0H2c0,0.5-0.2,1-0.5,1.3c0,0,0,0,0,0C1,1.8,0.8,2.3,0.8,3S1,4.2,1.5,4.6 c0,0,0,0,0,0C1.8,5,2,5.5,2,6h2C4,5.5,4.2,5,4.6,4.6z"/></g>
<g transform="translate(271.5,211.5) scale(2.06)"><path d="M1.4,4.6C1.4,4.6,1.4,4.6,1.4,4.6C1.8,5,2,5.5,2,6h2c0-0.5,0.2-1,0.5-1.3l0,0C5,4.2,5.2,3.7,5.2,3 c0-1.2-1-2.2-2.2-2.2C2.4,0.8,1.9,1,1.5,1.4l0,0C1.1,1.8,0.6,2,0,2v2C0.5,4,1,4.2,1.4,4.6z"/></g>
<g transform="translate(331.5,211.5) scale(2.06)"><path d="M4.6,1.4C4.6,1.4,4.6,1.4,4.6,1.4C4.2,1,4,0.5,4,0H2c0,0.5-0.2,1-0.5,1.3l0,0C1,1.8,0.8,2.3,0.8,3 c0,1.2,1,2.2,2.2,2.2c0.6,0,1.1-0.2,1.5-0.6l0,0C4.9,4.2,5.4,4,6,4V2C5.5,2,5,1.8,4.6,1.4z"/></g>
<g transform="translate(343.5,211.5) scale(2.06)"><path d="M1.4,1.4C1.4,1.4,1.4,1.4,1.4,1.4C1.1,1.7,0.8,1.9,0.4,2C0.3,2,0.1,2,0,2v2c0.1,0,0.3,0,0.4,0 c0.4,0.1,0.7,0.3,1,0.5c0,0,0,0,0,0C1.8,5,2,5.5,2,6h2c0-0.5,0.2-1,0.5-1.3c0,0,0,0,0,0C5,4.2,5.2,3.7,5.2,3S5,1.8,4.5,1.4 c0,0,0,0,0,0C4.2,1,4,0.5,4,0H2C2,0.5,1.8,1,1.4,1.4z"/></g>
<g transform="translate(367.5,211.5) scale(2.06)"><path d="M0.8,3c0,1.2,1,2.2,2.2,2.2s2.2-1,2.2-2.2c0-0.6-0.3-1.2-0.7-1.6C4.2,1,4,0.5,4,0H2c0,0.5-0.2,1-0.6,1.4 C1,1.8,0.8,2.4,0.8,3z"/></g>
<g transform="translate(67.5,223.5) scale(2.06)"><path d="M4.6,4.6C4.6,4.6,4.6,4.6,4.6,4.6c0.3-0.3,0.6-0.5,1-0.6C5.7,4,5.9,4,6,4V2C5.9,2,5.7,2,5.6,2 c-0.4-0.1-0.7-0.3-1-0.5c0,0,0,0,0,0C4.2,1,4,0.5,4,0H2c0,0.5-0.2,1-0.5,1.3c0,0,0,0,0,0C1,1.8,0.8,2.3,0.8,3S1,4.2,1.5,4.6 c0,0,0,0,0,0C1.8,5,2,5.5,2,6h2C4,5.5,4.2,5,4.6,4.6z"/></g>
<g transform="translate(79.5,223.5) scale(2.06)"><path d="M4,0H2c0,1.1-0.9,2-2,2v2c1.1,0,2,0.9,2,2h2c0-1.1,0.9-2,2-2V2C4.9,2,4,1.1,4,0z"/></g>
<g transform="translate(91.5,223.5) scale(2.06)"><path d="M1.4,1.4C1.4,1.4,1.4,1.4,1.4,1.4C1.1,1.7,0.8,1.9,0.4,2C0.3,2,0.1,2,0,2v2c0.1,0,0.3,0,0.4,0 c0.4,0.1,0.7,0.3,1,0.5c0,0,0,0,0,0C1.8,5,2,5.5,2,6h2c0-0.5,0.2-1,0.5-1.3c0,0,0,0,0,0C5,4.2,5.2,3.7,5.2,3S5,1.8,4.5,1.4 c0,0,0,0,0,0C4.2,1,4,0.5,4,0H2C2,0.5,1.8,1,1.4,1.4z"/></g>
<g transform="translate(127.5,223.5) scale(2.06)"><path d="M4.6,4.6C4.6,4.6,4.6,4.6,4.6,4.6C5,4.2,5.5,4,6,4V2C5.5,2,5,1.8,4.7,1.5l0,0C4.2,1,3.7,0.8,3,0.8 c-1.2,0-2.2,1-2.2,2.2c0,0.6,0.2,1.1,0.6,1.5l0,0C1.8,4.9,2,5.4,2,6h2C4,5.5,4.2,5,4.6,4.6z"/></g>
<g transform="translate(139.5,223.5) scale(2.06)"><path d="M1.4,4.6C1.4,4.6,1.4,4.6,1.4,4.6c0.3,0.3,0.5,0.6,0.6,1C2,5.7,2,5.9,2,6h2c0-0.1,0-0.3,0-0.4 c0.1-0.4,0.3-0.7,0.5-1c0,0,0,0,0,0C5,4.2,5.5,4,6,4V2C5.5,2,5,1.8,4.7,1.5c0,0,0,0,0,0C4.2,1,3.7,0.8,3,0.8S1.8,1,1.4,1.5 c0,0,0,0,0,0C1,1.8,0.5,2,0,2v2C0.5,4,1,4.2,1.4,4.6z"/></g>
<g transform="translate(151.5,223.5) scale(2.06)"><path d="M1.4,1.4C1.4,1.4,1.4,1.4,1.4,1.4C1.1,1.7,0.8,1.9,0.4,2C0.3,2,0.1,2,0,2v2c0.1,0,0.3,0,0.4,0 c0.4,0.1,0.7,0.3,1,0.5c0,0,0,0,0,0C1.8,5,2,5.5,2,6h2c0-0.5,0.2-1,0.5-1.3c0,0,0,0,0,0C5,4.2,5.2,3.7,5.2,3S5,1.8,4.5,1.4 c0,0,0,0,0,0C4.2,1,4,0.5,4,0H2C2,0.5,1.8,1,1.4,1.4z"/></g>
<g transform="translate(199.5,223.5) scale(2.06)"><path d="M4.6,4.6C4.6,4.6,4.6,4.6,4.6,4.6c0.3-0.3,0.6-0.5,1-0.6C5.7,4,5.9,4,6,4V2C5.9,2,5.7,2,5.6,2 c-0.4-0.1-0.7-0.3-1-0.5c0,0,0,0,0,0C4.2,1,4,0.5,4,0H2c0,0.5-0.2,1-0.5,1.3c0,0,0,0,0,0C1,1.8,0.8,2.3,0.8,3S1,4.2,1.5,4.6 c0,0,0,0,0,0C1.8,5,2,5.5,2,6h2C4,5.5,4.2,5,4.6,4.6z"/></g>
<g transform="translate(211.5,223.5) scale(2.06)"><path d="M1.4,1.4C1.4,1.4,1.4,1.4,1.4,1.4C1,1.8,0.5,2,0,2v2c0.5,0,1,0.2,1.3,0.5l0,0C1.8,5,2.3,5.2,3,5.2 c1.2,0,2.2-1,2.2-2.2c0-0.6-0.2-1.1-0.6-1.5l0,0C4.2,1.1,4,0.6,4,0H2C2,0.5,1.8,1,1.4,1.4z"/></g>
<g transform="translate(235.5,223.5) scale(2.06)"><path d="M0.8,3c0,1.2,1,2.2,2.2,2.2s2.2-1,2.2-2.2c0-0.6-0.3-1.2-0.7-1.6C4.2,1,4,0.5,4,0H2c0,0.5-0.2,1-0.6,1.4 C1,1.8,0.8,2.4,0.8,3z"/></g>
<g transform="translate(259.5,223.5) scale(2.06)"><path d="M4.6,4.6C4.6,4.6,4.6,4.6,4.6,4.6c0.3-0.3,0.6-0.5,1-0.6C5.7,4,5.9,4,6,4V2C5.9,2,5.7,2,5.6,2 c-0.4-0.1-0.7-0.3-1-0.5c0,0,0,0,0,0C4.2,1,4,0.5,4,0H2c0,0.5-0.2,1-0.5,1.3c0,0,0,0,0,0C1,1.8,0.8,2.3,0.8,3S1,4.2,1.5,4.6 c0,0,0,0,0,0C1.8,5,2,5.5,2,6h2C4,5.5,4.2,5,4.6,4.6z"/></g>
<g transform="translate(271.5,223.5) scale(2.06)"><path d="M4.6,1.4C4.6,1.4,4.6,1.4,4.6,1.4C4.3,1.1,4.1,0.8,4,0.4C4,0.3,4,0.1,4,0H2c0,0.1,0,0.3,0,0.4 c-0.1,0.4-0.3,0.7-0.5,1c0,0,0,0,0,0C1,1.8,0.5,2,0,2v2c0.5,0,1,0.2,1.3,0.5c0,0,0,0,0,0C1.8,5,2.3,5.2,3,5.2S4.2,5,4.6,4.5 c0,0,0,0,0,0C5,4.2,5.5,4,6,4V2C5.5,2,5,1.8,4.6,1.4z"/></g>
<g transform="translate(283.5,223.5) scale(2.06)"><path d="M1.4,4.6C1.4,4.6,1.4,4.6,1.4,4.6c0.3,0.3,0.5,0.6,0.6,1C2,5.7,2,5.9,2,6h2c0-0.1,0-0.3,0-0.4 c0.1-0.4,0.3-0.7,0.5-1c0,0,0,0,0,0C5,4.2,5.5,4,6,4V2C5.5,2,5,1.8,4.7,1.5c0,0,0,0,0,0C4.2,1,3.7,0.8,3,0.8S1.8,1,1.4,1.5 c0,0,0,0,0,0C1,1.8,0.5,2,0,2v2C0.5,4,1,4.2,1.4,4.6z"/></g>
<g transform="translate(295.5,223.5) scale(2.06)"><path d="M1.4,4.6C1.4,4.6,1.4,4.6,1.4,4.6c0.3,0.3,0.5,0.6,0.6,1C2,5.7,2,5.9,2,6h2c0-0.1,0-0.3,0-0.4 c0.1-0.4,0.3-0.7,0.5-1c0,0,0,0,0,0C5,4.2,5.5,4,6,4V2C5.5,2,5,1.8,4.7,1.5c0,0,0,0,0,0C4.2,1,3.7,0.8,3,0.8S1.8,1,1.4,1.5 c0,0,0,0,0,0C1,1.8,0.5,2,0,2v2C0.5,4,1,4.2,1.4,4.6z"/></g>
<g transform="translate(307.5,223.5) scale(2.06)"><path d="M1.4,4.6C1.4,4.6,1.4,4.6,1.4,4.6c0.3,0.3,0.5,0.6,0.6,1C2,5.7,2,5.9,2,6h2c0-0.1,0-0.3,0-0.4 c0.1-0.4,0.3-0.7,0.5-1c0,0,0,0,0,0C5,4.2,5.5,4,6,4V2C5.5,2,5,1.8,4.7,1.5c0,0,0,0,0,0C4.2,1,3.7,0.8,3,0.8S1.8,1,1.4,1.5 c0,0,0,0,0,0C1,1.8,0.5,2,0,2v2C0.5,4,1,4.2,1.4,4.6z"/></g>
<g transform="translate(319.5,223.5) scale(2.06)"><path d="M3,5.2c1.2,0,2.2-1,2.2-2.2S4.2,0.8,3,0.8C2.4,0.8,1.8,1,1.4,1.4C1,1.8,0.5,2,0,2v2c0.5,0,1,0.2,1.4,0.6 C1.8,5,2.4,5.2,3,5.2z"/></g>
<g transform="translate(343.5,223.5) scale(2.06)"><path d="M0.8,3c0,1.2,1,2.2,2.2,2.2s2.2-1,2.2-2.2c0-0.6-0.3-1.2-0.7-1.6C4.2,1,4,0.5,4,0H2c0,0.5-0.2,1-0.6,1.4 C1,1.8,0.8,2.4,0.8,3z"/></g>
<g transform="translate(43.5,235.5) scale(2.06)"><path d="M4.6,4.6C4.6,4.6,4.6,4.6,4.6,4.6C5,4.2,5.5,4,6,4V2C5.5,2,5,1.8,4.7,1.5l0,0C4.2,1,3.7,0.8,3,0.8 c-1.2,0-2.2,1-2.2,2.2c0,0.6,0.2,1.1,0.6,1.5l0,0C1.8,4.9,2,5.4,2,6h2C4,5.5,4.2,5,4.6,4.6z"/></g>
<g transform="translate(55.5,235.5) scale(2.06)"><path d="M0.3,4.3C0.8,5.3,1.8,6,3,6s2.2-0.7,2.7-1.7C5.8,4.1,5.9,4,6,4V2C5.9,2,5.8,1.9,5.7,1.7C5.2,0.7,4.2,0,3,0 S0.8,0.7,0.3,1.7C0.2,1.9,0.1,2,0,2v2C0.1,4,0.2,4.1,0.3,4.3z"/></g>
<g transform="translate(67.5,235.5) scale(2.06)"><path d="M4.6,1.4C4.6,1.4,4.6,1.4,4.6,1.4C4.3,1.1,4.1,0.8,4,0.4C4,0.3,4,0.1,4,0H2c0,0.1,0,0.3,0,0.4 c-0.1,0.4-0.3,0.7-0.5,1c0,0,0,0,0,0C1,1.8,0.5,2,0,2v2c0.5,0,1,0.2,1.3,0.5c0,0,0,0,0,0C1.8,5,2.3,5.2,3,5.2S4.2,5,4.6,4.5 c0,0,0,0,0,0C5,4.2,5.5,4,6,4V2C5.5,2,5,1.8,4.6,1.4z"/></g>
<g transform="translate(79.5,235.5) scale(2.06)"><path d="M4,0H2c0,1.1-0.9,2-2,2v2c1.1,0,2,0.9,2,2h2c0-1.1,0.9-2,2-2V2C4.9,2,4,1.1,4,0z"/></g>
<g transform="translate(91.5,235.5) scale(2.06)"><path d="M1.4,1.4C1.4,1.4,1.4,1.4,1.4,1.4C1,1.8,0.5,2,0,2v2c0.5,0,1,0.2,1.3,0.5l0,0C1.8,5,2.3,5.2,3,5.2 c1.2,0,2.2-1,2.2-2.2c0-0.6-0.2-1.1-0.6-1.5l0,0C4.2,1.1,4,0.6,4,0H2C2,0.5,1.8,1,1.4,1.4z"/></g>
<g transform="translate(115.5,235.5) scale(2.06)"><path d="M3,0.8c-1.2,0-2.2,1-2.2,2.2s1,2.2,2.2,2.2c0.6,0,1.2-0.3,1.6-0.7C5,4.2,5.5,4,6,4V2C5.5,2,5,1.8,4.6,1.4 C4.2,1,3.6,0.8,3,0.8z"/></g>
<g transform="translate(127.5,235.5) scale(2.06)"><path d="M4,0H2c0,1.1-0.9,2-2,2v2c1.1,0,2,0.9,2,2h2c0-1.1,0.9-2,2-2V2C4.9,2,4,1.1,4,0z"/></g>
<g transform="translate(139.5,235.5) scale(2.06)"><path d="M4.6,1.4C4.6,1.4,4.6,1.4,4.6,1.4C4.3,1.1,4.1,0.8,4,0.4C4,0.3,4,0.1,4,0H2c0,0.1,0,0.3,0,0.4 c-0.1,0.4-0.3,0.7-0.5,1c0,0,0,0,0,0C1,1.8,0.5,2,0,2v2c0.5,0,1,0.2,1.3,0.5c0,0,0,0,0,0C1.8,5,2.3,5.2,3,5.2S4.2,5,4.6,4.5 c0,0,0,0,0,0C5,4.2,5.5,4,6,4V2C5.5,2,5,1.8,4.6,1.4z"/></g>
<g transform="translate(151.5,235.5) scale(2.06)"><path d="M4.6,1.4C4.6,1.4,4.6,1.4,4.6,1.4C4.3,1.1,4.1,0.8,4,0.4C4,0.3,4,0.1,4,0H2c0,0.1,0,0.3,0,0.4 c-0.1,0.4-0.3,0.7-0.5,1c0,0,0,0,0,0C1,1.8,0.5,2,0,2v2c0.5,0,1,0.2,1.3,0.5c0,0,0,0,0,0C1.8,5,2.3,5.2,3,5.2S4.2,5,4.6,4.5 c0,0,0,0,0,0C5,4.2,5.5,4,6,4V2C5.5,2,5,1.8,4.6,1.4z"/></g>
<g transform="translate(163.5,235.5) scale(2.06)"><path d="M0.3,4.3C0.8,5.3,1.8,6,3,6s2.2-0.7,2.7-1.7C5.8,4.1,5.9,4,6,4V2C5.9,2,5.8,1.9,5.7,1.7C5.2,0.7,4.2,0,3,0 S0.8,0.7,0.3,1.7C0.2,1.9,0.1,2,0,2v2C0.1,4,0.2,4.1,0.3,4.3z"/></g>
<g transform="translate(175.5,235.5) scale(2.06)"><path d="M1.4,4.6C1.4,4.6,1.4,4.6,1.4,4.6c0.3,0.3,0.5,0.6,0.6,1C2,5.7,2,5.9,2,6h2c0-0.1,0-0.3,0-0.4 c0.1-0.4,0.3-0.7,0.5-1c0,0,0,0,0,0C5,4.2,5.5,4,6,4V2C5.5,2,5,1.8,4.7,1.5c0,0,0,0,0,0C4.2,1,3.7,0.8,3,0.8S1.8,1,1.4,1.5 c0,0,0,0,0,0C1,1.8,0.5,2,0,2v2C0.5,4,1,4.2,1.4,4.6z"/></g>
<g transform="translate(187.5,235.5) scale(2.06)"><path d="M0.3,4.3C0.8,5.3,1.8,6,3,6s2.2-0.7,2.7-1.7C5.8,4.1,5.9,4,6,4V2C5.9,2,5.8,1.9,5.7,1.7C5.2,0.7,4.2,0,3,0 S0.8,0.7,0.3,1.7C0.2,1.9,0.1,2,0,2v2C0.1,4,0.2,4.1,0.3,4.3z"/></g>
<g transform="translate(199.5,235.5) scale(2.06)"><path d="M1.4,1.4C1.4,1.4,1.4,1.4,1.4,1.4C1,1.8,0.5,2,0,2v2c0.5,0,1,0.2,1.3,0.5l0,0C1.8,5,2.3,5.2,3,5.2 c1.2,0,2.2-1,2.2-2.2c0-0.6-0.2-1.1-0.6-1.5l0,0C4.2,1.1,4,0.6,4,0H2C2,0.5,1.8,1,1.4,1.4z"/></g>
<g transform="translate(223.5,235.5) scale(2.06)"><path d="M5.2,3c0-1.2-1-2.2-2.2-2.2S0.8,1.8,0.8,3c0,0.6,0.3,1.2,0.7,1.6C1.8,5,2,5.5,2,6h2c0-0.5,0.2-1,0.6-1.4 C5,4.2,5.2,3.6,5.2,3z"/></g>
<g transform="translate(259.5,235.5) scale(2.06)"><path d="M4.3,5.7C5.3,5.2,6,4.2,6,3S5.3,0.8,4.3,0.3C4.1,0.2,4,0.1,4,0H2c0,0.1-0.1,0.2-0.3,0.3C0.7,0.8,0,1.8,0,3 s0.7,2.2,1.7,2.7C1.9,5.8,2,5.9,2,6h2C4,5.9,4.1,5.8,4.3,5.7z"/></g>
<g transform="translate(283.5,235.5) scale(2.06)"><path d="M4.6,4.6C4.6,4.6,4.6,4.6,4.6,4.6c0.3-0.3,0.6-0.5,1-0.6C5.7,4,5.9,4,6,4V2C5.9,2,5.7,2,5.6,2 c-0.4-0.1-0.7-0.3-1-0.5c0,0,0,0,0,0C4.2,1,4,0.5,4,0H2c0,0.5-0.2,1-0.5,1.3c0,0,0,0,0,0C1,1.8,0.8,2.3,0.8,3S1,4.2,1.5,4.6 c0,0,0,0,0,0C1.8,5,2,5.5,2,6h2C4,5.5,4.2,5,4.6,4.6z"/></g>
<g transform="translate(295.5,235.5) scale(2.06)"><path d="M4,0H2c0,1.1-0.9,2-2,2v2c1.1,0,2,0.9,2,2h2c0-1.1,0.9-2,2-2V2C4.9,2,4,1.1,4,0z"/></g>
<g transform="translate(307.5,235.5) scale(2.06)"><path d="M1.4,1.4C1.4,1.4,1.4,1.4,1.4,1.4C1.1,1.7,0.8,1.9,0.4,2C0.3,2,0.1,2,0,2v2c0.1,0,0.3,0,0.4,0 c0.4,0.1,0.7,0.3,1,0.5c0,0,0,0,0,0C1.8,5,2,5.5,2,6h2c0-0.5,0.2-1,0.5-1.3c0,0,0,0,0,0C5,4.2,5.2,3.7,5.2,3S5,1.8,4.5,1.4 c0,0,0,0,0,0C4.2,1,4,0.5,4,0H2C2,0.5,1.8,1,1.4,1.4z"/></g>
<g transform="translate(355.5,235.5) scale(2.06)"><circle cx="3" cy="3" r="3"/></g>
<g transform="translate(43.5,247.5) scale(2.06)"><path d="M4.3,5.7C5.3,5.2,6,4.2,6,3S5.3,0.8,4.3,0.3C4.1,0.2,4,0.1,4,0H2c0,0.1-0.1,0.2-0.3,0.3C0.7,0.8,0,1.8,0,3 s0.7,2.2,1.7,2.7C1.9,5.8,2,5.9,2,6h2C4,5.9,4.1,5.8,4.3,5.7z"/></g>
<g transform="translate(79.5,247.5) scale(2.06)"><path d="M0.8,3c0,1.2,1,2.2,2.2,2.2s2.2-1,2.2-2.2c0-0.6-0.3-1.2-0.7-1.6C4.2,1,4,0.5,4,0H2c0,0.5-0.2,1-0.6,1.4 C1,1.8,0.8,2.4,0.8,3z"/></g>
<g transform="translate(103.5,247.5) scale(2.06)"><circle cx="3" cy="3" r="3"/></g>
<g transform="translate(127.5,247.5) scale(2.06)"><path d="M0.8,3c0,1.2,1,2.2,2.2,2.2s2.2-1,2.2-2.2c0-0.6-0.3-1.2-0.7-1.6C4.2,1,4,0.5,4,0H2c0,0.5-0.2,1-0.6,1.4 C1,1.8,0.8,2.4,0.8,3z"/></g>
<g transform="translate(175.5,247.5) scale(2.06)"><path d="M4.3,5.7C5.3,5.2,6,4.2,6,3S5.3,0.8,4.3,0.3C4.1,0.2,4,0.1,4,0H2c0,0.1-0.1,0.2-0.3,0.3C0.7,0.8,0,1.8,0,3 s0.7,2.2,1.7,2.7C1.9,5.8,2,5.9,2,6h2C4,5.9,4.1,5.8,4.3,5.7z"/></g>
<g transform="translate(211.5,247.5) scale(2.06)"><path d="M3,0.8c-1.2,0-2.2,1-2.2,2.2s1,2.2,2.2,2.2c0.6,0,1.2-0.3,1.6-0.7C5,4.2,5.5,4,6,4V2C5.5,2,5,1.8,4.6,1.4 C4.2,1,3.6,0.8,3,0.8z"/></g>
<g transform="translate(223.5,247.5) scale(2.06)"><path d="M4.6,1.4C4.6,1.4,4.6,1.4,4.6,1.4C4.3,1.1,4.1,0.8,4,0.4C4,0.3,4,0.1,4,0H2c0,0.1,0,0.3,0,0.4 c-0.1,0.4-0.3,0.7-0.5,1c0,0,0,0,0,0C1,1.8,0.5,2,0,2v2c0.5,0,1,0.2,1.3,0.5c0,0,0,0,0,0C1.8,5,2.3,5.2,3,5.2S4.2,5,4.6,4.5 c0,0,0,0,0,0C5,4.2,5.5,4,6,4V2C5.5,2,5,1.8,4.6,1.4z"/></g>
<g transform="translate(235.5,247.5) scale(2.06)"><path d="M3,5.2c1.2,0,2.2-1,2.2-2.2S4.2,0.8,3,0.8C2.4,0.8,1.8,1,1.4,1.4C1,1.8,0.5,2,0,2v2c0.5,0,1,0.2,1.4,0.6 C1.8,5,2.4,5.2,3,5.2z"/></g>
<g transform="translate(259.5,247.5) scale(2.06)"><path d="M4.6,1.4C4.6,1.4,4.6,1.4,4.6,1.4C4.2,1,4,0.5,4,0H2c0,0.5-0.2,1-0.5,1.3l0,0C1,1.8,0.8,2.3,0.8,3 c0,1.2,1,2.2,2.2,2.2c0.6,0,1.1-0.2,1.5-0.6l0,0C4.9,4.2,5.4,4,6,4V2C5.5,2,5,1.8,4.6,1.4z"/></g>
<g transform="translate(271.5,247.5) scale(2.06)"><path d="M0.3,4.3C0.8,5.3,1.8,6,3,6s2.2-0.7,2.7-1.7C5.8,4.1,5.9,4,6,4V2C5.9,2,5.8,1.9,5.7,1.7C5.2,0.7,4.2,0,3,0 S0.8,0.7,0.3,1.7C0.2,1.9,0.1,2,0,2v2C0.1,4,0.2,4.1,0.3,4.3z"/></g>
<g transform="translate(283.5,247.5) scale(2.06)"><path d="M4,0H2c0,1.1-0.9,2-2,2v2c1.1,0,2,0.9,2,2h2c0-1.1,0.9-2,2-2V2C4.9,2,4,1.1,4,0z"/></g>
<g transform="translate(295.5,247.5) scale(2.06)"><path d="M4.6,1.4C4.6,1.4,4.6,1.4,4.6,1.4C4.3,1.1,4.1,0.8,4,0.4C4,0.3,4,0.1,4,0H2c0,0.1,0,0.3,0,0.4 c-0.1,0.4-0.3,0.7-0.5,1c0,0,0,0,0,0C1,1.8,0.5,2,0,2v2c0.5,0,1,0.2,1.3,0.5c0,0,0,0,0,0C1.8,5,2.3,5.2,3,5.2S4.2,5,4.6,4.5 c0,0,0,0,0,0C5,4.2,5.5,4,6,4V2C5.5,2,5,1.8,4.6,1.4z"/></g>
<g transform="translate(307.5,247.5) scale(2.06)"><path d="M4.6,1.4C4.6,1.4,4.6,1.4,4.6,1.4C4.3,1.1,4.1,0.8,4,0.4C4,0.3,4,0.1,4,0H2c0,0.1,0,0.3,0,0.4 c-0.1,0.4-0.3,0.7-0.5,1c0,0,0,0,0,0C1,1.8,0.5,2,0,2v2c0.5,0,1,0.2,1.3,0.5c0,0,0,0,0,0C1.8,5,2.3,5.2,3,5.2S4.2,5,4.6,4.5 c0,0,0,0,0,0C5,4.2,5.5,4,6,4V2C5.5,2,5,1.8,4.6,1.4z"/></g>
<g transform="translate(319.5,247.5) scale(2.06)"><path d="M3,5.2c1.2,0,2.2-1,2.2-2.2S4.2,0.8,3,0.8C2.4,0.8,1.8,1,1.4,1.4C1,1.8,0.5,2,0,2v2c0.5,0,1,0.2,1.4,0.6 C1.8,5,2.4,5.2,3,5.2z"/></g>
<g transform="translate(343.5,247.5) scale(2.06)"><circle cx="3" cy="3" r="3"/></g>
<g transform="translate(43.5,259.5) scale(2.06)"><path d="M4.3,5.7C5.3,5.2,6,4.2,6,3S5.3,0.8,4.3,0.3C4.1,0.2,4,0.1,4,0H2c0,0.1-0.1,0.2-0.3,0.3C0.7,0.8,0,1.8,0,3 s0.7,2.2,1.7,2.7C1.9,5.8,2,5.9,2,6h2C4,5.9,4.1,5.8,4.3,5.7z"/></g>
<g transform="translate(91.5,259.5) scale(2.06)"><circle cx="3" cy="3" r="3"/></g>
<g transform="translate(115.5,259.5) scale(2.06)"><circle cx="3" cy="3" r="3"/></g>
<g transform="translate(139.5,259.5) scale(2.06)"><path d="M4.6,4.6C4.6,4.6,4.6,4.6,4.6,4.6C5,4.2,5.5,4,6,4V2C5.5,2,5,1.8,4.7,1.5l0,0C4.2,1,3.7,0.8,3,0.8 c-1.2,0-2.2,1-2.2,2.2c0,0.6,0.2,1.1,0.6,1.5l0,0C1.8,4.9,2,5.4,2,6h2C4,5.5,4.2,5,4.6,4.6z"/></g>
<g transform="translate(151.5,259.5) scale(2.06)"><path d="M1.4,4.6C1.4,4.6,1.4,4.6,1.4,4.6c0.3,0.3,0.5,0.6,0.6,1C2,5.7,2,5.9,2,6h2c0-0.1,0-0.3,0-0.4 c0.1-0.4,0.3-0.7,0.5-1c0,0,0,0,0,0C5,4.2,5.5,4,6,4V2C5.5,2,5,1.8,4.7,1.5c0,0,0,0,0,0C4.2,1,3.7,0.8,3,0.8S1.8,1,1.4,1.5 c0,0,0,0,0,0C1,1.8,0.5,2,0,2v2C0.5,4,1,4.2,1.4,4.6z"/></g>
<g transform="translate(163.5,259.5) scale(2.06)"><path d="M0.3,4.3C0.8,5.3,1.8,6,3,6s2.2-0.7,2.7-1.7C5.8,4.1,5.9,4,6,4V2C5.9,2,5.8,1.9,5.7,1.7C5.2,0.7,4.2,0,3,0 S0.8,0.7,0.3,1.7C0.2,1.9,0.1,2,0,2v2C0.1,4,0.2,4.1,0.3,4.3z"/></g>
<g transform="translate(175.5,259.5) scale(2.06)"><path d="M4.6,1.4C4.6,1.4,4.6,1.4,4.6,1.4C4.3,1.1,4.1,0.8,4,0.4C4,0.3,4,0.1,4,0H2c0,0.1,0,0.3,0,0.4 c-0.1,0.4-0.3,0.7-0.5,1c0,0,0,0,0,0C1,1.8,0.5,2,0,2v2c0.5,0,1,0.2,1.3,0.5c0,0,0,0,0,0C1.8,5,2.3,5.2,3,5.2S4.2,5,4.6,4.5 c0,0,0,0,0,0C5,4.2,5.5,4,6,4V2C5.5,2,5,1.8,4.6,1.4z"/></g>
<g transform="translate(187.5,259.5) scale(2.06)"><path d="M1.4,4.6C1.4,4.6,1.4,4.6,1.4,4.6c0.3,0.3,0.5,0.6,0.6,1C2,5.7,2,5.9,2,6h2c0-0.1,0-0.3,0-0.4 c0.1-0.4,0.3-0.7,0.5-1c0,0,0,0,0,0C5,4.2,5.5,4,6,4V2C5.5,2,5,1.8,4.7,1.5c0,0,0,0,0,0C4.2,1,3.7,0.8,3,0.8S1.8,1,1.4,1.5 c0,0,0,0,0,0C1,1.8,0.5,2,0,2v2C0.5,4,1,4.2,1.4,4.6z"/></g>
<g transform="translate(199.5,259.5) scale(2.06)"><path d="M1.4,4.6C1.4,4.6,1.4,4.6,1.4,4.6C1.8,5,2,5.5,2,6h2c0-0.5,0.2-1,0.5-1.3l0,0C5,4.2,5.2,3.7,5.2,3 c0-1.2-1-2.2-2.2-2.2C2.4,0.8,1.9,1,1.5,1.4l0,0C1.1,1.8,0.6,2,0,2v2C0.5,4,1,4.2,1.4,4.6z"/></g>
<g transform="translate(283.5,259.5) scale(2.06)"><path d="M0.8,3c0,1.2,1,2.2,2.2,2.2s2.2-1,2.2-2.2c0-0.6-0.3-1.2-0.7-1.6C4.2,1,4,0.5,4,0H2c0,0.5-0.2,1-0.6,1.4 C1,1.8,0.8,2.4,0.8,3z"/></g>
<g transform="translate(355.5,259.5) scale(2.06)"><circle cx="3" cy="3" r="3"/></g>
<g transform="translate(379.5,259.5) scale(2.06)"><path d="M5.2,3c0-1.2-1-2.2-2.2-2.2S0.8,1.8,0.8,3c0,0.6,0.3,1.2,0.7,1.6C1.8,5,2,5.5,2,6h2c0-0.5,0.2-1,0.6-1.4 C5,4.2,5.2,3.6,5.2,3z"/></g>
<g transform="translate(43.5,271.5) scale(2.06)"><path d="M4.3,5.7C5.3,5.2,6,4.2,6,3S5.3,0.8,4.3,0.3C4.1,0.2,4,0.1,4,0H2c0,0.1-0.1,0.2-0.3,0.3C0.7,0.8,0,1.8,0,3 s0.7,2.2,1.7,2.7C1.9,5.8,2,5.9,2,6h2C4,5.9,4.1,5.8,4.3,5.7z"/></g>
<g transform="translate(103.5,271.5) scale(2.06)"><path d="M5.2,3c0-1.2-1-2.2-2.2-2.2S0.8,1.8,0.8,3c0,0.6,0.3,1.2,0.7,1.6C1.8,5,2,5.5,2,6h2c0-0.5,0.2-1,0.6-1.4 C5,4.2,5.2,3.6,5.2,3z"/></g>
<g transform="translate(127.5,271.5) scale(2.06)"><path d="M3,0.8c-1.2,0-2.2,1-2.2,2.2s1,2.2,2.2,2.2c0.6,0,1.2-0.3,1.6-0.7C5,4.2,5.5,4,6,4V2C5.5,2,5,1.8,4.6,1.4 C4.2,1,3.6,0.8,3,0.8z"/></g>
<g transform="translate(139.5,271.5) scale(2.06)"><path d="M4.6,1.4C4.6,1.4,4.6,1.4,4.6,1.4C4.3,1.1,4.1,0.8,4,0.4C4,0.3,4,0.1,4,0H2c0,0.1,0,0.3,0,0.4 c-0.1,0.4-0.3,0.7-0.5,1c0,0,0,0,0,0C1,1.8,0.5,2,0,2v2c0.5,0,1,0.2,1.3,0.5c0,0,0,0,0,0C1.8,5,2.3,5.2,3,5.2S4.2,5,4.6,4.5 c0,0,0,0,0,0C5,4.2,5.5,4,6,4V2C5.5,2,5,1.8,4.6,1.4z"/></g>
<g transform="translate(151.5,271.5) scale(2.06)"><path d="M1.4,1.4C1.4,1.4,1.4,1.4,1.4,1.4C1,1.8,0.5,2,0,2v2c0.5,0,1,0.2,1.3,0.5l0,0C1.8,5,2.3,5.2,3,5.2 c1.2,0,2.2-1,2.2-2.2c0-0.6-0.2-1.1-0.6-1.5l0,0C4.2,1.1,4,0.6,4,0H2C2,0.5,1.8,1,1.4,1.4z"/></g>
<g transform="translate(187.5,271.5) scale(2.06)"><path d="M4.6,1.4C4.6,1.4,4.6,1.4,4.6,1.4C4.2,1,4,0.5,4,0H2c0,0.5-0.2,1-0.5,1.3l0,0C1,1.8,0.8,2.3,0.8,3 c0,1.2,1,2.2,2.2,2.2c0.6,0,1.1-0.2,1.5-0.6l0,0C4.9,4.2,5.4,4,6,4V2C5.5,2,5,1.8,4.6,1.4z"/></g>
<g transform="translate(199.5,271.5) scale(2.06)"><path d="M1.4,1.4C1.4,1.4,1.4,1.4,1.4,1.4C1.1,1.7,0.8,1.9,0.4,2C0.3,2,0.1,2,0,2v2c0.1,0,0.3,0,0.4,0 c0.4,0.1,0.7,0.3,1,0.5c0,0,0,0,0,0C1.8,5,2,5.5,2,6h2c0-0.5,0.2-1,0.5-1.3c0,0,0,0,0,0C5,4.2,5.2,3.7,5.2,3S5,1.8,4.5,1.4 c0,0,0,0,0,0C4.2,1,4,0.5,4,0H2C2,0.5,1.8,1,1.4,1.4z"/></g>
<g transform="translate(235.5,271.5) scale(2.06)"><path d="M5.2,3c0-1.2-1-2.2-2.2-2.2S0.8,1.8,0.8,3c0,0.6,0.3,1.2,0.7,1.6C1.8,5,2,5.5,2,6h2c0-0.5,0.2-1,0.6-1.4 C5,4.2,5.2,3.6,5.2,3z"/></g>
<g transform="translate(271.5,271.5) scale(2.06)"><circle cx="3" cy="3" r="3"/></g>
<g transform="translate(295.5,271.5) scale(2.06)"><path d="M4.6,4.6C4.6,4.6,4.6,4.6,4.6,4.6C5,4.2,5.5,4,6,4V2C5.5,2,5,1.8,4.7,1.5l0,0C4.2,1,3.7,0.8,3,0.8 c-1.2,0-2.2,1-2.2,2.2c0,0.6,0.2,1.1,0.6,1.5l0,0C1.8,4.9,2,5.4,2,6h2C4,5.5,4.2,5,4.6,4.6z"/></g>
<g transform="translate(307.5,271.5) scale(2.06)"><path d="M1.4,4.6C1.4,4.6,1.4,4.6,1.4,4.6c0.3,0.3,0.5,0.6,0.6,1C2,5.7,2,5.9,2,6h2c0-0.1,0-0.3,0-0.4 c0.1-0.4,0.3-0.7,0.5-1c0,0,0,0,0,0C5,4.2,5.5,4,6,4V2C5.5,2,5,1.8,4.7,1.5c0,0,0,0,0,0C4.2,1,3.7,0.8,3,0.8S1.8,1,1.4,1.5 c0,0,0,0,0,0C1,1.8,0.5,2,0,2v2C0.5,4,1,4.2,1.4,4.6z"/></g>
<g transform="translate(319.5,271.5) scale(2.06)"><path d="M1.4,4.6C1.4,4.6,1.4,4.6,1.4,4.6c0.3,0.3,0.5,0.6,0.6,1C2,5.7,2,5.9,2,6h2c0-0.1,0-0.3,0-0.4 c0.1-0.4,0.3-0.7,0.5-1c0,0,0,0,0,0C5,4.2,5.5,4,6,4V2C5.5,2,5,1.8,4.7,1.5c0,0,0,0,0,0C4.2,1,3.7,0.8,3,0.8S1.8,1,1.4,1.5 c0,0,0,0,0,0C1,1.8,0.5,2,0,2v2C0.5,4,1,4.2,1.4,4.6z"/></g>
<g transform="translate(331.5,271.5) scale(2.06)"><path d="M1.4,4.6C1.4,4.6,1.4,4.6,1.4,4.6c0.3,0.3,0.5,0.6,0.6,1C2,5.7,2,5.9,2,6h2c0-0.1,0-0.3,0-0.4 c0.1-0.4,0.3-0.7,0.5-1c0,0,0,0,0,0C5,4.2,5.5,4,6,4V2C5.5,2,5,1.8,4.7,1.5c0,0,0,0,0,0C4.2,1,3.7,0.8,3,0.8S1.8,1,1.4,1.5 c0,0,0,0,0,0C1,1.8,0.5,2,0,2v2C0.5,4,1,4.2,1.4,4.6z"/></g>
<g transform="translate(343.5,271.5) scale(2.06)"><path d="M3,5.2c1.2,0,2.2-1,2.2-2.2S4.2,0.8,3,0.8C2.4,0.8,1.8,1,1.4,1.4C1,1.8,0.5,2,0,2v2c0.5,0,1,0.2,1.4,0.6 C1.8,5,2.4,5.2,3,5.2z"/></g>
<g transform="translate(379.5,271.5) scale(2.06)"><path d="M0.8,3c0,1.2,1,2.2,2.2,2.2s2.2-1,2.2-2.2c0-0.6-0.3-1.2-0.7-1.6C4.2,1,4,0.5,4,0H2c0,0.5-0.2,1-0.6,1.4 C1,1.8,0.8,2.4,0.8,3z"/></g>
<g transform="translate(43.5,283.5) scale(2.06)"><path d="M0.8,3c0,1.2,1,2.2,2.2,2.2s2.2-1,2.2-2.2c0-0.6-0.3-1.2-0.7-1.6C4.2,1,4,0.5,4,0H2c0,0.5-0.2,1-0.6,1.4 C1,1.8,0.8,2.4,0.8,3z"/></g>
<g transform="translate(67.5,283.5) scale(2.06)"><circle cx="3" cy="3" r="3"/></g>
<g transform="translate(103.5,283.5) scale(2.06)"><path d="M4.6,1.4C4.6,1.4,4.6,1.4,4.6,1.4C4.2,1,4,0.5,4,0H2c0,0.5-0.2,1-0.5,1.3l0,0C1,1.8,0.8,2.3,0.8,3 c0,1.2,1,2.2,2.2,2.2c0.6,0,1.1-0.2,1.5-0.6l0,0C4.9,4.2,5.4,4,6,4V2C5.5,2,5,1.8,4.6,1.4z"/></g>
<g transform="translate(115.5,283.5) scale(2.06)"><path d="M3,5.2c1.2,0,2.2-1,2.2-2.2S4.2,0.8,3,0.8C2.4,0.8,1.8,1,1.4,1.4C1,1.8,0.5,2,0,2v2c0.5,0,1,0.2,1.4,0.6 C1.8,5,2.4,5.2,3,5.2z"/></g>
<g transform="translate(175.5,283.5) scale(2.06)"><circle cx="3" cy="3" r="3"/></g>
<g transform="translate(199.5,283.5) scale(2.06)"><path d="M0.8,3c0,1.2,1,2.2,2.2,2.2s2.2-1,2.2-2.2c0-0.6-0.3-1.2-0.7-1.6C4.2,1,4,0.5,4,0H2c0,0.5-0.2,1-0.6,1.4 C1,1.8,0.8,2.4,0.8,3z"/></g>
<g transform="translate(235.5,283.5) scale(2.06)"><path d="M4.6,1.4C4.6,1.4,4.6,1.4,4.6,1.4C4.2,1,4,0.5,4,0H2c0,0.5-0.2,1-0.5,1.3l0,0C1,1.8,0.8,2.3,0.8,3 c0,1.2,1,2.2,2.2,2.2c0.6,0,1.1-0.2,1.5-0.6l0,0C4.9,4.2,5.4,4,6,4V2C5.5,2,5,1.8,4.6,1.4z"/></g>
<g transform="translate(247.5,283.5) scale(2.06)"><path d="M1.4,4.6C1.4,4.6,1.4,4.6,1.4,4.6C1.8,5,2,5.5,2,6h2c0-0.5,0.2-1,0.5-1.3l0,0C5,4.2,5.2,3.7,5.2,3 c0-1.2-1-2.2-2.2-2.2C2.4,0.8,1.9,1,1.5,1.4l0,0C1.1,1.8,0.6,2,0,2v2C0.5,4,1,4.2,1.4,4.6z"/></g>
<g transform="translate(283.5,283.5) scale(2.06)"><path d="M4.6,4.6C4.6,4.6,4.6,4.6,4.6,4.6C5,4.2,5.5,4,6,4V2C5.5,2,5,1.8,4.7,1.5l0,0C4.2,1,3.7,0.8,3,0.8 c-1.2,0-2.2,1-2.2,2.2c0,0.6,0.2,1.1,0.6,1.5l0,0C1.8,4.9,2,5.4,2,6h2C4,5.5,4.2,5,4.6,4.6z"/></g>
<g transform="translate(295.5,283.5) scale(2.06)"><path d="M4.6,1.4C4.6,1.4,4.6,1.4,4.6,1.4C4.3,1.1,4.1,0.8,4,0.4C4,0.3,4,0.1,4,0H2c0,0.1,0,0.3,0,0.4 c-0.1,0.4-0.3,0.7-0.5,1c0,0,0,0,0,0C1,1.8,0.5,2,0,2v2c0.5,0,1,0.2,1.3,0.5c0,0,0,0,0,0C1.8,5,2.3,5.2,3,5.2S4.2,5,4.6,4.5 c0,0,0,0,0,0C5,4.2,5.5,4,6,4V2C5.5,2,5,1.8,4.6,1.4z"/></g>
<g transform="translate(307.5,283.5) scale(2.06)"><path d="M4.6,1.4C4.6,1.4,4.6,1.4,4.6,1.4C4.3,1.1,4.1,0.8,4,0.4C4,0.3,4,0.1,4,0H2c0,0.1,0,0.3,0,0.4 c-0.1,0.4-0.3,0.7-0.5,1c0,0,0,0,0,0C1,1.8,0.5,2,0,2v2c0.5,0,1,0.2,1.3,0.5c0,0,0,0,0,0C1.8,5,2.3,5.2,3,5.2S4.2,5,4.6,4.5 c0,0,0,0,0,0C5,4.2,5.5,4,6,4V2C5.5,2,5,1.8,4.6,1.4z"/></g>
<g transform="translate(319.5,283.5) scale(2.06)"><path d="M4.6,1.4C4.6,1.4,4.6,1.4,4.6,1.4C4.3,1.1,4.1,0.8,4,0.4C4,0.3,4,0.1,4,0H2c0,0.1,0,0.3,0,0.4 c-0.1,0.4-0.3,0.7-0.5,1c0,0,0,0,0,0C1,1.8,0.5,2,0,2v2c0.5,0,1,0.2,1.3,0.5c0,0,0,0,0,0C1.8,5,2.3,5.2,3,5.2S4.2,5,4.6,4.5 c0,0,0,0,0,0C5,4.2,5.5,4,6,4V2C5.5,2,5,1.8,4.6,1.4z"/></g>
<g transform="translate(331.5,283.5) scale(2.06)"><path d="M1.4,1.4C1.4,1.4,1.4,1.4,1.4,1.4C1.1,1.7,0.8,1.9,0.4,2C0.3,2,0.1,2,0,2v2c0.1,0,0.3,0,0.4,0 c0.4,0.1,0.7,0.3,1,0.5c0,0,0,0,0,0C1.8,5,2,5.5,2,6h2c0-0.5,0.2-1,0.5-1.3c0,0,0,0,0,0C5,4.2,5.2,3.7,5.2,3S5,1.8,4.5,1.4 c0,0,0,0,0,0C4.2,1,4,0.5,4,0H2C2,0.5,1.8,1,1.4,1.4z"/></g>
<g transform="translate(355.5,283.5) scale(2.06)"><path d="M4.6,4.6C4.6,4.6,4.6,4.6,4.6,4.6C5,4.2,5.5,4,6,4V2C5.5,2,5,1.8,4.7,1.5l0,0C4.2,1,3.7,0.8,3,0.8 c-1.2,0-2.2,1-2.2,2.2c0,0.6,0.2,1.1,0.6,1.5l0,0C1.8,4.9,2,5.4,2,6h2C4,5.5,4.2,5,4.6,4.6z"/></g>
<g transform="translate(367.5,283.5) scale(2.06)"><path d="M3,5.2c1.2,0,2.2-1,2.2-2.2S4.2,0.8,3,0.8C2.4,0.8,1.8,1,1.4,1.4C1,1.8,0.5,2,0,2v2c0.5,0,1,0.2,1.4,0.6 C1.8,5,2.4,5.2,3,5.2z"/></g>
<g transform="translate(139.5,295.5) scale(2.06)"><path d="M4.6,4.6C4.6,4.6,4.6,4.6,4.6,4.6C5,4.2,5.5,4,6,4V2C5.5,2,5,1.8,4.7,1.5l0,0C4.2,1,3.7,0.8,3,0.8 c-1.2,0-2.2,1-2.2,2.2c0,0.6,0.2,1.1,0.6,1.5l0,0C1.8,4.9,2,5.4,2,6h2C4,5.5,4.2,5,4.6,4.6z"/></g>
<g transform="translate(151.5,295.5) scale(2.06)"><path d="M1.4,4.6C1.4,4.6,1.4,4.6,1.4,4.6c0.3,0.3,0.5,0.6,0.6,1C2,5.7,2,5.9,2,6h2c0-0.1,0-0.3,0-0.4 c0.1-0.4,0.3-0.7,0.5-1c0,0,0,0,0,0C5,4.2,5.5,4,6,4V2C5.5,2,5,1.8,4.7,1.5c0,0,0,0,0,0C4.2,1,3.7,0.8,3,0.8S1.8,1,1.4,1.5 c0,0,0,0,0,0C1,1.8,0.5,2,0,2v2C0.5,4,1,4.2,1.4,4.6z"/></g>
<g transform="translate(163.5,295.5) scale(2.06)"><path d="M1.4,4.6C1.4,4.6,1.4,4.6,1.4,4.6C1.8,5,2,5.5,2,6h2c0-0.5,0.2-1,0.5-1.3l0,0C5,4.2,5.2,3.7,5.2,3 c0-1.2-1-2.2-2.2-2.2C2.4,0.8,1.9,1,1.5,1.4l0,0C1.1,1.8,0.6,2,0,2v2C0.5,4,1,4.2,1.4,4.6z"/></g>
<g transform="translate(187.5,295.5) scale(2.06)"><path d="M5.2,3c0-1.2-1-2.2-2.2-2.2S0.8,1.8,0.8,3c0,0.6,0.3,1.2,0.7,1.6C1.8,5,2,5.5,2,6h2c0-0.5,0.2-1,0.6-1.4 C5,4.2,5.2,3.6,5.2,3z"/></g>
<g transform="translate(223.5,295.5) scale(2.06)"><path d="M5.2,3c0-1.2-1-2.2-2.2-2.2S0.8,1.8,0.8,3c0,0.6,0.3,1.2,0.7,1.6C1.8,5,2,5.5,2,6h2c0-0.5,0.2-1,0.6-1.4 C5,4.2,5.2,3.6,5.2,3z"/></g>
<g transform="translate(247.5,295.5) scale(2.06)"><path d="M4.3,5.7C5.3,5.2,6,4.2,6,3S5.3,0.8,4.3,0.3C4.1,0.2,4,0.1,4,0H2c0,0.1-0.1,0.2-0.3,0.3C0.7,0.8,0,1.8,0,3 s0.7,2.2,1.7,2.7C1.9,5.8,2,5.9,2,6h2C4,5.9,4.1,5.8,4.3,5.7z"/></g>
<g transform="translate(283.5,295.5) scale(2.06)"><path d="M4.3,5.7C5.3,5.2,6,4.2,6,3S5.3,0.8,4.3,0.3C4.1,0.2,4,0.1,4,0H2c0,0.1-0.1,0.2-0.3,0.3C0.7,0.8,0,1.8,0,3 s0.7,2.2,1.7,2.7C1.9,5.8,2,5.9,2,6h2C4,5.9,4.1,5.8,4.3,5.7z"/></g>
<g transform="translate(331.5,295.5) scale(2.06)"><path d="M4.3,5.7C5.3,5.2,6,4.2,6,3S5.3,0.8,4.3,0.3C4.1,0.2,4,0.1,4,0H2c0,0.1-0.1,0.2-0.3,0.3C0.7,0.8,0,1.8,0,3 s0.7,2.2,1.7,2.7C1.9,5.8,2,5.9,2,6h2C4,5.9,4.1,5.8,4.3,5.7z"/></g>
<g transform="translate(355.5,295.5) scale(2.06)"><path d="M4.3,5.7C5.3,5.2,6,4.2,6,3S5.3,0.8,4.3,0.3C4.1,0.2,4,0.1,4,0H2c0,0.1-0.1,0.2-0.3,0.3C0.7,0.8,0,1.8,0,3 s0.7,2.2,1.7,2.7C1.9,5.8,2,5.9,2,6h2C4,5.9,4.1,5.8,4.3,5.7z"/></g>
<g transform="translate(379.5,295.5) scale(2.06)"><path d="M5.2,3c0-1.2-1-2.2-2.2-2.2S0.8,1.8,0.8,3c0,0.6,0.3,1.2,0.7,1.6C1.8,5,2,5.5,2,6h2c0-0.5,0.2-1,0.6-1.4 C5,4.2,5.2,3.6,5.2,3z"/></g>
<g transform="translate(139.5,307.5) scale(2.06)"><path d="M4.6,4.6C4.6,4.6,4.6,4.6,4.6,4.6c0.3-0.3,0.6-0.5,1-0.6C5.7,4,5.9,4,6,4V2C5.9,2,5.7,2,5.6,2 c-0.4-0.1-0.7-0.3-1-0.5c0,0,0,0,0,0C4.2,1,4,0.5,4,0H2c0,0.5-0.2,1-0.5,1.3c0,0,0,0,0,0C1,1.8,0.8,2.3,0.8,3S1,4.2,1.5,4.6 c0,0,0,0,0,0C1.8,5,2,5.5,2,6h2C4,5.5,4.2,5,4.6,4.6z"/></g>
<g transform="translate(151.5,307.5) scale(2.06)"><path d="M4.6,1.4C4.6,1.4,4.6,1.4,4.6,1.4C4.3,1.1,4.1,0.8,4,0.4C4,0.3,4,0.1,4,0H2c0,0.1,0,0.3,0,0.4 c-0.1,0.4-0.3,0.7-0.5,1c0,0,0,0,0,0C1,1.8,0.5,2,0,2v2c0.5,0,1,0.2,1.3,0.5c0,0,0,0,0,0C1.8,5,2.3,5.2,3,5.2S4.2,5,4.6,4.5 c0,0,0,0,0,0C5,4.2,5.5,4,6,4V2C5.5,2,5,1.8,4.6,1.4z"/></g>
<g transform="translate(163.5,307.5) scale(2.06)"><path d="M1.4,1.4C1.4,1.4,1.4,1.4,1.4,1.4C1,1.8,0.5,2,0,2v2c0.5,0,1,0.2,1.3,0.5l0,0C1.8,5,2.3,5.2,3,5.2 c1.2,0,2.2-1,2.2-2.2c0-0.6-0.2-1.1-0.6-1.5l0,0C4.2,1.1,4,0.6,4,0H2C2,0.5,1.8,1,1.4,1.4z"/></g>
<g transform="translate(187.5,307.5) scale(2.06)"><path d="M0.8,3c0,1.2,1,2.2,2.2,2.2s2.2-1,2.2-2.2c0-0.6-0.3-1.2-0.7-1.6C4.2,1,4,0.5,4,0H2c0,0.5-0.2,1-0.6,1.4 C1,1.8,0.8,2.4,0.8,3z"/></g>
<g transform="translate(211.5,307.5) scale(2.06)"><path d="M4.6,4.6C4.6,4.6,4.6,4.6,4.6,4.6C5,4.2,5.5,4,6,4V2C5.5,2,5,1.8,4.7,1.5l0,0C4.2,1,3.7,0.8,3,0.8 c-1.2,0-2.2,1-2.2,2.2c0,0.6,0.2,1.1,0.6,1.5l0,0C1.8,4.9,2,5.4,2,6h2C4,5.5,4.2,5,4.6,4.6z"/></g>
<g transform="translate(223.5,307.5) scale(2.06)"><path d="M1.4,1.4C1.4,1.4,1.4,1.4,1.4,1.4C1.1,1.7,0.8,1.9,0.4,2C0.3,2,0.1,2,0,2v2c0.1,0,0.3,0,0.4,0 c0.4,0.1,0.7,0.3,1,0.5c0,0,0,0,0,0C1.8,5,2,5.5,2,6h2c0-0.5,0.2-1,0.5-1.3c0,0,0,0,0,0C5,4.2,5.2,3.7,5.2,3S5,1.8,4.5,1.4 c0,0,0,0,0,0C4.2,1,4,0.5,4,0H2C2,0.5,1.8,1,1.4,1.4z"/></g>
<g transform="translate(247.5,307.5) scale(2.06)"><path d="M4.3,5.7C5.3,5.2,6,4.2,6,3S5.3,0.8,4.3,0.3C4.1,0.2,4,0.1,4,0H2c0,0.1-0.1,0.2-0.3,0.3C0.7,0.8,0,1.8,0,3 s0.7,2.2,1.7,2.7C1.9,5.8,2,5.9,2,6h2C4,5.9,4.1,5.8,4.3,5.7z"/></g>
<g transform="translate(283.5,307.5) scale(2.06)"><path d="M4.3,5.7C5.3,5.2,6,4.2,6,3S5.3,0.8,4.3,0.3C4.1,0.2,4,0.1,4,0H2c0,0.1-0.1,0.2-0.3,0.3C0.7,0.8,0,1.8,0,3 s0.7,2.2,1.7,2.7C1.9,5.8,2,5.9,2,6h2C4,5.9,4.1,5.8,4.3,5.7z"/></g>
<g transform="translate(307.5,307.5) scale(2.06)"><circle cx="3" cy="3" r="3"/></g>
<g transform="translate(331.5,307.5) scale(2.06)"><path d="M4.6,4.6C4.6,4.6,4.6,4.6,4.6,4.6c0.3-0.3,0.6-0.5,1-0.6C5.7,4,5.9,4,6,4V2C5.9,2,5.7,2,5.6,2 c-0.4-0.1-0.7-0.3-1-0.5c0,0,0,0,0,0C4.2,1,4,0.5,4,0H2c0,0.5-0.2,1-0.5,1.3c0,0,0,0,0,0C1,1.8,0.8,2.3,0.8,3S1,4.2,1.5,4.6 c0,0,0,0,0,0C1.8,5,2,5.5,2,6h2C4,5.5,4.2,5,4.6,4.6z"/></g>
<g transform="translate(343.5,307.5) scale(2.06)"><path d="M1.4,4.6C1.4,4.6,1.4,4.6,1.4,4.6c0.3,0.3,0.5,0.6,0.6,1C2,5.7,2,5.9,2,6h2c0-0.1,0-0.3,0-0.4 c0.1-0.4,0.3-0.7,0.5-1c0,0,0,0,0,0C5,4.2,5.5,4,6,4V2C5.5,2,5,1.8,4.7,1.5c0,0,0,0,0,0C4.2,1,3.7,0.8,3,0.8S1.8,1,1.4,1.5 c0,0,0,0,0,0C1,1.8,0.5,2,0,2v2C0.5,4,1,4.2,1.4,4.6z"/></g>
<g transform="translate(355.5,307.5) scale(2.06)"><path d="M4,0H2c0,1.1-0.9,2-2,2v2c1.1,0,2,0.9,2,2h2c0-1.1,0.9-2,2-2V2C4.9,2,4,1.1,4,0z"/></g>
<g transform="translate(367.5,307.5) scale(2.06)"><path d="M0.3,4.3C0.8,5.3,1.8,6,3,6s2.2-0.7,2.7-1.7C5.8,4.1,5.9,4,6,4V2C5.9,2,5.8,1.9,5.7,1.7C5.2,0.7,4.2,0,3,0 S0.8,0.7,0.3,1.7C0.2,1.9,0.1,2,0,2v2C0.1,4,0.2,4.1,0.3,4.3z"/></g>
<g transform="translate(379.5,307.5) scale(2.06)"><path d="M1.4,1.4C1.4,1.4,1.4,1.4,1.4,1.4C1.1,1.7,0.8,1.9,0.4,2C0.3,2,0.1,2,0,2v2c0.1,0,0.3,0,0.4,0 c0.4,0.1,0.7,0.3,1,0.5c0,0,0,0,0,0C1.8,5,2,5.5,2,6h2c0-0.5,0.2-1,0.5-1.3c0,0,0,0,0,0C5,4.2,5.2,3.7,5.2,3S5,1.8,4.5,1.4 c0,0,0,0,0,0C4.2,1,4,0.5,4,0H2C2,0.5,1.8,1,1.4,1.4z"/></g>
<g transform="translate(139.5,319.5) scale(2.06)"><path d="M4.3,5.7C5.3,5.2,6,4.2,6,3S5.3,0.8,4.3,0.3C4.1,0.2,4,0.1,4,0H2c0,0.1-0.1,0.2-0.3,0.3C0.7,0.8,0,1.8,0,3 s0.7,2.2,1.7,2.7C1.9,5.8,2,5.9,2,6h2C4,5.9,4.1,5.8,4.3,5.7z"/></g>
<g transform="translate(175.5,319.5) scale(2.06)"><circle cx="3" cy="3" r="3"/></g>
<g transform="translate(199.5,319.5) scale(2.06)"><path d="M3,0.8c-1.2,0-2.2,1-2.2,2.2s1,2.2,2.2,2.2c0.6,0,1.2-0.3,1.6-0.7C5,4.2,5.5,4,6,4V2C5.5,2,5,1.8,4.6,1.4 C4.2,1,3.6,0.8,3,0.8z"/></g>
<g transform="translate(211.5,319.5) scale(2.06)"><path d="M4.6,1.4C4.6,1.4,4.6,1.4,4.6,1.4C4.3,1.1,4.1,0.8,4,0.4C4,0.3,4,0.1,4,0H2c0,0.1,0,0.3,0,0.4 c-0.1,0.4-0.3,0.7-0.5,1c0,0,0,0,0,0C1,1.8,0.5,2,0,2v2c0.5,0,1,0.2,1.3,0.5c0,0,0,0,0,0C1.8,5,2.3,5.2,3,5.2S4.2,5,4.6,4.5 c0,0,0,0,0,0C5,4.2,5.5,4,6,4V2C5.5,2,5,1.8,4.6,1.4z"/></g>
<g transform="translate(223.5,319.5) scale(2.06)"><path d="M4,0H2c0,1.1-0.9,2-2,2v2c1.1,0,2,0.9,2,2h2c0-1.1,0.9-2,2-2V2C4.9,2,4,1.1,4,0z"/></g>
<g transform="translate(235.5,319.5) scale(2.06)"><path d="M1.4,4.6C1.4,4.6,1.4,4.6,1.4,4.6c0.3,0.3,0.5,0.6,0.6,1C2,5.7,2,5.9,2,6h2c0-0.1,0-0.3,0-0.4 c0.1-0.4,0.3-0.7,0.5-1c0,0,0,0,0,0C5,4.2,5.5,4,6,4V2C5.5,2,5,1.8,4.7,1.5c0,0,0,0,0,0C4.2,1,3.7,0.8,3,0.8S1.8,1,1.4,1.5 c0,0,0,0,0,0C1,1.8,0.5,2,0,2v2C0.5,4,1,4.2,1.4,4.6z"/></g>
<g transform="translate(247.5,319.5) scale(2.06)"><path d="M4.6,1.4C4.6,1.4,4.6,1.4,4.6,1.4C4.3,1.1,4.1,0.8,4,0.4C4,0.3,4,0.1,4,0H2c0,0.1,0,0.3,0,0.4 c-0.1,0.4-0.3,0.7-0.5,1c0,0,0,0,0,0C1,1.8,0.5,2,0,2v2c0.5,0,1,0.2,1.3,0.5c0,0,0,0,0,0C1.8,5,2.3,5.2,3,5.2S4.2,5,4.6,4.5 c0,0,0,0,0,0C5,4.2,5.5,4,6,4V2C5.5,2,5,1.8,4.6,1.4z"/></g>
<g transform="translate(259.5,319.5) scale(2.06)"><path d="M0.3,4.3C0.8,5.3,1.8,6,3,6s2.2-0.7,2.7-1.7C5.8,4.1,5.9,4,6,4V2C5.9,2,5.8,1.9,5.7,1.7C5.2,0.7,4.2,0,3,0 S0.8,0.7,0.3,1.7C0.2,1.9,0.1,2,0,2v2C0.1,4,0.2,4.1,0.3,4.3z"/></g>
<g transform="translate(271.5,319.5) scale(2.06)"><path d="M1.4,4.6C1.4,4.6,1.4,4.6,1.4,4.6c0.3,0.3,0.5,0.6,0.6,1C2,5.7,2,5.9,2,6h2c0-0.1,0-0.3,0-0.4 c0.1-0.4,0.3-0.7,0.5-1c0,0,0,0,0,0C5,4.2,5.5,4,6,4V2C5.5,2,5,1.8,4.7,1.5c0,0,0,0,0,0C4.2,1,3.7,0.8,3,0.8S1.8,1,1.4,1.5 c0,0,0,0,0,0C1,1.8,0.5,2,0,2v2C0.5,4,1,4.2,1.4,4.6z"/></g>
<g transform="translate(283.5,319.5) scale(2.06)"><path d="M1.4,1.4C1.4,1.4,1.4,1.4,1.4,1.4C1.1,1.7,0.8,1.9,0.4,2C0.3,2,0.1,2,0,2v2c0.1,0,0.3,0,0.4,0 c0.4,0.1,0.7,0.3,1,0.5c0,0,0,0,0,0C1.8,5,2,5.5,2,6h2c0-0.5,0.2-1,0.5-1.3c0,0,0,0,0,0C5,4.2,5.2,3.7,5.2,3S5,1.8,4.5,1.4 c0,0,0,0,0,0C4.2,1,4,0.5,4,0H2C2,0.5,1.8,1,1.4,1.4z"/></g>
<g transform="translate(331.5,319.5) scale(2.06)"><path d="M4.6,4.6C4.6,4.6,4.6,4.6,4.6,4.6c0.3-0.3,0.6-0.5,1-0.6C5.7,4,5.9,4,6,4V2C5.9,2,5.7,2,5.6,2 c-0.4-0.1-0.7-0.3-1-0.5c0,0,0,0,0,0C4.2,1,4,0.5,4,0H2c0,0.5-0.2,1-0.5,1.3c0,0,0,0,0,0C1,1.8,0.8,2.3,0.8,3S1,4.2,1.5,4.6 c0,0,0,0,0,0C1.8,5,2,5.5,2,6h2C4,5.5,4.2,5,4.6,4.6z"/></g>
<g transform="translate(343.5,319.5) scale(2.06)"><path d="M4,0H2c0,1.1-0.9,2-2,2v2c1.1,0,2,0.9,2,2h2c0-1.1,0.9-2,2-2V2C4.9,2,4,1.1,4,0z"/></g>
<g transform="translate(355.5,319.5) scale(2.06)"><path d="M1.4,1.4C1.4,1.4,1.4,1.4,1.4,1.4C1.1,1.7,0.8,1.9,0.4,2C0.3,2,0.1,2,0,2v2c0.1,0,0.3,0,0.4,0 c0.4,0.1,0.7,0.3,1,0.5c0,0,0,0,0,0C1.8,5,2,5.5,2,6h2c0-0.5,0.2-1,0.5-1.3c0,0,0,0,0,0C5,4.2,5.2,3.7,5.2,3S5,1.8,4.5,1.4 c0,0,0,0,0,0C4.2,1,4,0.5,4,0H2C2,0.5,1.8,1,1.4,1.4z"/></g>
<g transform="translate(379.5,319.5) scale(2.06)"><path d="M0.8,3c0,1.2,1,2.2,2.2,2.2s2.2-1,2.2-2.2c0-0.6-0.3-1.2-0.7-1.6C4.2,1,4,0.5,4,0H2c0,0.5-0.2,1-0.6,1.4 C1,1.8,0.8,2.4,0.8,3z"/></g>
<g transform="translate(139.5,331.5) scale(2.06)"><path d="M4.6,4.6C4.6,4.6,4.6,4.6,4.6,4.6c0.3-0.3,0.6-0.5,1-0.6C5.7,4,5.9,4,6,4V2C5.9,2,5.7,2,5.6,2 c-0.4-0.1-0.7-0.3-1-0.5c0,0,0,0,0,0C4.2,1,4,0.5,4,0H2c0,0.5-0.2,1-0.5,1.3c0,0,0,0,0,0C1,1.8,0.8,2.3,0.8,3S1,4.2,1.5,4.6 c0,0,0,0,0,0C1.8,5,2,5.5,2,6h2C4,5.5,4.2,5,4.6,4.6z"/></g>
<g transform="translate(151.5,331.5) scale(2.06)"><path d="M3,5.2c1.2,0,2.2-1,2.2-2.2S4.2,0.8,3,0.8C2.4,0.8,1.8,1,1.4,1.4C1,1.8,0.5,2,0,2v2c0.5,0,1,0.2,1.4,0.6 C1.8,5,2.4,5.2,3,5.2z"/></g>
<g transform="translate(223.5,331.5) scale(2.06)"><path d="M4.6,4.6C4.6,4.6,4.6,4.6,4.6,4.6c0.3-0.3,0.6-0.5,1-0.6C5.7,4,5.9,4,6,4V2C5.9,2,5.7,2,5.6,2 c-0.4-0.1-0.7-0.3-1-0.5c0,0,0,0,0,0C4.2,1,4,0.5,4,0H2c0,0.5-0.2,1-0.5,1.3c0,0,0,0,0,0C1,1.8,0.8,2.3,0.8,3S1,4.2,1.5,4.6 c0,0,0,0,0,0C1.8,5,2,5.5,2,6h2C4,5.5,4.2,5,4.6,4.6z"/></g>
<g transform="translate(235.5,331.5) scale(2.06)"><path d="M1.4,1.4C1.4,1.4,1.4,1.4,1.4,1.4C1,1.8,0.5,2,0,2v2c0.5,0,1,0.2,1.3,0.5l0,0C1.8,5,2.3,5.2,3,5.2 c1.2,0,2.2-1,2.2-2.2c0-0.6-0.2-1.1-0.6-1.5l0,0C4.2,1.1,4,0.6,4,0H2C2,0.5,1.8,1,1.4,1.4z"/></g>
<g transform="translate(271.5,331.5) scale(2.06)"><path d="M4.6,1.4C4.6,1.4,4.6,1.4,4.6,1.4C4.2,1,4,0.5,4,0H2c0,0.5-0.2,1-0.5,1.3l0,0C1,1.8,0.8,2.3,0.8,3 c0,1.2,1,2.2,2.2,2.2c0.6,0,1.1-0.2,1.5-0.6l0,0C4.9,4.2,5.4,4,6,4V2C5.5,2,5,1.8,4.6,1.4z"/></g>
<g transform="translate(283.5,331.5) scale(2.06)"><path d="M4,0H2c0,1.1-0.9,2-2,2v2c1.1,0,2,0.9,2,2h2c0-1.1,0.9-2,2-2V2C4.9,2,4,1.1,4,0z"/></g>
<g transform="translate(295.5,331.5) scale(2.06)"><path d="M0.3,4.3C0.8,5.3,1.8,6,3,6s2.2-0.7,2.7-1.7C5.8,4.1,5.9,4,6,4V2C5.9,2,5.8,1.9,5.7,1.7C5.2,0.7,4.2,0,3,0 S0.8,0.7,0.3,1.7C0.2,1.9,0.1,2,0,2v2C0.1,4,0.2,4.1,0.3,4.3z"/></g>
<g transform="translate(307.5,331.5) scale(2.06)"><path d="M1.4,4.6C1.4,4.6,1.4,4.6,1.4,4.6c0.3,0.3,0.5,0.6,0.6,1C2,5.7,2,5.9,2,6h2c0-0.1,0-0.3,0-0.4 c0.1-0.4,0.3-0.7,0.5-1c0,0,0,0,0,0C5,4.2,5.5,4,6,4V2C5.5,2,5,1.8,4.7,1.5c0,0,0,0,0,0C4.2,1,3.7,0.8,3,0.8S1.8,1,1.4,1.5 c0,0,0,0,0,0C1,1.8,0.5,2,0,2v2C0.5,4,1,4.2,1.4,4.6z"/></g>
<g transform="translate(319.5,331.5) scale(2.06)"><path d="M0.3,4.3C0.8,5.3,1.8,6,3,6s2.2-0.7,2.7-1.7C5.8,4.1,5.9,4,6,4V2C5.9,2,5.8,1.9,5.7,1.7C5.2,0.7,4.2,0,3,0 S0.8,0.7,0.3,1.7C0.2,1.9,0.1,2,0,2v2C0.1,4,0.2,4.1,0.3,4.3z"/></g>
<g transform="translate(331.5,331.5) scale(2.06)"><path d="M4.6,1.4C4.6,1.4,4.6,1.4,4.6,1.4C4.3,1.1,4.1,0.8,4,0.4C4,0.3,4,0.1,4,0H2c0,0.1,0,0.3,0,0.4 c-0.1,0.4-0.3,0.7-0.5,1c0,0,0,0,0,0C1,1.8,0.5,2,0,2v2c0.5,0,1,0.2,1.3,0.5c0,0,0,0,0,0C1.8,5,2.3,5.2,3,5.2S4.2,5,4.6,4.5 c0,0,0,0,0,0C5,4.2,5.5,4,6,4V2C5.5,2,5,1.8,4.6,1.4z"/></g>
<g transform="translate(343.5,331.5) scale(2.06)"><path d="M4,0H2c0,1.1-0.9,2-2,2v2c1.1,0,2,0.9,2,2h2c0-1.1,0.9-2,2-2V2C4.9,2,4,1.1,4,0z"/></g>
<g transform="translate(355.5,331.5) scale(2.06)"><path d="M4.6,1.4C4.6,1.4,4.6,1.4,4.6,1.4C4.3,1.1,4.1,0.8,4,0.4C4,0.3,4,0.1,4,0H2c0,0.1,0,0.3,0,0.4 c-0.1,0.4-0.3,0.7-0.5,1c0,0,0,0,0,0C1,1.8,0.5,2,0,2v2c0.5,0,1,0.2,1.3,0.5c0,0,0,0,0,0C1.8,5,2.3,5.2,3,5.2S4.2,5,4.6,4.5 c0,0,0,0,0,0C5,4.2,5.5,4,6,4V2C5.5,2,5,1.8,4.6,1.4z"/></g>
<g transform="translate(367.5,331.5) scale(2.06)"><path d="M1.4,4.6C1.4,4.6,1.4,4.6,1.4,4.6C1.8,5,2,5.5,2,6h2c0-0.5,0.2-1,0.5-1.3l0,0C5,4.2,5.2,3.7,5.2,3 c0-1.2-1-2.2-2.2-2.2C2.4,0.8,1.9,1,1.5,1.4l0,0C1.1,1.8,0.6,2,0,2v2C0.5,4,1,4.2,1.4,4.6z"/></g>
<g transform="translate(139.5,343.5) scale(2.06)"><path d="M4.3,5.7C5.3,5.2,6,4.2,6,3S5.3,0.8,4.3,0.3C4.1,0.2,4,0.1,4,0H2c0,0.1-0.1,0.2-0.3,0.3C0.7,0.8,0,1.8,0,3 s0.7,2.2,1.7,2.7C1.9,5.8,2,5.9,2,6h2C4,5.9,4.1,5.8,4.3,5.7z"/></g>
<g transform="translate(211.5,343.5) scale(2.06)"><path d="M3,0.8c-1.2,0-2.2,1-2.2,2.2s1,2.2,2.2,2.2c0.6,0,1.2-0.3,1.6-0.7C5,4.2,5.5,4,6,4V2C5.5,2,5,1.8,4.6,1.4 C4.2,1,3.6,0.8,3,0.8z"/></g>
<g transform="translate(223.5,343.5) scale(2.06)"><path d="M1.4,1.4C1.4,1.4,1.4,1.4,1.4,1.4C1.1,1.7,0.8,1.9,0.4,2C0.3,2,0.1,2,0,2v2c0.1,0,0.3,0,0.4,0 c0.4,0.1,0.7,0.3,1,0.5c0,0,0,0,0,0C1.8,5,2,5.5,2,6h2c0-0.5,0.2-1,0.5-1.3c0,0,0,0,0,0C5,4.2,5.2,3.7,5.2,3S5,1.8,4.5,1.4 c0,0,0,0,0,0C4.2,1,4,0.5,4,0H2C2,0.5,1.8,1,1.4,1.4z"/></g>
<g transform="translate(259.5,343.5) scale(2.06)"><circle cx="3" cy="3" r="3"/></g>
<g transform="translate(283.5,343.5) scale(2.06)"><path d="M0.8,3c0,1.2,1,2.2,2.2,2.2s2.2-1,2.2-2.2c0-0.6-0.3-1.2-0.7-1.6C4.2,1,4,0.5,4,0H2c0,0.5-0.2,1-0.6,1.4 C1,1.8,0.8,2.4,0.8,3z"/></g>
<g transform="translate(307.5,343.5) scale(2.06)"><path d="M4.3,5.7C5.3,5.2,6,4.2,6,3S5.3,0.8,4.3,0.3C4.1,0.2,4,0.1,4,0H2c0,0.1-0.1,0.2-0.3,0.3C0.7,0.8,0,1.8,0,3 s0.7,2.2,1.7,2.7C1.9,5.8,2,5.9,2,6h2C4,5.9,4.1,5.8,4.3,5.7z"/></g>
<g transform="translate(343.5,343.5) scale(2.06)"><path d="M0.8,3c0,1.2,1,2.2,2.2,2.2s2.2-1,2.2-2.2c0-0.6-0.3-1.2-0.7-1.6C4.2,1,4,0.5,4,0H2c0,0.5-0.2,1-0.6,1.4 C1,1.8,0.8,2.4,0.8,3z"/></g>
<g transform="translate(367.5,343.5) scale(2.06)"><path d="M4.3,5.7C5.3,5.2,6,4.2,6,3S5.3,0.8,4.3,0.3C4.1,0.2,4,0.1,4,0H2c0,0.1-0.1,0.2-0.3,0.3C0.7,0.8,0,1.8,0,3 s0.7,2.2,1.7,2.7C1.9,5.8,2,5.9,2,6h2C4,5.9,4.1,5.8,4.3,5.7z"/></g>
<g transform="translate(139.5,355.5) scale(2.06)"><path d="M4.6,4.6C4.6,4.6,4.6,4.6,4.6,4.6c0.3-0.3,0.6-0.5,1-0.6C5.7,4,5.9,4,6,4V2C5.9,2,5.7,2,5.6,2 c-0.4-0.1-0.7-0.3-1-0.5c0,0,0,0,0,0C4.2,1,4,0.5,4,0H2c0,0.5-0.2,1-0.5,1.3c0,0,0,0,0,0C1,1.8,0.8,2.3,0.8,3S1,4.2,1.5,4.6 c0,0,0,0,0,0C1.8,5,2,5.5,2,6h2C4,5.5,4.2,5,4.6,4.6z"/></g>
<g transform="translate(151.5,355.5) scale(2.06)"><path d="M3,5.2c1.2,0,2.2-1,2.2-2.2S4.2,0.8,3,0.8C2.4,0.8,1.8,1,1.4,1.4C1,1.8,0.5,2,0,2v2c0.5,0,1,0.2,1.4,0.6 C1.8,5,2.4,5.2,3,5.2z"/></g>
<g transform="translate(175.5,355.5) scale(2.06)"><path d="M3,0.8c-1.2,0-2.2,1-2.2,2.2s1,2.2,2.2,2.2c0.6,0,1.2-0.3,1.6-0.7C5,4.2,5.5,4,6,4V2C5.5,2,5,1.8,4.6,1.4 C4.2,1,3.6,0.8,3,0.8z"/></g>
<g transform="translate(187.5,355.5) scale(2.06)"><path d="M3,5.2c1.2,0,2.2-1,2.2-2.2S4.2,0.8,3,0.8C2.4,0.8,1.8,1,1.4,1.4C1,1.8,0.5,2,0,2v2c0.5,0,1,0.2,1.4,0.6 C1.8,5,2.4,5.2,3,5.2z"/></g>
<g transform="translate(223.5,355.5) scale(2.06)"><path d="M4.6,4.6C4.6,4.6,4.6,4.6,4.6,4.6c0.3-0.3,0.6-0.5,1-0.6C5.7,4,5.9,4,6,4V2C5.9,2,5.7,2,5.6,2 c-0.4-0.1-0.7-0.3-1-0.5c0,0,0,0,0,0C4.2,1,4,0.5,4,0H2c0,0.5-0.2,1-0.5,1.3c0,0,0,0,0,0C1,1.8,0.8,2.3,0.8,3S1,4.2,1.5,4.6 c0,0,0,0,0,0C1.8,5,2,5.5,2,6h2C4,5.5,4.2,5,4.6,4.6z"/></g>
<g transform="translate(235.5,355.5) scale(2.06)"><path d="M3,5.2c1.2,0,2.2-1,2.2-2.2S4.2,0.8,3,0.8C2.4,0.8,1.8,1,1.4,1.4C1,1.8,0.5,2,0,2v2c0.5,0,1,0.2,1.4,0.6 C1.8,5,2.4,5.2,3,5.2z"/></g>
<g transform="translate(271.5,355.5) scale(2.06)"><path d="M5.2,3c0-1.2-1-2.2-2.2-2.2S0.8,1.8,0.8,3c0,0.6,0.3,1.2,0.7,1.6C1.8,5,2,5.5,2,6h2c0-0.5,0.2-1,0.6-1.4 C5,4.2,5.2,3.6,5.2,3z"/></g>
<g transform="translate(307.5,355.5) scale(2.06)"><path d="M0.8,3c0,1.2,1,2.2,2.2,2.2s2.2-1,2.2-2.2c0-0.6-0.3-1.2-0.7-1.6C4.2,1,4,0.5,4,0H2c0,0.5-0.2,1-0.6,1.4 C1,1.8,0.8,2.4,0.8,3z"/></g>
<g transform="translate(331.5,355.5) scale(2.06)"><circle cx="3" cy="3" r="3"/></g>
<g transform="translate(355.5,355.5) scale(2.06)"><path d="M3,0.8c-1.2,0-2.2,1-2.2,2.2s1,2.2,2.2,2.2c0.6,0,1.2-0.3,1.6-0.7C5,4.2,5.5,4,6,4V2C5.5,2,5,1.8,4.6,1.4 C4.2,1,3.6,0.8,3,0.8z"/></g>
<g transform="translate(367.5,355.5) scale(2.06)"><path d="M1.4,1.4C1.4,1.4,1.4,1.4,1.4,1.4C1.1,1.7,0.8,1.9,0.4,2C0.3,2,0.1,2,0,2v2c0.1,0,0.3,0,0.4,0 c0.4,0.1,0.7,0.3,1,0.5c0,0,0,0,0,0C1.8,5,2,5.5,2,6h2c0-0.5,0.2-1,0.5-1.3c0,0,0,0,0,0C5,4.2,5.2,3.7,5.2,3S5,1.8,4.5,1.4 c0,0,0,0,0,0C4.2,1,4,0.5,4,0H2C2,0.5,1.8,1,1.4,1.4z"/></g>
<g transform="translate(139.5,367.5) scale(2.06)"><path d="M0.8,3c0,1.2,1,2.2,2.2,2.2s2.2-1,2.2-2.2c0-0.6-0.3-1.2-0.7-1.6C4.2,1,4,0.5,4,0H2c0,0.5-0.2,1-0.6,1.4 C1,1.8,0.8,2.4,0.8,3z"/></g>
<g transform="translate(199.5,367.5) scale(2.06)"><path d="M3,0.8c-1.2,0-2.2,1-2.2,2.2s1,2.2,2.2,2.2c0.6,0,1.2-0.3,1.6-0.7C5,4.2,5.5,4,6,4V2C5.5,2,5,1.8,4.6,1.4 C4.2,1,3.6,0.8,3,0.8z"/></g>
<g transform="translate(211.5,367.5) scale(2.06)"><path d="M0.3,4.3C0.8,5.3,1.8,6,3,6s2.2-0.7,2.7-1.7C5.8,4.1,5.9,4,6,4V2C5.9,2,5.8,1.9,5.7,1.7C5.2,0.7,4.2,0,3,0 S0.8,0.7,0.3,1.7C0.2,1.9,0.1,2,0,2v2C0.1,4,0.2,4.1,0.3,4.3z"/></g>
<g transform="translate(223.5,367.5) scale(2.06)"><path d="M1.4,1.4C1.4,1.4,1.4,1.4,1.4,1.4C1.1,1.7,0.8,1.9,0.4,2C0.3,2,0.1,2,0,2v2c0.1,0,0.3,0,0.4,0 c0.4,0.1,0.7,0.3,1,0.5c0,0,0,0,0,0C1.8,5,2,5.5,2,6h2c0-0.5,0.2-1,0.5-1.3c0,0,0,0,0,0C5,4.2,5.2,3.7,5.2,3S5,1.8,4.5,1.4 c0,0,0,0,0,0C4.2,1,4,0.5,4,0H2C2,0.5,1.8,1,1.4,1.4z"/></g>
<g transform="translate(271.5,367.5) scale(2.06)"><path d="M4.3,5.7C5.3,5.2,6,4.2,6,3S5.3,0.8,4.3,0.3C4.1,0.2,4,0.1,4,0H2c0,0.1-0.1,0.2-0.3,0.3C0.7,0.8,0,1.8,0,3 s0.7,2.2,1.7,2.7C1.9,5.8,2,5.9,2,6h2C4,5.9,4.1,5.8,4.3,5.7z"/></g>
<g transform="translate(367.5,367.5) scale(2.06)"><path d="M4.6,4.6C4.6,4.6,4.6,4.6,4.6,4.6c0.3-0.3,0.6-0.5,1-0.6C5.7,4,5.9,4,6,4V2C5.9,2,5.7,2,5.6,2 c-0.4-0.1-0.7-0.3-1-0.5c0,0,0,0,0,0C4.2,1,4,0.5,4,0H2c0,0.5-0.2,1-0.5,1.3c0,0,0,0,0,0C1,1.8,0.8,2.3,0.8,3S1,4.2,1.5,4.6 c0,0,0,0,0,0C1.8,5,2,5.5,2,6h2C4,5.5,4.2,5,4.6,4.6z"/></g>
<g transform="translate(379.5,367.5) scale(2.06)"><path d="M3,5.2c1.2,0,2.2-1,2.2-2.2S4.2,0.8,3,0.8C2.4,0.8,1.8,1,1.4,1.4C1,1.8,0.5,2,0,2v2c0.5,0,1,0.2,1.4,0.6 C1.8,5,2.4,5.2,3,5.2z"/></g>
<g transform="translate(151.5,379.5) scale(2.06)"><path d="M3,0.8c-1.2,0-2.2,1-2.2,2.2s1,2.2,2.2,2.2c0.6,0,1.2-0.3,1.6-0.7C5,4.2,5.5,4,6,4V2C5.5,2,5,1.8,4.6,1.4 C4.2,1,3.6,0.8,3,0.8z"/></g>
<g transform="translate(163.5,379.5) scale(2.06)"><path d="M3,5.2c1.2,0,2.2-1,2.2-2.2S4.2,0.8,3,0.8C2.4,0.8,1.8,1,1.4,1.4C1,1.8,0.5,2,0,2v2c0.5,0,1,0.2,1.4,0.6 C1.8,5,2.4,5.2,3,5.2z"/></g>
<g transform="translate(187.5,379.5) scale(2.06)"><circle cx="3" cy="3" r="3"/></g>
<g transform="translate(223.5,379.5) scale(2.06)"><path d="M0.8,3c0,1.2,1,2.2,2.2,2.2s2.2-1,2.2-2.2c0-0.6-0.3-1.2-0.7-1.6C4.2,1,4,0.5,4,0H2c0,0.5-0.2,1-0.6,1.4 C1,1.8,0.8,2.4,0.8,3z"/></g>
<g transform="translate(259.5,379.5) scale(2.06)"><path d="M3,0.8c-1.2,0-2.2,1-2.2,2.2s1,2.2,2.2,2.2c0.6,0,1.2-0.3,1.6-0.7C5,4.2,5.5,4,6,4V2C5.5,2,5,1.8,4.6,1.4 C4.2,1,3.6,0.8,3,0.8z"/></g>
<g transform="translate(271.5,379.5) scale(2.06)"><path d="M1.4,1.4C1.4,1.4,1.4,1.4,1.4,1.4C1,1.8,0.5,2,0,2v2c0.5,0,1,0.2,1.3,0.5l0,0C1.8,5,2.3,5.2,3,5.2 c1.2,0,2.2-1,2.2-2.2c0-0.6-0.2-1.1-0.6-1.5l0,0C4.2,1.1,4,0.6,4,0H2C2,0.5,1.8,1,1.4,1.4z"/></g>
<g transform="translate(295.5,379.5) scale(2.06)"><path d="M3,0.8c-1.2,0-2.2,1-2.2,2.2s1,2.2,2.2,2.2c0.6,0,1.2-0.3,1.6-0.7C5,4.2,5.5,4,6,4V2C5.5,2,5,1.8,4.6,1.4 C4.2,1,3.6,0.8,3,0.8z"/></g>
<g transform="translate(307.5,379.5) scale(2.06)"><path d="M0.3,4.3C0.8,5.3,1.8,6,3,6s2.2-0.7,2.7-1.7C5.8,4.1,5.9,4,6,4V2C5.9,2,5.8,1.9,5.7,1.7C5.2,0.7,4.2,0,3,0 S0.8,0.7,0.3,1.7C0.2,1.9,0.1,2,0,2v2C0.1,4,0.2,4.1,0.3,4.3z"/></g>
<g transform="translate(319.5,379.5) scale(2.06)"><path d="M0.3,4.3C0.8,5.3,1.8,6,3,6s2.2-0.7,2.7-1.7C5.8,4.1,5.9,4,6,4V2C5.9,2,5.8,1.9,5.7,1.7C5.2,0.7,4.2,0,3,0 S0.8,0.7,0.3,1.7C0.2,1.9,0.1,2,0,2v2C0.1,4,0.2,4.1,0.3,4.3z"/></g>
<g transform="translate(331.5,379.5) scale(2.06)"><path d="M0.3,4.3C0.8,5.3,1.8,6,3,6s2.2-0.7,2.7-1.7C5.8,4.1,5.9,4,6,4V2C5.9,2,5.8,1.9,5.7,1.7C5.2,0.7,4.2,0,3,0 S0.8,0.7,0.3,1.7C0.2,1.9,0.1,2,0,2v2C0.1,4,0.2,4.1,0.3,4.3z"/></g>
<g transform="translate(343.5,379.5) scale(2.06)"><path d="M3,5.2c1.2,0,2.2-1,2.2-2.2S4.2,0.8,3,0.8C2.4,0.8,1.8,1,1.4,1.4C1,1.8,0.5,2,0,2v2c0.5,0,1,0.2,1.4,0.6 C1.8,5,2.4,5.2,3,5.2z"/></g>
<g transform="translate(367.5,379.5) scale(2.06)"><path d="M0.8,3c0,1.2,1,2.2,2.2,2.2s2.2-1,2.2-2.2c0-0.6-0.3-1.2-0.7-1.6C4.2,1,4,0.5,4,0H2c0,0.5-0.2,1-0.6,1.4 C1,1.8,0.8,2.4,0.8,3z"/></g>
<g transform="translate(43.5,43.5)"><g transform="scale(6)"><path d="M0,0v14h14V0H0z M12,12H2V2h10V12z"/></g></g>
<g transform="translate(307.5,43.5)"><g transform="scale(6)"><path d="M0,0v14h14V0H0z M12,12H2V2h10V12z"/></g></g>
<g transform="translate(43.5,307.5)"><g transform="scale(6)"><path d="M0,0v14h14V0H0z M12,12H2V2h10V12z"/></g></g>
<g transform="translate(67.5,67.5)"><g transform="scale(6)"><rect width="6" height="6"/></g></g>
<g transform="translate(331.5,67.5)"><g transform="scale(6)"><rect width="6" height="6"/></g></g>
<g transform="translate(67.5,331.5)"><g transform="scale(6)"><rect width="6" height="6"/></g></g>
</g><g transform="translate(131.3609375,462.1875) scale(0.453125)"><path fill="#FFFFFF" d="M50.1,89.1l0-7.4q0-18.3-1.8-23.1q-2-5.5-5.7-6.8q-2.1-0.8-5.1-0.8t-5.15,0.8t-3.55,2.8t-2.25,4.2t-1.35,6.2q-0.6,5.8-0.6,17.1l0,7.2q0,12.2,0.95,17.35t2.35,7.35q3.1,4.9,9.6,4.9q7.9,0,10.25-6.65t2.35-23.15z M12.35,111.95q-8.25-9.05-8.25-26.2t8.85-27t25.05-9.85t24.45,9.35t8.25,26.55t-8.35,26.7t-25.05,9.5t-24.95-9.05z M75.4,45l24.5,0l0,73.2l5.6,0l0,1.8l-29.7,0l0-1.8l5.5,0l0-71.4l-5.9,0l0-1.8z M114.55,62.8q-2.25-2.7-2.25-6.7t2.45-6.6t7.45-2.6t7.6,2.35t2.6,6.7t-2.5,6.95t-7.8,2.6t-7.55-2.7z M107,72.4l24.5,0l0,45.8l5.6,0l0,1.8l-29.7,0l0-1.8l5.5,0l0-44l-5.9,0l0-1.8z  M198.5,99.8l8.3-28.8l-6-19.1l-5.7,0l0-1.9l31,0l0,1.9l-5.9,0l14.9,47.3l12-47.3l-10.1,0l0-1.9l20,0l0,1.9l-6.6,0l-18.4,69.1l-8.9,0l-14.8-45.2l-13,45.2l-8.7,0l-25.2-69.1l-4.7,0l0-1.9l32.5,0l0,1.9l-7,0z M265.75,62.8q-2.25-2.7-2.25-6.7t2.45-6.6t7.45-2.6t7.6,2.35t2.6,6.7t-2.5,6.95t-7.8,2.6t-7.55-2.7z M258.2,72.4l24.5,0l0,45.8l5.6,0l0,1.8l-29.7,0l0-1.8l5.5,0l0-44l-5.9,0l0-1.8z M291.4,50l52,0l1,20.8l-1.8,0q-3.7-10.8-8.55-14.7t-14.45-3.9l-2.8,0l0,32.5l4.5,0q4.8,0,8-3.5t4.4-9.6l1.5,0l0,29.6l-1.7,0q-1.6-7.5-4.45-10.7t-7.75-3.2l-4.5,0l0,30.5l12.4,0l0,2.2l-37.8,0l0-2.2l5.9,0l0-65.6l-5.9,0l0-2.2z M356.65,62.8q-2.25-2.7-2.25-6.7t2.45-6.6t7.45-2.6t7.6,2.35t2.6,6.7t-2.5,6.95t-7.8,2.6t-7.55-2.7z M349.1,72.4l24.5,0l0,45.8l5.6,0l0,1.8l-29.7,0l0-1.8l5.5,0l0-44l-5.9,0l0-1.8z"/></g></svg>
