<?xml version="1.0" encoding="utf-8"?>
<svg xmlns="http://www.w3.org/2000/svg" xmlns:xlink="http://www.w3.org/1999/xlink" xml:space="preserve" width="375" height="468.75" viewBox="0 0 375 468.75"><rect width="347.1875" height="347.1875" fill="#ffffff" x="15.625" y="15.625"/><g transform="scale(15.625)" fill="#000000"><path d="M1.3,24l21.3,0c0.7,0,1.3-0.6,1.3-1.3l0-21.3C24,0.6,23.4,0,22.7,0L1.3,0C0.6,0,0,0.6,0,1.3l0,21.3 C0,23.4,0.6,24,1.3,24z M1,2c0-0.6,0.5-1,1-1l20,0c0.6,0,1,0.5,1,1v20c0,0.6-0.5,1-1,1L2,23c-0.6,0-1-0.5-1-1V2z"/><path d="M1,30h22c0.5,0,1-0.4,1-1v-3c0-0.5-0.4-1-1-1H13l-1-1l-1,1H1c-0.5,0-1,0.4-1,1v3C0,29.6,0.4,30,1,30z"/></g><g fill="#000000">
<g transform="translate(133.5,37.5) scale(2.06)"><circle cx="3" cy="3" r="3"/></g>
<g transform="translate(157.5,37.5) scale(2.06)"><circle cx="3" cy="3" r="3"/></g>
<g transform="translate(217.5,37.5) scale(2.06)"><path d="M3,0.8c-1.2,0-2.2,1-2.2,2.2s1,2.2,2.2,2.2c0.6,0,1.2-0.3,1.6-0.7C5,4.2,5.5,4,6,4V2C5.5,2,5,1.8,4.6,1.4 C4.2,1,3.6,0.8,3,0.8z"/></g>
<g transform="translate(229.5,37.5) scale(2.06)"><path d="M3,5.2c1.2,0,2.2-1,2.2-2.2S4.2,0.8,3,0.8C2.4,0.8,1.8,1,1.4,1.4C1,1.8,0.5,2,0,2v2c0.5,0,1,0.2,1.4,0.6 C1.8,5,2.4,5.2,3,5.2z"/></g>
<g transform="translate(181.5,49.5) scale(2.06)"><path d="M5.2,3c0-1.2-1-2.2-2.2-2.2S0.8,1.8,0.8,3c0,0.6,0.3,1.2,0.7,1.6C1.8,5,2,5.5,2,6h2c0-0.5,0.2-1,0.6-1.4 C5,4.2,5.2,3.6,5.2,3z"/></g>
<g transform="translate(157.5,61.5) scale(2.06)"><path d="M5.2,3c0-1.2-1-2.2-2.2-2.2S0.8,1.8,0.8,3c0,0.6,0.3,1.2,0.7,1.6C1.8,5,2,5.5,2,6h2c0-0.5,0.2-1,0.6-1.4 C5,4.2,5.2,3.6,5.2,3z"/></g>
<g transform="translate(181.5,61.5) scale(2.06)"><path d="M4.3,5.7C5.3,5.2,6,4.2,6,3S5.3,0.8,4.3,0.3C4.1,0.2,4,0.1,4,0H2c0,0.1-0.1,0.2-0.3,0.3C0.7,0.8,0,1.8,0,3 s0.7,2.2,1.7,2.7C1.9,5.8,2,5.9,2,6h2C4,5.9,4.1,5.8,4.3,5.7z"/></g>
<g transform="translate(205.5,61.5) scale(2.06)"><circle cx="3" cy="3" r="3"/></g>
<g transform="translate(229.5,61.5) scale(2.06)"><circle cx="3" cy="3" r="3"/></g>
<g transform="translate(157.5,73.5) scale(2.06)"><path d="M4.6,4.6C4.6,4.6,4.6,4.6,4.6,4.6c0.3-0.3,0.6-0.5,1-0.6C5.7,4,5.9,4,6,4V2C5.9,2,5.7,2,5.6,2 c-0.4-0.1-0.7-0.3-1-0.5c0,0,0,0,0,0C4.2,1,4,0.5,4,0H2c0,0.5-0.2,1-0.5,1.3c0,0,0,0,0,0C1,1.8,0.8,2.3,0.8,3S1,4.2,1.5,4.6 c0,0,0,0,0,0C1.8,5,2,5.5,2,6h2C4,5.5,4.2,5,4.6,4.6z"/></g>
<g transform="translate(169.5,73.5) scale(2.06)"><path d="M1.4,4.6C1.4,4.6,1.4,4.6,1.4,4.6c0.3,0.3,0.5,0.6,0.6,1C2,5.7,2,5.9,2,6h2c0-0.1,0-0.3,0-0.4 c0.1-0.4,0.3-0.7,0.5-1c0,0,0,0,0,0C5,4.2,5.5,4,6,4V2C5.5,2,5,1.8,4.7,1.5c0,0,0,0,0,0C4.2,1,3.7,0.8,3,0.8S1.8,1,1.4,1.5 c0,0,0,0,0,0C1,1.8,0.5,2,0,2v2C0.5,4,1,4.2,1.4,4.6z"/></g>
<g transform="translate(181.5,73.5) scale(2.06)"><path d="M1.4,1.4C1.4,1.4,1.4,1.4,1.4,1.4C1.1,1.7,0.8,1.9,0.4,2C0.3,2,0.1,2,0,2v2c0.1,0,0.3,0,0.4,0 c0.4,0.1,0.7,0.3,1,0.5c0,0,0,0,0,0C1.8,5,2,5.5,2,6h2c0-0.5,0.2-1,0.5-1.3c0,0,0,0,0,0C5,4.2,5.2,3.7,5.2,3S5,1.8,4.5,1.4 c0,0,0,0,0,0C4.2,1,4,0.5,4,0H2C2,0.5,1.8,1,1.4,1.4z"/></g>
<g transform="translate(133.5,85.5) scale(2.06)"><path d="M5.2,3c0-1.2-1-2.2-2.2-2.2S0.8,1.8,0.8,3c0,0.6,0.3,1.2,0.7,1.6C1.8,5,2,5.5,2,6h2c0-0.5,0.2-1,0.6-1.4 C5,4.2,5.2,3.6,5.2,3z"/></g>
<g transform="translate(157.5,85.5) scale(2.06)"><path d="M4.6,1.4C4.6,1.4,4.6,1.4,4.6,1.4C4.2,1,4,0.5,4,0H2c0,0.5-0.2,1-0.5,1.3l0,0C1,1.8,0.8,2.3,0.8,3 c0,1.2,1,2.2,2.2,2.2c0.6,0,1.1-0.2,1.5-0.6l0,0C4.9,4.2,5.4,4,6,4V2C5.5,2,5,1.8,4.6,1.4z"/></g>
<g transform="translate(169.5,85.5) scale(2.06)"><path d="M4.6,1.4C4.6,1.4,4.6,1.4,4.6,1.4C4.3,1.1,4.1,0.8,4,0.4C4,0.3,4,0.1,4,0H2c0,0.1,0,0.3,0,0.4 c-0.1,0.4-0.3,0.7-0.5,1c0,0,0,0,0,0C1,1.8,0.5,2,0,2v2c0.5,0,1,0.2,1.3,0.5c0,0,0,0,0,0C1.8,5,2.3,5.2,3,5.2S4.2,5,4.6,4.5 c0,0,0,0,0,0C5,4.2,5.5,4,6,4V2C5.5,2,5,1.8,4.6,1.4z"/></g>
<g transform="translate(181.5,85.5) scale(2.06)"><path d="M4,0H2c0,1.1-0.9,2-2,2v2c1.1,0,2,0.9,2,2h2c0-1.1,0.9-2,2-2V2C4.9,2,4,1.1,4,0z"/></g>
<g transform="translate(193.5,85.5) scale(2.06)"><path d="M1.4,4.6C1.4,4.6,1.4,4.6,1.4,4.6c0.3,0.3,0.5,0.6,0.6,1C2,5.7,2,5.9,2,6h2c0-0.1,0-0.3,0-0.4 c0.1-0.4,0.3-0.7,0.5-1c0,0,0,0,0,0C5,4.2,5.5,4,6,4V2C5.5,2,5,1.8,4.7,1.5c0,0,0,0,0,0C4.2,1,3.7,0.8,3,0.8S1.8,1,1.4,1.5 c0,0,0,0,0,0C1,1.8,0.5,2,0,2v2C0.5,4,1,4.2,1.4,4.6z"/></g>
<g transform="translate(205.5,85.5) scale(2.06)"><path d="M1.4,4.6C1.4,4.6,1.4,4.6,1.4,4.6c0.3,0.3,0.5,0.6,0.6,1C2,5.7,2,5.9,2,6h2c0-0.1,0-0.3,0-0.4 c0.1-0.4,0.3-0.7,0.5-1c0,0,0,0,0,0C5,4.2,5.5,4,6,4V2C5.5,2,5,1.8,4.7,1.5c0,0,0,0,0,0C4.2,1,3.7,0.8,3,0.8S1.8,1,1.4,1.5 c0,0,0,0,0,0C1,1.8,0.5,2,0,2v2C0.5,4,1,4.2,1.4,4.6z"/></g>
<g transform="translate(217.5,85.5) scale(2.06)"><path d="M1.4,4.6C1.4,4.6,1.4,4.6,1.4,4.6C1.8,5,2,5.5,2,6h2c0-0.5,0.2-1,0.5-1.3l0,0C5,4.2,5.2,3.7,5.2,3 c0-1.2-1-2.2-2.2-2.2C2.4,0.8,1.9,1,1.5,1.4l0,0C1.1,1.8,0.6,2,0,2v2C0.5,4,1,4.2,1.4,4.6z"/></g>
<g transform="translate(133.5,97.5) scale(2.06)"><path d="M4.6,4.6C4.6,4.6,4.6,4.6,4.6,4.6c0.3-0.3,0.6-0.5,1-0.6C5.7,4,5.9,4,6,4V2C5.9,2,5.7,2,5.6,2 c-0.4-0.1-0.7-0.3-1-0.5c0,0,0,0,0,0C4.2,1,4,0.5,4,0H2c0,0.5-0.2,1-0.5,1.3c0,0,0,0,0,0C1,1.8,0.8,2.3,0.8,3S1,4.2,1.5,4.6 c0,0,0,0,0,0C1.8,5,2,5.5,2,6h2C4,5.5,4.2,5,4.6,4.6z"/></g>
<g transform="translate(145.5,97.5) scale(2.06)"><path d="M3,5.2c1.2,0,2.2-1,2.2-2.2S4.2,0.8,3,0.8C2.4,0.8,1.8,1,1.4,1.4C1,1.8,0.5,2,0,2v2c0.5,0,1,0.2,1.4,0.6 C1.8,5,2.4,5.2,3,5.2z"/></g>
<g transform="translate(181.5,97.5) scale(2.06)"><path d="M4.6,4.6C4.6,4.6,4.6,4.6,4.6,4.6c0.3-0.3,0.6-0.5,1-0.6C5.7,4,5.9,4,6,4V2C5.9,2,5.7,2,5.6,2 c-0.4-0.1-0.7-0.3-1-0.5c0,0,0,0,0,0C4.2,1,4,0.5,4,0H2c0,0.5-0.2,1-0.5,1.3c0,0,0,0,0,0C1,1.8,0.8,2.3,0.8,3S1,4.2,1.5,4.6 c0,0,0,0,0,0C1.8,5,2,5.5,2,6h2C4,5.5,4.2,5,4.6,4.6z"/></g>
<g transform="translate(193.5,97.5) scale(2.06)"><path d="M4.6,1.4C4.6,1.4,4.6,1.4,4.6,1.4C4.3,1.1,4.1,0.8,4,0.4C4,0.3,4,0.1,4,0H2c0,0.1,0,0.3,0,0.4 c-0.1,0.4-0.3,0.7-0.5,1c0,0,0,0,0,0C1,1.8,0.5,2,0,2v2c0.5,0,1,0.2,1.3,0.5c0,0,0,0,0,0C1.8,5,2.3,5.2,3,5.2S4.2,5,4.6,4.5 c0,0,0,0,0,0C5,4.2,5.5,4,6,4V2C5.5,2,5,1.8,4.6,1.4z"/></g>
<g transform="translate(205.5,97.5) scale(2.06)"><path d="M4,0H2c0,1.1-0.9,2-2,2v2c1.1,0,2,0.9,2,2h2c0-1.1,0.9-2,2-2V2C4.9,2,4,1.1,4,0z"/></g>
<g transform="translate(217.5,97.5) scale(2.06)"><path d="M1.4,1.4C1.4,1.4,1.4,1.4,1.4,1.4C1,1.8,0.5,2,0,2v2c0.5,0,1,0.2,1.3,0.5l0,0C1.8,5,2.3,5.2,3,5.2 c1.2,0,2.2-1,2.2-2.2c0-0.6-0.2-1.1-0.6-1.5l0,0C4.2,1.1,4,0.6,4,0H2C2,0.5,1.8,1,1.4,1.4z"/></g>
<g transform="translate(133.5,109.5) scale(2.06)"><path d="M0.8,3c0,1.2,1,2.2,2.2,2.2s2.2-1,2.2-2.2c0-0.6-0.3-1.2-0.7-1.6C4.2,1,4,0.5,4,0H2c0,0.5-0.2,1-0.6,1.4 C1,1.8,0.8,2.4,0.8,3z"/></g>
<g transform="translate(157.5,109.5) scale(2.06)"><circle cx="3" cy="3" r="3"/></g>
<g transform="translate(181.5,109.5) scale(2.06)"><path d="M0.8,3c0,1.2,1,2.2,2.2,2.2s2.2-1,2.2-2.2c0-0.6-0.3-1.2-0.7-1.6C4.2,1,4,0.5,4,0H2c0,0.5-0.2,1-0.6,1.4 C1,1.8,0.8,2.4,0.8,3z"/></g>
<g transform="translate(205.5,109.5) scale(2.06)"><path d="M0.8,3c0,1.2,1,2.2,2.2,2.2s2.2-1,2.2-2.2c0-0.6-0.3-1.2-0.7-1.6C4.2,1,4,0.5,4,0H2c0,0.5-0.2,1-0.6,1.4 C1,1.8,0.8,2.4,0.8,3z"/></g>
<g transform="translate(229.5,109.5) scale(2.06)"><circle cx="3" cy="3" r="3"/></g>
<g transform="translate(145.5,121.5) scale(2.06)"><circle cx="3" cy="3" r="3"/></g>
<g transform="translate(193.5,121.5) scale(2.06)"><circle cx="3" cy="3" r="3"/></g>
<g transform="translate(217.5,121.5) scale(2.06)"><path d="M5.2,3c0-1.2-1-2.2-2.2-2.2S0.8,1.8,0.8,3c0,0.6,0.3,1.2,0.7,1.6C1.8,5,2,5.5,2,6h2c0-0.5,0.2-1,0.6-1.4 C5,4.2,5.2,3.6,5.2,3z"/></g>
<g transform="translate(49.5,133.5) scale(2.06)"><path d="M4.6,4.6C4.6,4.6,4.6,4.6,4.6,4.6C5,4.2,5.5,4,6,4V2C5.5,2,5,1.8,4.7,1.5l0,0C4.2,1,3.7,0.8,3,0.8 c-1.2,0-2.2,1-2.2,2.2c0,0.6,0.2,1.1,0.6,1.5l0,0C1.8,4.9,2,5.4,2,6h2C4,5.5,4.2,5,4.6,4.6z"/></g>
<g transform="translate(61.5,133.5) scale(2.06)"><path d="M1.4,4.6C1.4,4.6,1.4,4.6,1.4,4.6c0.3,0.3,0.5,0.6,0.6,1C2,5.7,2,5.9,2,6h2c0-0.1,0-0.3,0-0.4 c0.1-0.4,0.3-0.7,0.5-1c0,0,0,0,0,0C5,4.2,5.5,4,6,4V2C5.5,2,5,1.8,4.7,1.5c0,0,0,0,0,0C4.2,1,3.7,0.8,3,0.8S1.8,1,1.4,1.5 c0,0,0,0,0,0C1,1.8,0.5,2,0,2v2C0.5,4,1,4.2,1.4,4.6z"/></g>
<g transform="translate(73.5,133.5) scale(2.06)"><path d="M0.3,4.3C0.8,5.3,1.8,6,3,6s2.2-0.7,2.7-1.7C5.8,4.1,5.9,4,6,4V2C5.9,2,5.8,1.9,5.7,1.7C5.2,0.7,4.2,0,3,0 S0.8,0.7,0.3,1.7C0.2,1.9,0.1,2,0,2v2C0.1,4,0.2,4.1,0.3,4.3z"/></g>
<g transform="translate(85.5,133.5) scale(2.06)"><path d="M0.3,4.3C0.8,5.3,1.8,6,3,6s2.2-0.7,2.7-1.7C5.8,4.1,5.9,4,6,4V2C5.9,2,5.8,1.9,5.7,1.7C5.2,0.7,4.2,0,3,0 S0.8,0.7,0.3,1.7C0.2,1.9,0.1,2,0,2v2C0.1,4,0.2,4.1,0.3,4.3z"/></g>
<g transform="translate(97.5,133.5) scale(2.06)"><path d="M1.4,4.6C1.4,4.6,1.4,4.6,1.4,4.6c0.3,0.3,0.5,0.6,0.6,1C2,5.7,2,5.9,2,6h2c0-0.1,0-0.3,0-0.4 c0.1-0.4,0.3-0.7,0.5-1c0,0,0,0,0,0C5,4.2,5.5,4,6,4V2C5.5,2,5,1.8,4.7,1.5c0,0,0,0,0,0C4.2,1,3.7,0.8,3,0.8S1.8,1,1.4,1.5 c0,0,0,0,0,0C1,1.8,0.5,2,0,2v2C0.5,4,1,4.2,1.4,4.6z"/></g>
<g transform="translate(109.5,133.5) scale(2.06)"><path d="M0.3,4.3C0.8,5.3,1.8,6,3,6s2.2-0.7,2.7-1.7C5.8,4.1,5.9,4,6,4V2C5.9,2,5.8,1.9,5.7,1.7C5.2,0.7,4.2,0,3,0 S0.8,0.7,0.3,1.7C0.2,1.9,0.1,2,0,2v2C0.1,4,0.2,4.1,0.3,4.3z"/></g>
<g transform="translate(121.5,133.5) scale(2.06)"><path d="M1.4,4.6C1.4,4.6,1.4,4.6,1.4,4.6C1.8,5,2,5.5,2,6h2c0-0.5,0.2-1,0.5-1.3l0,0C5,4.2,5.2,3.7,5.2,3 c0-1.2-1-2.2-2.2-2.2C2.4,0.8,1.9,1,1.5,1.4l0,0C1.1,1.8,0.6,2,0,2v2C0.5,4,1,4.2,1.4,4.6z"/></g>
<g transform="translate(157.5,133.5) scale(2.06)"><path d="M3,0.8c-1.2,0-2.2,1-2.2,2.2s1,2.2,2.2,2.2c0.6,0,1.2-0.3,1.6-0.7C5,4.2,5.5,4,6,4V2C5.5,2,5,1.8,4.6,1.4 C4.2,1,3.6,0.8,3,0.8z"/></g>
<g transform="translate(169.5,133.5) scale(2.06)"><path d="M3,5.2c1.2,0,2.2-1,2.2-2.2S4.2,0.8,3,0.8C2.4,0.8,1.8,1,1.4,1.4C1,1.8,0.5,2,0,2v2c0.5,0,1,0.2,1.4,0.6 C1.8,5,2.4,5.2,3,5.2z"/></g>
<g transform="translate(205.5,133.5) scale(2.06)"><path d="M3,0.8c-1.2,0-2.2,1-2.2,2.2s1,2.2,2.2,2.2c0.6,0,1.2-0.3,1.6-0.7C5,4.2,5.5,4,6,4V2C5.5,2,5,1.8,4.6,1.4 C4.2,1,3.6,0.8,3,0.8z"/></g>
<g transform="translate(217.5,133.5) scale(2.06)"><path d="M1.4,1.4C1.4,1.4,1.4,1.4,1.4,1.4C1.1,1.7,0.8,1.9,0.4,2C0.3,2,0.1,2,0,2v2c0.1,0,0.3,0,0.4,0 c0.4,0.1,0.7,0.3,1,0.5c0,0,0,0,0,0C1.8,5,2,5.5,2,6h2c0-0.5,0.2-1,0.5-1.3c0,0,0,0,0,0C5,4.2,5.2,3.7,5.2,3S5,1.8,4.5,1.4 c0,0,0,0,0,0C4.2,1,4,0.5,4,0H2C2,0.5,1.8,1,1.4,1.4z"/></g>
<g transform="translate(265.5,133.5) scale(2.06)"><path d="M4.6,4.6C4.6,4.6,4.6,4.6,4.6,4.6C5,4.2,5.5,4,6,4V2C5.5,2,5,1.8,4.7,1.5l0,0C4.2,1,3.7,0.8,3,0.8 c-1.2,0-2.2,1-2.2,2.2c0,0.6,0.2,1.1,0.6,1.5l0,0C1.8,4.9,2,5.4,2,6h2C4,5.5,4.2,5,4.6,4.6z"/></g>
<g transform="translate(277.5,133.5) scale(2.06)"><path d="M3,5.2c1.2,0,2.2-1,2.2-2.2S4.2,0.8,3,0.8C2.4,0.8,1.8,1,1.4,1.4C1,1.8,0.5,2,0,2v2c0.5,0,1,0.2,1.4,0.6 C1.8,5,2.4,5.2,3,5.2z"/></g>
<g transform="translate(325.5,133.5) scale(2.06)"><circle cx="3" cy="3" r="3"/></g>
<g transform="translate(49.5,145.5) scale(2.06)"><path d="M4.6,1.4C4.6,1.4,4.6,1.4,4.6,1.4C4.2,1,4,0.5,4,0H2c0,0.5-0.2,1-0.5,1.3l0,0C1,1.8,0.8,2.3,0.8,3 c0,1.2,1,2.2,2.2,2.2c0.6,0,1.1-0.2,1.5-0.6l0,0C4.9,4.2,5.4,4,6,4V2C5.5,2,5,1.8,4.6,1.4z"/></g>
<g transform="translate(61.5,145.5) scale(2.06)"><path d="M1.4,1.4C1.4,1.4,1.4,1.4,1.4,1.4C1,1.8,0.5,2,0,2v2c0.5,0,1,0.2,1.3,0.5l0,0C1.8,5,2.3,5.2,3,5.2 c1.2,0,2.2-1,2.2-2.2c0-0.6-0.2-1.1-0.6-1.5l0,0C4.2,1.1,4,0.6,4,0H2C2,0.5,1.8,1,1.4,1.4z"/></g>
<g transform="translate(97.5,145.5) scale(2.06)"><path d="M0.8,3c0,1.2,1,2.2,2.2,2.2s2.2-1,2.2-2.2c0-0.6-0.3-1.2-0.7-1.6C4.2,1,4,0.5,4,0H2c0,0.5-0.2,1-0.6,1.4 C1,1.8,0.8,2.4,0.8,3z"/></g>
<g transform="translate(121.5,145.5) scale(2.06)"><path d="M4.6,1.4C4.6,1.4,4.6,1.4,4.6,1.4C4.2,1,4,0.5,4,0H2c0,0.5-0.2,1-0.5,1.3l0,0C1,1.8,0.8,2.3,0.8,3 c0,1.2,1,2.2,2.2,2.2c0.6,0,1.1-0.2,1.5-0.6l0,0C4.9,4.2,5.4,4,6,4V2C5.5,2,5,1.8,4.6,1.4z"/></g>
<g transform="translate(133.5,145.5) scale(2.06)"><path d="M0.3,4.3C0.8,5.3,1.8,6,3,6s2.2-0.7,2.7-1.7C5.8,4.1,5.9,4,6,4V2C5.9,2,5.8,1.9,5.7,1.7C5.2,0.7,4.2,0,3,0 S0.8,0.7,0.3,1.7C0.2,1.9,0.1,2,0,2v2C0.1,4,0.2,4.1,0.3,4.3z"/></g>
<g transform="translate(145.5,145.5) scale(2.06)"><path d="M3,5.2c1.2,0,2.2-1,2.2-2.2S4.2,0.8,3,0.8C2.4,0.8,1.8,1,1.4,1.4C1,1.8,0.5,2,0,2v2c0.5,0,1,0.2,1.4,0.6 C1.8,5,2.4,5.2,3,5.2z"/></g>
<g transform="translate(181.5,145.5) scale(2.06)"><circle cx="3" cy="3" r="3"/></g>
<g transform="translate(217.5,145.5) scale(2.06)"><path d="M4.6,1.4C4.6,1.4,4.6,1.4,4.6,1.4C4.2,1,4,0.5,4,0H2c0,0.5-0.2,1-0.5,1.3l0,0C1,1.8,0.8,2.3,0.8,3 c0,1.2,1,2.2,2.2,2.2c0.6,0,1.1-0.2,1.5-0.6l0,0C4.9,4.2,5.4,4,6,4V2C5.5,2,5,1.8,4.6,1.4z"/></g>
<g transform="translate(229.5,145.5) scale(2.06)"><path d="M0.3,4.3C0.8,5.3,1.8,6,3,6s2.2-0.7,2.7-1.7C5.8,4.1,5.9,4,6,4V2C5.9,2,5.8,1.9,5.7,1.7C5.2,0.7,4.2,0,3,0 S0.8,0.7,0.3,1.7C0.2,1.9,0.1,2,0,2v2C0.1,4,0.2,4.1,0.3,4.3z"/></g>
<g transform="translate(241.5,145.5) scale(2.06)"><path d="M1.4,4.6C1.4,4.6,1.4,4.6,1.4,4.6c0.3,0.3,0.5,0.6,0.6,1C2,5.7,2,5.9,2,6h2c0-0.1,0-0.3,0-0.4 c0.1-0.4,0.3-0.7,0.5-1c0,0,0,0,0,0C5,4.2,5.5,4,6,4V2C5.5,2,5,1.8,4.7,1.5c0,0,0,0,0,0C4.2,1,3.7,0.8,3,0.8S1.8,1,1.4,1.5 c0,0,0,0,0,0C1,1.8,0.5,2,0,2v2C0.5,4,1,4.2,1.4,4.6z"/></g>
<g transform="translate(253.5,145.5) scale(2.06)"><path d="M0.3,4.3C0.8,5.3,1.8,6,3,6s2.2-0.7,2.7-1.7C5.8,4.1,5.9,4,6,4V2C5.9,2,5.8,1.9,5.7,1.7C5.2,0.7,4.2,0,3,0 S0.8,0.7,0.3,1.7C0.2,1.9,0.1,2,0,2v2C0.1,4,0.2,4.1,0.3,4.3z"/></g>
<g transform="translate(265.5,145.5) scale(2.06)"><path d="M1.4,1.4C1.4,1.4,1.4,1.4,1.4,1.4C1,1.8,0.5,2,0,2v2c0.5,0,1,0.2,1.3,0.5l0,0C1.8,5,2.3,5.2,3,5.2 c1.2,0,2.2-1,2.2-2.2c0-0.6-0.2-1.1-0.6-1.5l0,0C4.2,1.1,4,0.6,4,0H2C2,0.5,1.8,1,1.4,1.4z"/></g>
<g transform="translate(313.5,145.5) scale(2.06)"><path d="M5.2,3c0-1.2-1-2.2-2.2-2.2S0.8,1.8,0.8,3c0,0.6,0.3,1.2,0.7,1.6C1.8,5,2,5.5,2,6h2c0-0.5,0.2-1,0.6-1.4 C5,4.2,5.2,3.6,5.2,3z"/></g>
<g transform="translate(85.5,157.5) scale(2.06)"><circle cx="3" cy="3" r="3"/></g>
<g transform="translate(109.5,157.5) scale(2.06)"><circle cx="3" cy="3" r="3"/></g>
<g transform="translate(157.5,157.5) scale(2.06)"><path d="M3,0.8c-1.2,0-2.2,1-2.2,2.2s1,2.2,2.2,2.2c0.6,0,1.2-0.3,1.6-0.7C5,4.2,5.5,4,6,4V2C5.5,2,5,1.8,4.6,1.4 C4.2,1,3.6,0.8,3,0.8z"/></g>
<g transform="translate(169.5,157.5) scale(2.06)"><path d="M1.4,4.6C1.4,4.6,1.4,4.6,1.4,4.6C1.8,5,2,5.5,2,6h2c0-0.5,0.2-1,0.5-1.3l0,0C5,4.2,5.2,3.7,5.2,3 c0-1.2-1-2.2-2.2-2.2C2.4,0.8,1.9,1,1.5,1.4l0,0C1.1,1.8,0.6,2,0,2v2C0.5,4,1,4.2,1.4,4.6z"/></g>
<g transform="translate(241.5,157.5) scale(2.06)"><path d="M4.3,5.7C5.3,5.2,6,4.2,6,3S5.3,0.8,4.3,0.3C4.1,0.2,4,0.1,4,0H2c0,0.1-0.1,0.2-0.3,0.3C0.7,0.8,0,1.8,0,3 s0.7,2.2,1.7,2.7C1.9,5.8,2,5.9,2,6h2C4,5.9,4.1,5.8,4.3,5.7z"/></g>
<g transform="translate(277.5,157.5) scale(2.06)"><path d="M3,0.8c-1.2,0-2.2,1-2.2,2.2s1,2.2,2.2,2.2c0.6,0,1.2-0.3,1.6-0.7C5,4.2,5.5,4,6,4V2C5.5,2,5,1.8,4.6,1.4 C4.2,1,3.6,0.8,3,0.8z"/></g>
<g transform="translate(289.5,157.5) scale(2.06)"><path d="M3,5.2c1.2,0,2.2-1,2.2-2.2S4.2,0.8,3,0.8C2.4,0.8,1.8,1,1.4,1.4C1,1.8,0.5,2,0,2v2c0.5,0,1,0.2,1.4,0.6 C1.8,5,2.4,5.2,3,5.2z"/></g>
<g transform="translate(313.5,157.5) scale(2.06)"><path d="M4.6,1.4C4.6,1.4,4.6,1.4,4.6,1.4C4.2,1,4,0.5,4,0H2c0,0.5-0.2,1-0.5,1.3l0,0C1,1.8,0.8,2.3,0.8,3 c0,1.2,1,2.2,2.2,2.2c0.6,0,1.1-0.2,1.5-0.6l0,0C4.9,4.2,5.4,4,6,4V2C5.5,2,5,1.8,4.6,1.4z"/></g>
<g transform="translate(325.5,157.5) scale(2.06)"><path d="M1.4,4.6C1.4,4.6,1.4,4.6,1.4,4.6C1.8,5,2,5.5,2,6h2c0-0.5,0.2-1,0.5-1.3l0,0C5,4.2,5.2,3.7,5.2,3 c0-1.2-1-2.2-2.2-2.2C2.4,0.8,1.9,1,1.5,1.4l0,0C1.1,1.8,0.6,2,0,2v2C0.5,4,1,4.2,1.4,4.6z"/></g>
<g transform="translate(61.5,169.5) scale(2.06)"><circle cx="3" cy="3" r="3"/></g>
<g transform="translate(97.5,169.5) scale(2.06)"><circle cx="3" cy="3" r="3"/></g>
<g transform="translate(121.5,169.5) scale(2.06)"><path d="M3,0.8c-1.2,0-2.2,1-2.2,2.2s1,2.2,2.2,2.2c0.6,0,1.2-0.3,1.6-0.7C5,4.2,5.5,4,6,4V2C5.5,2,5,1.8,4.6,1.4 C4.2,1,3.6,0.8,3,0.8z"/></g>
<g transform="translate(133.5,169.5) scale(2.06)"><path d="M1.4,4.6C1.4,4.6,1.4,4.6,1.4,4.6c0.3,0.3,0.5,0.6,0.6,1C2,5.7,2,5.9,2,6h2c0-0.1,0-0.3,0-0.4 c0.1-0.4,0.3-0.7,0.5-1c0,0,0,0,0,0C5,4.2,5.5,4,6,4V2C5.5,2,5,1.8,4.7,1.5c0,0,0,0,0,0C4.2,1,3.7,0.8,3,0.8S1.8,1,1.4,1.5 c0,0,0,0,0,0C1,1.8,0.5,2,0,2v2C0.5,4,1,4.2,1.4,4.6z"/></g>
<g transform="translate(145.5,169.5) scale(2.06)"><path d="M3,5.2c1.2,0,2.2-1,2.2-2.2S4.2,0.8,3,0.8C2.4,0.8,1.8,1,1.4,1.4C1,1.8,0.5,2,0,2v2c0.5,0,1,0.2,1.4,0.6 C1.8,5,2.4,5.2,3,5.2z"/></g>
<g transform="translate(169.5,169.5) scale(2.06)"><path d="M4.6,1.4C4.6,1.4,4.6,1.4,4.6,1.4C4.2,1,4,0.5,4,0H2c0,0.5-0.2,1-0.5,1.3l0,0C1,1.8,0.8,2.3,0.8,3 c0,1.2,1,2.2,2.2,2.2c0.6,0,1.1-0.2,1.5-0.6l0,0C4.9,4.2,5.4,4,6,4V2C5.5,2,5,1.8,4.6,1.4z"/></g>
<g transform="translate(181.5,169.5) scale(2.06)"><path d="M3,5.2c1.2,0,2.2-1,2.2-2.2S4.2,0.8,3,0.8C2.4,0.8,1.8,1,1.4,1.4C1,1.8,0.5,2,0,2v2c0.5,0,1,0.2,1.4,0.6 C1.8,5,2.4,5.2,3,5.2z"/></g>
<g transform="translate(205.5,169.5) scale(2.06)"><path d="M3,0.8c-1.2,0-2.2,1-2.2,2.2s1,2.2,2.2,2.2c0.6,0,1.2-0.3,1.6-0.7C5,4.2,5.5,4,6,4V2C5.5,2,5,1.8,4.6,1.4 C4.2,1,3.6,0.8,3,0.8z"/></g>
<g transform="translate(217.5,169.5) scale(2.06)"><path d="M3,5.2c1.2,0,2.2-1,2.2-2.2S4.2,0.8,3,0.8C2.4,0.8,1.8,1,1.4,1.4C1,1.8,0.5,2,0,2v2c0.5,0,1,0.2,1.4,0.6 C1.8,5,2.4,5.2,3,5.2z"/></g>
<g transform="translate(241.5,169.5) scale(2.06)"><path d="M0.8,3c0,1.2,1,2.2,2.2,2.2s2.2-1,2.2-2.2c0-0.6-0.3-1.2-0.7-1.6C4.2,1,4,0.5,4,0H2c0,0.5-0.2,1-0.6,1.4 C1,1.8,0.8,2.4,0.8,3z"/></g>
<g transform="translate(265.5,169.5) scale(2.06)"><circle cx="3" cy="3" r="3"/></g>
<g transform="translate(325.5,169.5) scale(2.06)"><path d="M4.3,5.7C5.3,5.2,6,4.2,6,3S5.3,0.8,4.3,0.3C4.1,0.2,4,0.1,4,0H2c0,0.1-0.1,0.2-0.3,0.3C0.7,0.8,0,1.8,0,3 s0.7,2.2,1.7,2.7C1.9,5.8,2,5.9,2,6h2C4,5.9,4.1,5.8,4.3,5.7z"/></g>
<g transform="translate(49.5,181.5) scale(2.06)"><path d="M5.2,3c0-1.2-1-2.2-2.2-2.2S0.8,1.8,0.8,3c0,0.6,0.3,1.2,0.7,1.6C1.8,5,2,5.5,2,6h2c0-0.5,0.2-1,0.6-1.4 C5,4.2,5.2,3.6,5.2,3z"/></g>
<g transform="translate(73.5,181.5) scale(2.06)"><path d="M3,0.8c-1.2,0-2.2,1-2.2,2.2s1,2.2,2.2,2.2c0.6,0,1.2-0.3,1.6-0.7C5,4.2,5.5,4,6,4V2C5.5,2,5,1.8,4.6,1.4 C4.2,1,3.6,0.8,3,0.8z"/></g>
<g transform="translate(85.5,181.5) scale(2.06)"><path d="M3,5.2c1.2,0,2.2-1,2.2-2.2S4.2,0.8,3,0.8C2.4,0.8,1.8,1,1.4,1.4C1,1.8,0.5,2,0,2v2c0.5,0,1,0.2,1.4,0.6 C1.8,5,2.4,5.2,3,5.2z"/></g>
<g transform="translate(109.5,181.5) scale(2.06)"><circle cx="3" cy="3" r="3"/></g>
<g transform="translate(133.5,181.5) scale(2.06)"><path d="M0.8,3c0,1.2,1,2.2,2.2,2.2s2.2-1,2.2-2.2c0-0.6-0.3-1.2-0.7-1.6C4.2,1,4,0.5,4,0H2c0,0.5-0.2,1-0.6,1.4 C1,1.8,0.8,2.4,0.8,3z"/></g>
<g transform="translate(229.5,181.5) scale(2.06)"><path d="M5.2,3c0-1.2-1-2.2-2.2-2.2S0.8,1.8,0.8,3c0,0.6,0.3,1.2,0.7,1.6C1.8,5,2,5.5,2,6h2c0-0.5,0.2-1,0.6-1.4 C5,4.2,5.2,3.6,5.2,3z"/></g>
<g transform="translate(301.5,181.5) scale(2.06)"><path d="M3,0.8c-1.2,0-2.2,1-2.2,2.2s1,2.2,2.2,2.2c0.6,0,1.2-0.3,1.6-0.7C5,4.2,5.5,4,6,4V2C5.5,2,5,1.8,4.6,1.4 C4.2,1,3.6,0.8,3,0.8z"/></g>
<g transform="translate(313.5,181.5) scale(2.06)"><path d="M1.4,4.6C1.4,4.6,1.4,4.6,1.4,4.6c0.3,0.3,0.5,0.6,0.6,1C2,5.7,2,5.9,2,6h2c0-0.1,0-0.3,0-0.4 c0.1-0.4,0.3-0.7,0.5-1c0,0,0,0,0,0C5,4.2,5.5,4,6,4V2C5.5,2,5,1.8,4.7,1.5c0,0,0,0,0,0C4.2,1,3.7,0.8,3,0.8S1.8,1,1.4,1.5 c0,0,0,0,0,0C1,1.8,0.5,2,0,2v2C0.5,4,1,4.2,1.4,4.6z"/></g>
<g transform="translate(325.5,181.5) scale(2.06)"><path d="M1.4,1.4C1.4,1.4,1.4,1.4,1.4,1.4C1,1.8,0.5,2,0,2v2c0.5,0,1,0.2,1.3,0.5l0,0C1.8,5,2.3,5.2,3,5.2 c1.2,0,2.2-1,2.2-2.2c0-0.6-0.2-1.1-0.6-1.5l0,0C4.2,1.1,4,0.6,4,0H2C2,0.5,1.8,1,1.4,1.4z"/></g>
<g transform="translate(37.5,193.5) scale(2.06)"><path d="M4.6,4.6C4.6,4.6,4.6,4.6,4.6,4.6C5,4.2,5.5,4,6,4V2C5.5,2,5,1.8,4.7,1.5l0,0C4.2,1,3.7,0.8,3,0.8 c-1.2,0-2.2,1-2.2,2.2c0,0.6,0.2,1.1,0.6,1.5l0,0C1.8,4.9,2,5.4,2,6h2C4,5.5,4.2,5,4.6,4.6z"/></g>
<g transform="translate(49.5,193.5) scale(2.06)"><path d="M4.6,1.4C4.6,1.4,4.6,1.4,4.6,1.4C4.3,1.1,4.1,0.8,4,0.4C4,0.3,4,0.1,4,0H2c0,0.1,0,0.3,0,0.4 c-0.1,0.4-0.3,0.7-0.5,1c0,0,0,0,0,0C1,1.8,0.5,2,0,2v2c0.5,0,1,0.2,1.3,0.5c0,0,0,0,0,0C1.8,5,2.3,5.2,3,5.2S4.2,5,4.6,4.5 c0,0,0,0,0,0C5,4.2,5.5,4,6,4V2C5.5,2,5,1.8,4.6,1.4z"/></g>
<g transform="translate(61.5,193.5) scale(2.06)"><path d="M3,5.2c1.2,0,2.2-1,2.2-2.2S4.2,0.8,3,0.8C2.4,0.8,1.8,1,1.4,1.4C1,1.8,0.5,2,0,2v2c0.5,0,1,0.2,1.4,0.6 C1.8,5,2.4,5.2,3,5.2z"/></g>
<g transform="translate(97.5,193.5) scale(2.06)"><circle cx="3" cy="3" r="3"/></g>
<g transform="translate(121.5,193.5) scale(2.06)"><path d="M5.2,3c0-1.2-1-2.2-2.2-2.2S0.8,1.8,0.8,3c0,0.6,0.3,1.2,0.7,1.6C1.8,5,2,5.5,2,6h2c0-0.5,0.2-1,0.6-1.4 C5,4.2,5.2,3.6,5.2,3z"/></g>
<g transform="translate(145.5,193.5) scale(2.06)"><path d="M4.6,4.6C4.6,4.6,4.6,4.6,4.6,4.6C5,4.2,5.5,4,6,4V2C5.5,2,5,1.8,4.7,1.5l0,0C4.2,1,3.7,0.8,3,0.8 c-1.2,0-2.2,1-2.2,2.2c0,0.6,0.2,1.1,0.6,1.5l0,0C1.8,4.9,2,5.4,2,6h2C4,5.5,4.2,5,4.6,4.6z"/></g>
<g transform="translate(157.5,193.5) scale(2.06)"><path d="M0.3,4.3C0.8,5.3,1.8,6,3,6s2.2-0.7,2.7-1.7C5.8,4.1,5.9,4,6,4V2C5.9,2,5.8,1.9,5.7,1.7C5.2,0.7,4.2,0,3,0 S0.8,0.7,0.3,1.7C0.2,1.9,0.1,2,0,2v2C0.1,4,0.2,4.1,0.3,4.3z"/></g>
<g transform="translate(169.5,193.5) scale(2.06)"><path d="M1.4,4.6C1.4,4.6,1.4,4.6,1.4,4.6C1.8,5,2,5.5,2,6h2c0-0.5,0.2-1,0.5-1.3l0,0C5,4.2,5.2,3.7,5.2,3 c0-1.2-1-2.2-2.2-2.2C2.4,0.8,1.9,1,1.5,1.4l0,0C1.1,1.8,0.6,2,0,2v2C0.5,4,1,4.2,1.4,4.6z"/></g>
<g transform="translate(193.5,193.5) scale(2.06)"><path d="M4.6,4.6C4.6,4.6,4.6,4.6,4.6,4.6C5,4.2,5.5,4,6,4V2C5.5,2,5,1.8,4.7,1.5l0,0C4.2,1,3.7,0.8,3,0.8 c-1.2,0-2.2,1-2.2,2.2c0,0.6,0.2,1.1,0.6,1.5l0,0C1.8,4.9,2,5.4,2,6h2C4,5.5,4.2,5,4.6,4.6z"/></g>
<g transform="translate(205.5,193.5) scale(2.06)"><path d="M0.3,4.3C0.8,5.3,1.8,6,3,6s2.2-0.7,2.7-1.7C5.8,4.1,5.9,4,6,4V2C5.9,2,5.8,1.9,5.7,1.7C5.2,0.7,4.2,0,3,0 S0.8,0.7,0.3,1.7C0.2,1.9,0.1,2,0,2v2C0.1,4,0.2,4.1,0.3,4.3z"/></g>
<g transform="translate(217.5,193.5) scale(2.06)"><path d="M0.3,4.3C0.8,5.3,1.8,6,3,6s2.2-0.7,2.7-1.7C5.8,4.1,5.9,4,6,4V2C5.9,2,5.8,1.9,5.7,1.7C5.2,0.7,4.2,0,3,0 S0.8,0.7,0.3,1.7C0.2,1.9,0.1,2,0,2v2C0.1,4,0.2,4.1,0.3,4.3z"/></g>
<g transform="translate(229.5,193.5) scale(2.06)"><path d="M4,0H2c0,1.1-0.9,2-2,2v2c1.1,0,2,0.9,2,2h2c0-1.1,0.9-2,2-2V2C4.9,2,4,1.1,4,0z"/></g>
<g transform="translate(241.5,193.5) scale(2.06)"><path d="M3,5.2c1.2,0,2.2-1,2.2-2.2S4.2,0.8,3,0.8C2.4,0.8,1.8,1,1.4,1.4C1,1.8,0.5,2,0,2v2c0.5,0,1,0.2,1.4,0.6 C1.8,5,2.4,5.2,3,5.2z"/></g>
<g transform="translate(289.5,193.5) scale(2.06)"><path d="M5.2,3c0-1.2-1-2.2-2.2-2.2S0.8,1.8,0.8,3c0,0.6,0.3,1.2,0.7,1.6C1.8,5,2,5.5,2,6h2c0-0.5,0.2-1,0.6-1.4 C5,4.2,5.2,3.6,5.2,3z"/></g>
<g transform="translate(313.5,193.5) scale(2.06)"><path d="M4.3,5.7C5.3,5.2,6,4.2,6,3S5.3,0.8,4.3,0.3C4.1,0.2,4,0.1,4,0H2c0,0.1-0.1,0.2-0.3,0.3C0.7,0.8,0,1.8,0,3 s0.7,2.2,1.7,2.7C1.9,5.8,2,5.9,2,6h2C4,5.9,4.1,5.8,4.3,5.7z"/></g>
<g transform="translate(37.5,205.5) scale(2.06)"><path d="M4.3,5.7C5.3,5.2,6,4.2,6,3S5.3,0.8,4.3,0.3C4.1,0.2,4,0.1,4,0H2c0,0.1-0.1,0.2-0.3,0.3C0.7,0.8,0,1.8,0,3 s0.7,2.2,1.7,2.7C1.9,5.8,2,5.9,2,6h2C4,5.9,4.1,5.8,4.3,5.7z"/></g>
<g transform="translate(73.5,205.5) scale(2.06)"><path d="M4.6,4.6C4.6,4.6,4.6,4.6,4.6,4.6C5,4.2,5.5,4,6,4V2C5.5,2,5,1.8,4.7,1.5l0,0C4.2,1,3.7,0.8,3,0.8 c-1.2,0-2.2,1-2.2,2.2c0,0.6,0.2,1.1,0.6,1.5l0,0C1.8,4.9,2,5.4,2,6h2C4,5.5,4.2,5,4.6,4.6z"/></g>
<g transform="translate(85.5,205.5) scale(2.06)"><path d="M3,5.2c1.2,0,2.2-1,2.2-2.2S4.2,0.8,3,0.8C2.4,0.8,1.8,1,1.4,1.4C1,1.8,0.5,2,0,2v2c0.5,0,1,0.2,1.4,0.6 C1.8,5,2.4,5.2,3,5.2z"/></g>
<g transform="translate(109.5,205.5) scale(2.06)"><path d="M3,0.8c-1.2,0-2.2,1-2.2,2.2s1,2.2,2.2,2.2c0.6,0,1.2-0.3,1.6-0.7C5,4.2,5.5,4,6,4V2C5.5,2,5,1.8,4.6,1.4 C4.2,1,3.6,0.8,3,0.8z"/></g>
<g transform="translate(121.5,205.5) scale(2.06)"><path d="M1.4,1.4C1.4,1.4,1.4,1.4,1.4,1.4C1.1,1.7,0.8,1.9,0.4,2C0.3,2,0.1,2,0,2v2c0.1,0,0.3,0,0.4,0 c0.4,0.1,0.7,0.3,1,0.5c0,0,0,0,0,0C1.8,5,2,5.5,2,6h2c0-0.5,0.2-1,0.5-1.3c0,0,0,0,0,0C5,4.2,5.2,3.7,5.2,3S5,1.8,4.5,1.4 c0,0,0,0,0,0C4.2,1,4,0.5,4,0H2C2,0.5,1.8,1,1.4,1.4z"/></g>
<g transform="translate(145.5,205.5) scale(2.06)"><path d="M4.3,5.7C5.3,5.2,6,4.2,6,3S5.3,0.8,4.3,0.3C4.1,0.2,4,0.1,4,0H2c0,0.1-0.1,0.2-0.3,0.3C0.7,0.8,0,1.8,0,3 s0.7,2.2,1.7,2.7C1.9,5.8,2,5.9,2,6h2C4,5.9,4.1,5.8,4.3,5.7z"/></g>
<g transform="translate(169.5,205.5) scale(2.06)"><path d="M4.6,1.4C4.6,1.4,4.6,1.4,4.6,1.4C4.2,1,4,0.5,4,0H2c0,0.5-0.2,1-0.5,1.3l0,0C1,1.8,0.8,2.3,0.8,3 c0,1.2,1,2.2,2.2,2.2c0.6,0,1.1-0.2,1.5-0.6l0,0C4.9,4.2,5.4,4,6,4V2C5.5,2,5,1.8,4.6,1.4z"/></g>
<g transform="translate(181.5,205.5) scale(2.06)"><path d="M0.3,4.3C0.8,5.3,1.8,6,3,6s2.2-0.7,2.7-1.7C5.8,4.1,5.9,4,6,4V2C5.9,2,5.8,1.9,5.7,1.7C5.2,0.7,4.2,0,3,0 S0.8,0.7,0.3,1.7C0.2,1.9,0.1,2,0,2v2C0.1,4,0.2,4.1,0.3,4.3z"/></g>
<g transform="translate(193.5,205.5) scale(2.06)"><path d="M1.4,1.4C1.4,1.4,1.4,1.4,1.4,1.4C1.1,1.7,0.8,1.9,0.4,2C0.3,2,0.1,2,0,2v2c0.1,0,0.3,0,0.4,0 c0.4,0.1,0.7,0.3,1,0.5c0,0,0,0,0,0C1.8,5,2,5.5,2,6h2c0-0.5,0.2-1,0.5-1.3c0,0,0,0,0,0C5,4.2,5.2,3.7,5.2,3S5,1.8,4.5,1.4 c0,0,0,0,0,0C4.2,1,4,0.5,4,0H2C2,0.5,1.8,1,1.4,1.4z"/></g>
<g transform="translate(229.5,205.5) scale(2.06)"><path d="M4.3,5.7C5.3,5.2,6,4.2,6,3S5.3,0.8,4.3,0.3C4.1,0.2,4,0.1,4,0H2c0,0.1-0.1,0.2-0.3,0.3C0.7,0.8,0,1.8,0,3 s0.7,2.2,1.7,2.7C1.9,5.8,2,5.9,2,6h2C4,5.9,4.1,5.8,4.3,5.7z"/></g>
<g transform="translate(253.5,205.5) scale(2.06)"><path d="M5.2,3c0-1.2-1-2.2-2.2-2.2S0.8,1.8,0.8,3c0,0.6,0.3,1.2,0.7,1.6C1.8,5,2,5.5,2,6h2c0-0.5,0.2-1,0.6-1.4 C5,4.2,5.2,3.6,5.2,3z"/></g>
<g transform="translate(277.5,205.5) scale(2.06)"><path d="M3,0.8c-1.2,0-2.2,1-2.2,2.2s1,2.2,2.2,2.2c0.6,0,1.2-0.3,1.6-0.7C5,4.2,5.5,4,6,4V2C5.5,2,5,1.8,4.6,1.4 C4.2,1,3.6,0.8,3,0.8z"/></g>
<g transform="translate(289.5,205.5) scale(2.06)"><path d="M1.4,1.4C1.4,1.4,1.4,1.4,1.4,1.4C1.1,1.7,0.8,1.9,0.4,2C0.3,2,0.1,2,0,2v2c0.1,0,0.3,0,0.4,0 c0.4,0.1,0.7,0.3,1,0.5c0,0,0,0,0,0C1.8,5,2,5.5,2,6h2c0-0.5,0.2-1,0.5-1.3c0,0,0,0,0,0C5,4.2,5.2,3.7,5.2,3S5,1.8,4.5,1.4 c0,0,0,0,0,0C4.2,1,4,0.5,4,0H2C2,0.5,1.8,1,1.4,1.4z"/></g>
<g transform="translate(313.5,205.5) scale(2.06)"><path d="M4.6,1.4C4.6,1.4,4.6,1.4,4.6,1.4C4.2,1,4,0.5,4,0H2c0,0.5-0.2,1-0.5,1.3l0,0C1,1.8,0.8,2.3,0.8,3 c0,1.2,1,2.2,2.2,2.2c0.6,0,1.1-0.2,1.5-0.6l0,0C4.9,4.2,5.4,4,6,4V2C5.5,2,5,1.8,4.6,1.4z"/></g>
<g transform="translate(325.5,205.5) scale(2.06)"><path d="M1.4,4.6C1.4,4.6,1.4,4.6,1.4,4.6C1.8,5,2,5.5,2,6h2c0-0.5,0.2-1,0.5-1.3l0,0C5,4.2,5.2,3.7,5.2,3 c0-1.2-1-2.2-2.2-2.2C2.4,0.8,1.9,1,1.5,1.4l0,0C1.1,1.8,0.6,2,0,2v2C0.5,4,1,4.2,1.4,4.6z"/></g>
<g transform="translate(37.5,217.5) scale(2.06)"><path d="M4.3,5.7C5.3,5.2,6,4.2,6,3S5.3,0.8,4.3,0.3C4.1,0.2,4,0.1,4,0H2c0,0.1-0.1,0.2-0.3,0.3C0.7,0.8,0,1.8,0,3 s0.7,2.2,1.7,2.7C1.9,5.8,2,5.9,2,6h2C4,5.9,4.1,5.8,4.3,5.7z"/></g>
<g transform="translate(61.5,217.5) scale(2.06)"><path d="M3,0.8c-1.2,0-2.2,1-2.2,2.2s1,2.2,2.2,2.2c0.6,0,1.2-0.3,1.6-0.7C5,4.2,5.5,4,6,4V2C5.5,2,5,1.8,4.6,1.4 C4.2,1,3.6,0.8,3,0.8z"/></g>
<g transform="translate(73.5,217.5) scale(2.06)"><path d="M1.4,1.4C1.4,1.4,1.4,1.4,1.4,1.4C1.1,1.7,0.8,1.9,0.4,2C0.3,2,0.1,2,0,2v2c0.1,0,0.3,0,0.4,0 c0.4,0.1,0.7,0.3,1,0.5c0,0,0,0,0,0C1.8,5,2,5.5,2,6h2c0-0.5,0.2-1,0.5-1.3c0,0,0,0,0,0C5,4.2,5.2,3.7,5.2,3S5,1.8,4.5,1.4 c0,0,0,0,0,0C4.2,1,4,0.5,4,0H2C2,0.5,1.8,1,1.4,1.4z"/></g>
<g transform="translate(97.5,217.5) scale(2.06)"><circle cx="3" cy="3" r="3"/></g>
<g transform="translate(121.5,217.5) scale(2.06)"><path d="M4.3,5.7C5.3,5.2,6,4.2,6,3S5.3,0.8,4.3,0.3C4.1,0.2,4,0.1,4,0H2c0,0.1-0.1,0.2-0.3,0.3C0.7,0.8,0,1.8,0,3 s0.7,2.2,1.7,2.7C1.9,5.8,2,5.9,2,6h2C4,5.9,4.1,5.8,4.3,5.7z"/></g>
<g transform="translate(145.5,217.5) scale(2.06)"><path d="M4.3,5.7C5.3,5.2,6,4.2,6,3S5.3,0.8,4.3,0.3C4.1,0.2,4,0.1,4,0H2c0,0.1-0.1,0.2-0.3,0.3C0.7,0.8,0,1.8,0,3 s0.7,2.2,1.7,2.7C1.9,5.8,2,5.9,2,6h2C4,5.9,4.1,5.8,4.3,5.7z"/></g>
<g transform="translate(193.5,217.5) scale(2.06)"><path d="M0.8,3c0,1.2,1,2.2,2.2,2.2s2.2-1,2.2-2.2c0-0.6-0.3-1.2-0.7-1.6C4.2,1,4,0.5,4,0H2c0,0.5-0.2,1-0.6,1.4 C1,1.8,0.8,2.4,0.8,3z"/></g>
<g transform="translate(217.5,217.5) scale(2.06)"><path d="M3,0.8c-1.2,0-2.2,1-2.2,2.2s1,2.2,2.2,2.2c0.6,0,1.2-0.3,1.6-0.7C5,4.2,5.5,4,6,4V2C5.5,2,5,1.8,4.6,1.4 C4.2,1,3.6,0.8,3,0.8z"/></g>
<g transform="translate(229.5,217.5) scale(2.06)"><path d="M4,0H2c0,1.1-0.9,2-2,2v2c1.1,0,2,0.9,2,2h2c0-1.1,0.9-2,2-2V2C4.9,2,4,1.1,4,0z"/></g>
<g transform="translate(241.5,217.5) scale(2.06)"><path d="M1.4,4.6C1.4,4.6,1.4,4.6,1.4,4.6c0.3,0.3,0.5,0.6,0.6,1C2,5.7,2,5.9,2,6h2c0-0.1,0-0.3,0-0.4 c0.1-0.4,0.3-0.7,0.5-1c0,0,0,0,0,0C5,4.2,5.5,4,6,4V2C5.5,2,5,1.8,4.7,1.5c0,0,0,0,0,0C4.2,1,3.7,0.8,3,0.8S1.8,1,1.4,1.5 c0,0,0,0,0,0C1,1.8,0.5,2,0,2v2C0.5,4,1,4.2,1.4,4.6z"/></g>
<g transform="translate(253.5,217.5) scale(2.06)"><path d="M1.4,1.4C1.4,1.4,1.4,1.4,1.4,1.4C1.1,1.7,0.8,1.9,0.4,2C0.3,2,0.1,2,0,2v2c0.1,0,0.3,0,0.4,0 c0.4,0.1,0.7,0.3,1,0.5c0,0,0,0,0,0C1.8,5,2,5.5,2,6h2c0-0.5,0.2-1,0.5-1.3c0,0,0,0,0,0C5,4.2,5.2,3.7,5.2,3S5,1.8,4.5,1.4 c0,0,0,0,0,0C4.2,1,4,0.5,4,0H2C2,0.5,1.8,1,1.4,1.4z"/></g>
<g transform="translate(289.5,217.5) scale(2.06)"><path d="M4.3,5.7C5.3,5.2,6,4.2,6,3S5.3,0.8,4.3,0.3C4.1,0.2,4,0.1,4,0H2c0,0.1-0.1,0.2-0.3,0.3C0.7,0.8,0,1.8,0,3 s0.7,2.2,1.7,2.7C1.9,5.8,2,5.9,2,6h2C4,5.9,4.1,5.8,4.3,5.7z"/></g>
<g transform="translate(325.5,217.5) scale(2.06)"><path d="M0.8,3c0,1.2,1,2.2,2.2,2.2s2.2-1,2.2-2.2c0-0.6-0.3-1.2-0.7-1.6C4.2,1,4,0.5,4,0H2c0,0.5-0.2,1-0.6,1.4 C1,1.8,0.8,2.4,0.8,3z"/></g>
<g transform="translate(37.5,229.5) scale(2.06)"><path d="M0.8,3c0,1.2,1,2.2,2.2,2.2s2.2-1,2.2-2.2c0-0.6-0.3-1.2-0.7-1.6C4.2,1,4,0.5,4,0H2c0,0.5-0.2,1-0.6,1.4 C1,1.8,0.8,2.4,0.8,3z"/></g>
<g transform="translate(73.5,229.5) scale(2.06)"><path d="M0.8,3c0,1.2,1,2.2,2.2,2.2s2.2-1,2.2-2.2c0-0.6-0.3-1.2-0.7-1.6C4.2,1,4,0.5,4,0H2c0,0.5-0.2,1-0.6,1.4 C1,1.8,0.8,2.4,0.8,3z"/></g>
<g transform="translate(109.5,229.5) scale(2.06)"><path d="M3,0.8c-1.2,0-2.2,1-2.2,2.2s1,2.2,2.2,2.2c0.6,0,1.2-0.3,1.6-0.7C5,4.2,5.5,4,6,4V2C5.5,2,5,1.8,4.6,1.4 C4.2,1,3.6,0.8,3,0.8z"/></g>
<g transform="translate(121.5,229.5) scale(2.06)"><path d="M1.4,1.4C1.4,1.4,1.4,1.4,1.4,1.4C1,1.8,0.5,2,0,2v2c0.5,0,1,0.2,1.3,0.5l0,0C1.8,5,2.3,5.2,3,5.2 c1.2,0,2.2-1,2.2-2.2c0-0.6-0.2-1.1-0.6-1.5l0,0C4.2,1.1,4,0.6,4,0H2C2,0.5,1.8,1,1.4,1.4z"/></g>
<g transform="translate(145.5,229.5) scale(2.06)"><path d="M4.6,1.4C4.6,1.4,4.6,1.4,4.6,1.4C4.2,1,4,0.5,4,0H2c0,0.5-0.2,1-0.5,1.3l0,0C1,1.8,0.8,2.3,0.8,3 c0,1.2,1,2.2,2.2,2.2c0.6,0,1.1-0.2,1.5-0.6l0,0C4.9,4.2,5.4,4,6,4V2C5.5,2,5,1.8,4.6,1.4z"/></g>
<g transform="translate(157.5,229.5) scale(2.06)"><path d="M1.4,4.6C1.4,4.6,1.4,4.6,1.4,4.6C1.8,5,2,5.5,2,6h2c0-0.5,0.2-1,0.5-1.3l0,0C5,4.2,5.2,3.7,5.2,3 c0-1.2-1-2.2-2.2-2.2C2.4,0.8,1.9,1,1.5,1.4l0,0C1.1,1.8,0.6,2,0,2v2C0.5,4,1,4.2,1.4,4.6z"/></g>
<g transform="translate(181.5,229.5) scale(2.06)"><path d="M5.2,3c0-1.2-1-2.2-2.2-2.2S0.8,1.8,0.8,3c0,0.6,0.3,1.2,0.7,1.6C1.8,5,2,5.5,2,6h2c0-0.5,0.2-1,0.6-1.4 C5,4.2,5.2,3.6,5.2,3z"/></g>
<g transform="translate(205.5,229.5) scale(2.06)"><path d="M5.2,3c0-1.2-1-2.2-2.2-2.2S0.8,1.8,0.8,3c0,0.6,0.3,1.2,0.7,1.6C1.8,5,2,5.5,2,6h2c0-0.5,0.2-1,0.6-1.4 C5,4.2,5.2,3.6,5.2,3z"/></g>
<g transform="translate(229.5,229.5) scale(2.06)"><path d="M4.6,4.6C4.6,4.6,4.6,4.6,4.6,4.6c0.3-0.3,0.6-0.5,1-0.6C5.7,4,5.9,4,6,4V2C5.9,2,5.7,2,5.6,2 c-0.4-0.1-0.7-0.3-1-0.5c0,0,0,0,0,0C4.2,1,4,0.5,4,0H2c0,0.5-0.2,1-0.5,1.3c0,0,0,0,0,0C1,1.8,0.8,2.3,0.8,3S1,4.2,1.5,4.6 c0,0,0,0,0,0C1.8,5,2,5.5,2,6h2C4,5.5,4.2,5,4.6,4.6z"/></g>
<g transform="translate(241.5,229.5) scale(2.06)"><path d="M4.6,1.4C4.6,1.4,4.6,1.4,4.6,1.4C4.3,1.1,4.1,0.8,4,0.4C4,0.3,4,0.1,4,0H2c0,0.1,0,0.3,0,0.4 c-0.1,0.4-0.3,0.7-0.5,1c0,0,0,0,0,0C1,1.8,0.5,2,0,2v2c0.5,0,1,0.2,1.3,0.5c0,0,0,0,0,0C1.8,5,2.3,5.2,3,5.2S4.2,5,4.6,4.5 c0,0,0,0,0,0C5,4.2,5.5,4,6,4V2C5.5,2,5,1.8,4.6,1.4z"/></g>
<g transform="translate(253.5,229.5) scale(2.06)"><path d="M4.6,1.4C4.6,1.4,4.6,1.4,4.6,1.4C4.3,1.1,4.1,0.8,4,0.4C4,0.3,4,0.1,4,0H2c0,0.1,0,0.3,0,0.4 c-0.1,0.4-0.3,0.7-0.5,1c0,0,0,0,0,0C1,1.8,0.5,2,0,2v2c0.5,0,1,0.2,1.3,0.5c0,0,0,0,0,0C1.8,5,2.3,5.2,3,5.2S4.2,5,4.6,4.5 c0,0,0,0,0,0C5,4.2,5.5,4,6,4V2C5.5,2,5,1.8,4.6,1.4z"/></g>
<g transform="translate(265.5,229.5) scale(2.06)"><path d="M0.3,4.3C0.8,5.3,1.8,6,3,6s2.2-0.7,2.7-1.7C5.8,4.1,5.9,4,6,4V2C5.9,2,5.8,1.9,5.7,1.7C5.2,0.7,4.2,0,3,0 S0.8,0.7,0.3,1.7C0.2,1.9,0.1,2,0,2v2C0.1,4,0.2,4.1,0.3,4.3z"/></g>
<g transform="translate(277.5,229.5) scale(2.06)"><path d="M1.4,4.6C1.4,4.6,1.4,4.6,1.4,4.6c0.3,0.3,0.5,0.6,0.6,1C2,5.7,2,5.9,2,6h2c0-0.1,0-0.3,0-0.4 c0.1-0.4,0.3-0.7,0.5-1c0,0,0,0,0,0C5,4.2,5.5,4,6,4V2C5.5,2,5,1.8,4.7,1.5c0,0,0,0,0,0C4.2,1,3.7,0.8,3,0.8S1.8,1,1.4,1.5 c0,0,0,0,0,0C1,1.8,0.5,2,0,2v2C0.5,4,1,4.2,1.4,4.6z"/></g>
<g transform="translate(289.5,229.5) scale(2.06)"><path d="M4,0H2c0,1.1-0.9,2-2,2v2c1.1,0,2,0.9,2,2h2c0-1.1,0.9-2,2-2V2C4.9,2,4,1.1,4,0z"/></g>
<g transform="translate(301.5,229.5) scale(2.06)"><path d="M3,5.2c1.2,0,2.2-1,2.2-2.2S4.2,0.8,3,0.8C2.4,0.8,1.8,1,1.4,1.4C1,1.8,0.5,2,0,2v2c0.5,0,1,0.2,1.4,0.6 C1.8,5,2.4,5.2,3,5.2z"/></g>
<g transform="translate(133.5,241.5) scale(2.06)"><path d="M5.2,3c0-1.2-1-2.2-2.2-2.2S0.8,1.8,0.8,3c0,0.6,0.3,1.2,0.7,1.6C1.8,5,2,5.5,2,6h2c0-0.5,0.2-1,0.6-1.4 C5,4.2,5.2,3.6,5.2,3z"/></g>
<g transform="translate(157.5,241.5) scale(2.06)"><path d="M4.6,1.4C4.6,1.4,4.6,1.4,4.6,1.4C4.2,1,4,0.5,4,0H2c0,0.5-0.2,1-0.5,1.3l0,0C1,1.8,0.8,2.3,0.8,3 c0,1.2,1,2.2,2.2,2.2c0.6,0,1.1-0.2,1.5-0.6l0,0C4.9,4.2,5.4,4,6,4V2C5.5,2,5,1.8,4.6,1.4z"/></g>
<g transform="translate(169.5,241.5) scale(2.06)"><path d="M1.4,4.6C1.4,4.6,1.4,4.6,1.4,4.6c0.3,0.3,0.5,0.6,0.6,1C2,5.7,2,5.9,2,6h2c0-0.1,0-0.3,0-0.4 c0.1-0.4,0.3-0.7,0.5-1c0,0,0,0,0,0C5,4.2,5.5,4,6,4V2C5.5,2,5,1.8,4.7,1.5c0,0,0,0,0,0C4.2,1,3.7,0.8,3,0.8S1.8,1,1.4,1.5 c0,0,0,0,0,0C1,1.8,0.5,2,0,2v2C0.5,4,1,4.2,1.4,4.6z"/></g>
<g transform="translate(181.5,241.5) scale(2.06)"><path d="M4,0H2c0,1.1-0.9,2-2,2v2c1.1,0,2,0.9,2,2h2c0-1.1,0.9-2,2-2V2C4.9,2,4,1.1,4,0z"/></g>
<g transform="translate(193.5,241.5) scale(2.06)"><path d="M0.3,4.3C0.8,5.3,1.8,6,3,6s2.2-0.7,2.7-1.7C5.8,4.1,5.9,4,6,4V2C5.9,2,5.8,1.9,5.7,1.7C5.2,0.7,4.2,0,3,0 S0.8,0.7,0.3,1.7C0.2,1.9,0.1,2,0,2v2C0.1,4,0.2,4.1,0.3,4.3z"/></g>
<g transform="translate(205.5,241.5) scale(2.06)"><path d="M4.6,1.4C4.6,1.4,4.6,1.4,4.6,1.4C4.3,1.1,4.1,0.8,4,0.4C4,0.3,4,0.1,4,0H2c0,0.1,0,0.3,0,0.4 c-0.1,0.4-0.3,0.7-0.5,1c0,0,0,0,0,0C1,1.8,0.5,2,0,2v2c0.5,0,1,0.2,1.3,0.5c0,0,0,0,0,0C1.8,5,2.3,5.2,3,5.2S4.2,5,4.6,4.5 c0,0,0,0,0,0C5,4.2,5.5,4,6,4V2C5.5,2,5,1.8,4.6,1.4z"/></g>
<g transform="translate(217.5,241.5) scale(2.06)"><path d="M1.4,4.6C1.4,4.6,1.4,4.6,1.4,4.6c0.3,0.3,0.5,0.6,0.6,1C2,5.7,2,5.9,2,6h2c0-0.1,0-0.3,0-0.4 c0.1-0.4,0.3-0.7,0.5-1c0,0,0,0,0,0C5,4.2,5.5,4,6,4V2C5.5,2,5,1.8,4.7,1.5c0,0,0,0,0,0C4.2,1,3.7,0.8,3,0.8S1.8,1,1.4,1.5 c0,0,0,0,0,0C1,1.8,0.5,2,0,2v2C0.5,4,1,4.2,1.4,4.6z"/></g>
<g transform="translate(229.5,241.5) scale(2.06)"><path d="M1.4,1.4C1.4,1.4,1.4,1.4,1.4,1.4C1.1,1.7,0.8,1.9,0.4,2C0.3,2,0.1,2,0,2v2c0.1,0,0.3,0,0.4,0 c0.4,0.1,0.7,0.3,1,0.5c0,0,0,0,0,0C1.8,5,2,5.5,2,6h2c0-0.5,0.2-1,0.5-1.3c0,0,0,0,0,0C5,4.2,5.2,3.7,5.2,3S5,1.8,4.5,1.4 c0,0,0,0,0,0C4.2,1,4,0.5,4,0H2C2,0.5,1.8,1,1.4,1.4z"/></g>
<g transform="translate(277.5,241.5) scale(2.06)"><path d="M4.6,4.6C4.6,4.6,4.6,4.6,4.6,4.6c0.3-0.3,0.6-0.5,1-0.6C5.7,4,5.9,4,6,4V2C5.9,2,5.7,2,5.6,2 c-0.4-0.1-0.7-0.3-1-0.5c0,0,0,0,0,0C4.2,1,4,0.5,4,0H2c0,0.5-0.2,1-0.5,1.3c0,0,0,0,0,0C1,1.8,0.8,2.3,0.8,3S1,4.2,1.5,4.6 c0,0,0,0,0,0C1.8,5,2,5.5,2,6h2C4,5.5,4.2,5,4.6,4.6z"/></g>
<g transform="translate(289.5,241.5) scale(2.06)"><path d="M1.4,1.4C1.4,1.4,1.4,1.4,1.4,1.4C1.1,1.7,0.8,1.9,0.4,2C0.3,2,0.1,2,0,2v2c0.1,0,0.3,0,0.4,0 c0.4,0.1,0.7,0.3,1,0.5c0,0,0,0,0,0C1.8,5,2,5.5,2,6h2c0-0.5,0.2-1,0.5-1.3c0,0,0,0,0,0C5,4.2,5.2,3.7,5.2,3S5,1.8,4.5,1.4 c0,0,0,0,0,0C4.2,1,4,0.5,4,0H2C2,0.5,1.8,1,1.4,1.4z"/></g>
<g transform="translate(133.5,253.5) scale(2.06)"><path d="M4.3,5.7C5.3,5.2,6,4.2,6,3S5.3,0.8,4.3,0.3C4.1,0.2,4,0.1,4,0H2c0,0.1-0.1,0.2-0.3,0.3C0.7,0.8,0,1.8,0,3 s0.7,2.2,1.7,2.7C1.9,5.8,2,5.9,2,6h2C4,5.9,4.1,5.8,4.3,5.7z"/></g>
<g transform="translate(169.5,253.5) scale(2.06)"><path d="M4.6,1.4C4.6,1.4,4.6,1.4,4.6,1.4C4.2,1,4,0.5,4,0H2c0,0.5-0.2,1-0.5,1.3l0,0C1,1.8,0.8,2.3,0.8,3 c0,1.2,1,2.2,2.2,2.2c0.6,0,1.1-0.2,1.5-0.6l0,0C4.9,4.2,5.4,4,6,4V2C5.5,2,5,1.8,4.6,1.4z"/></g>
<g transform="translate(181.5,253.5) scale(2.06)"><path d="M1.4,1.4C1.4,1.4,1.4,1.4,1.4,1.4C1,1.8,0.5,2,0,2v2c0.5,0,1,0.2,1.3,0.5l0,0C1.8,5,2.3,5.2,3,5.2 c1.2,0,2.2-1,2.2-2.2c0-0.6-0.2-1.1-0.6-1.5l0,0C4.2,1.1,4,0.6,4,0H2C2,0.5,1.8,1,1.4,1.4z"/></g>
<g transform="translate(217.5,253.5) scale(2.06)"><path d="M4.6,1.4C4.6,1.4,4.6,1.4,4.6,1.4C4.2,1,4,0.5,4,0H2c0,0.5-0.2,1-0.5,1.3l0,0C1,1.8,0.8,2.3,0.8,3 c0,1.2,1,2.2,2.2,2.2c0.6,0,1.1-0.2,1.5-0.6l0,0C4.9,4.2,5.4,4,6,4V2C5.5,2,5,1.8,4.6,1.4z"/></g>
<g transform="translate(229.5,253.5) scale(2.06)"><path d="M1.4,1.4C1.4,1.4,1.4,1.4,1.4,1.4C1.1,1.7,0.8,1.9,0.4,2C0.3,2,0.1,2,0,2v2c0.1,0,0.3,0,0.4,0 c0.4,0.1,0.7,0.3,1,0.5c0,0,0,0,0,0C1.8,5,2,5.5,2,6h2c0-0.5,0.2-1,0.5-1.3c0,0,0,0,0,0C5,4.2,5.2,3.7,5.2,3S5,1.8,4.5,1.4 c0,0,0,0,0,0C4.2,1,4,0.5,4,0H2C2,0.5,1.8,1,1.4,1.4z"/></g>
<g transform="translate(253.5,253.5) scale(2.06)"><circle cx="3" cy="3" r="3"/></g>
<g transform="translate(277.5,253.5) scale(2.06)"><path d="M4.6,4.6C4.6,4.6,4.6,4.6,4.6,4.6c0.3-0.3,0.6-0.5,1-0.6C5.7,4,5.9,4,6,4V2C5.9,2,5.7,2,5.6,2 c-0.4-0.1-0.7-0.3-1-0.5c0,0,0,0,0,0C4.2,1,4,0.5,4,0H2c0,0.5-0.2,1-0.5,1.3c0,0,0,0,0,0C1,1.8,0.8,2.3,0.8,3S1,4.2,1.5,4.6 c0,0,0,0,0,0C1.8,5,2,5.5,2,6h2C4,5.5,4.2,5,4.6,4.6z"/></g>
<g transform="translate(289.5,253.5) scale(2.06)"><path d="M1.4,1.4C1.4,1.4,1.4,1.4,1.4,1.4C1,1.8,0.5,2,0,2v2c0.5,0,1,0.2,1.3,0.5l0,0C1.8,5,2.3,5.2,3,5.2 c1.2,0,2.2-1,2.2-2.2c0-0.6-0.2-1.1-0.6-1.5l0,0C4.2,1.1,4,0.6,4,0H2C2,0.5,1.8,1,1.4,1.4z"/></g>
<g transform="translate(313.5,253.5) scale(2.06)"><path d="M3,0.8c-1.2,0-2.2,1-2.2,2.2s1,2.2,2.2,2.2c0.6,0,1.2-0.3,1.6-0.7C5,4.2,5.5,4,6,4V2C5.5,2,5,1.8,4.6,1.4 C4.2,1,3.6,0.8,3,0.8z"/></g>
<g transform="translate(325.5,253.5) scale(2.06)"><path d="M1.4,4.6C1.4,4.6,1.4,4.6,1.4,4.6C1.8,5,2,5.5,2,6h2c0-0.5,0.2-1,0.5-1.3l0,0C5,4.2,5.2,3.7,5.2,3 c0-1.2-1-2.2-2.2-2.2C2.4,0.8,1.9,1,1.5,1.4l0,0C1.1,1.8,0.6,2,0,2v2C0.5,4,1,4.2,1.4,4.6z"/></g>
<g transform="translate(133.5,265.5) scale(2.06)"><path d="M4.3,5.7C5.3,5.2,6,4.2,6,3S5.3,0.8,4.3,0.3C4.1,0.2,4,0.1,4,0H2c0,0.1-0.1,0.2-0.3,0.3C0.7,0.8,0,1.8,0,3 s0.7,2.2,1.7,2.7C1.9,5.8,2,5.9,2,6h2C4,5.9,4.1,5.8,4.3,5.7z"/></g>
<g transform="translate(205.5,265.5) scale(2.06)"><path d="M5.2,3c0-1.2-1-2.2-2.2-2.2S0.8,1.8,0.8,3c0,0.6,0.3,1.2,0.7,1.6C1.8,5,2,5.5,2,6h2c0-0.5,0.2-1,0.6-1.4 C5,4.2,5.2,3.6,5.2,3z"/></g>
<g transform="translate(229.5,265.5) scale(2.06)"><path d="M4.3,5.7C5.3,5.2,6,4.2,6,3S5.3,0.8,4.3,0.3C4.1,0.2,4,0.1,4,0H2c0,0.1-0.1,0.2-0.3,0.3C0.7,0.8,0,1.8,0,3 s0.7,2.2,1.7,2.7C1.9,5.8,2,5.9,2,6h2C4,5.9,4.1,5.8,4.3,5.7z"/></g>
<g transform="translate(277.5,265.5) scale(2.06)"><path d="M4.3,5.7C5.3,5.2,6,4.2,6,3S5.3,0.8,4.3,0.3C4.1,0.2,4,0.1,4,0H2c0,0.1-0.1,0.2-0.3,0.3C0.7,0.8,0,1.8,0,3 s0.7,2.2,1.7,2.7C1.9,5.8,2,5.9,2,6h2C4,5.9,4.1,5.8,4.3,5.7z"/></g>
<g transform="translate(325.5,265.5) scale(2.06)"><path d="M4.3,5.7C5.3,5.2,6,4.2,6,3S5.3,0.8,4.3,0.3C4.1,0.2,4,0.1,4,0H2c0,0.1-0.1,0.2-0.3,0.3C0.7,0.8,0,1.8,0,3 s0.7,2.2,1.7,2.7C1.9,5.8,2,5.9,2,6h2C4,5.9,4.1,5.8,4.3,5.7z"/></g>
<g transform="translate(133.5,277.5) scale(2.06)"><path d="M4.3,5.7C5.3,5.2,6,4.2,6,3S5.3,0.8,4.3,0.3C4.1,0.2,4,0.1,4,0H2c0,0.1-0.1,0.2-0.3,0.3C0.7,0.8,0,1.8,0,3 s0.7,2.2,1.7,2.7C1.9,5.8,2,5.9,2,6h2C4,5.9,4.1,5.8,4.3,5.7z"/></g>
<g transform="translate(193.5,277.5) scale(2.06)"><path d="M4.6,4.6C4.6,4.6,4.6,4.6,4.6,4.6C5,4.2,5.5,4,6,4V2C5.5,2,5,1.8,4.7,1.5l0,0C4.2,1,3.7,0.8,3,0.8 c-1.2,0-2.2,1-2.2,2.2c0,0.6,0.2,1.1,0.6,1.5l0,0C1.8,4.9,2,5.4,2,6h2C4,5.5,4.2,5,4.6,4.6z"/></g>
<g transform="translate(205.5,277.5) scale(2.06)"><path d="M1.4,1.4C1.4,1.4,1.4,1.4,1.4,1.4C1,1.8,0.5,2,0,2v2c0.5,0,1,0.2,1.3,0.5l0,0C1.8,5,2.3,5.2,3,5.2 c1.2,0,2.2-1,2.2-2.2c0-0.6-0.2-1.1-0.6-1.5l0,0C4.2,1.1,4,0.6,4,0H2C2,0.5,1.8,1,1.4,1.4z"/></g>
<g transform="translate(229.5,277.5) scale(2.06)"><path d="M4.6,4.6C4.6,4.6,4.6,4.6,4.6,4.6c0.3-0.3,0.6-0.5,1-0.6C5.7,4,5.9,4,6,4V2C5.9,2,5.7,2,5.6,2 c-0.4-0.1-0.7-0.3-1-0.5c0,0,0,0,0,0C4.2,1,4,0.5,4,0H2c0,0.5-0.2,1-0.5,1.3c0,0,0,0,0,0C1,1.8,0.8,2.3,0.8,3S1,4.2,1.5,4.6 c0,0,0,0,0,0C1.8,5,2,5.5,2,6h2C4,5.5,4.2,5,4.6,4.6z"/></g>
<g transform="translate(241.5,277.5) scale(2.06)"><path d="M0.3,4.3C0.8,5.3,1.8,6,3,6s2.2-0.7,2.7-1.7C5.8,4.1,5.9,4,6,4V2C5.9,2,5.8,1.9,5.7,1.7C5.2,0.7,4.2,0,3,0 S0.8,0.7,0.3,1.7C0.2,1.9,0.1,2,0,2v2C0.1,4,0.2,4.1,0.3,4.3z"/></g>
<g transform="translate(253.5,277.5) scale(2.06)"><path d="M0.3,4.3C0.8,5.3,1.8,6,3,6s2.2-0.7,2.7-1.7C5.8,4.1,5.9,4,6,4V2C5.9,2,5.8,1.9,5.7,1.7C5.2,0.7,4.2,0,3,0 S0.8,0.7,0.3,1.7C0.2,1.9,0.1,2,0,2v2C0.1,4,0.2,4.1,0.3,4.3z"/></g>
<g transform="translate(265.5,277.5) scale(2.06)"><path d="M1.4,4.6C1.4,4.6,1.4,4.6,1.4,4.6c0.3,0.3,0.5,0.6,0.6,1C2,5.7,2,5.9,2,6h2c0-0.1,0-0.3,0-0.4 c0.1-0.4,0.3-0.7,0.5-1c0,0,0,0,0,0C5,4.2,5.5,4,6,4V2C5.5,2,5,1.8,4.7,1.5c0,0,0,0,0,0C4.2,1,3.7,0.8,3,0.8S1.8,1,1.4,1.5 c0,0,0,0,0,0C1,1.8,0.5,2,0,2v2C0.5,4,1,4.2,1.4,4.6z"/></g>
<g transform="translate(277.5,277.5) scale(2.06)"><path d="M1.4,1.4C1.4,1.4,1.4,1.4,1.4,1.4C1.1,1.7,0.8,1.9,0.4,2C0.3,2,0.1,2,0,2v2c0.1,0,0.3,0,0.4,0 c0.4,0.1,0.7,0.3,1,0.5c0,0,0,0,0,0C1.8,5,2,5.5,2,6h2c0-0.5,0.2-1,0.5-1.3c0,0,0,0,0,0C5,4.2,5.2,3.7,5.2,3S5,1.8,4.5,1.4 c0,0,0,0,0,0C4.2,1,4,0.5,4,0H2C2,0.5,1.8,1,1.4,1.4z"/></g>
<g transform="translate(301.5,277.5) scale(2.06)"><path d="M3,0.8c-1.2,0-2.2,1-2.2,2.2s1,2.2,2.2,2.2c0.6,0,1.2-0.3,1.6-0.7C5,4.2,5.5,4,6,4V2C5.5,2,5,1.8,4.6,1.4 C4.2,1,3.6,0.8,3,0.8z"/></g>
<g transform="translate(313.5,277.5) scale(2.06)"><path d="M0.3,4.3C0.8,5.3,1.8,6,3,6s2.2-0.7,2.7-1.7C5.8,4.1,5.9,4,6,4V2C5.9,2,5.8,1.9,5.7,1.7C5.2,0.7,4.2,0,3,0 S0.8,0.7,0.3,1.7C0.2,1.9,0.1,2,0,2v2C0.1,4,0.2,4.1,0.3,4.3z"/></g>
<g transform="translate(325.5,277.5) scale(2.06)"><path d="M1.4,1.4C1.4,1.4,1.4,1.4,1.4,1.4C1.1,1.7,0.8,1.9,0.4,2C0.3,2,0.1,2,0,2v2c0.1,0,0.3,0,0.4,0 c0.4,0.1,0.7,0.3,1,0.5c0,0,0,0,0,0C1.8,5,2,5.5,2,6h2c0-0.5,0.2-1,0.5-1.3c0,0,0,0,0,0C5,4.2,5.2,3.7,5.2,3S5,1.8,4.5,1.4 c0,0,0,0,0,0C4.2,1,4,0.5,4,0H2C2,0.5,1.8,1,1.4,1.4z"/></g>
<g transform="translate(133.5,289.5) scale(2.06)"><path d="M4.6,4.6C4.6,4.6,4.6,4.6,4.6,4.6c0.3-0.3,0.6-0.5,1-0.6C5.7,4,5.9,4,6,4V2C5.9,2,5.7,2,5.6,2 c-0.4-0.1-0.7-0.3-1-0.5c0,0,0,0,0,0C4.2,1,4,0.5,4,0H2c0,0.5-0.2,1-0.5,1.3c0,0,0,0,0,0C1,1.8,0.8,2.3,0.8,3S1,4.2,1.5,4.6 c0,0,0,0,0,0C1.8,5,2,5.5,2,6h2C4,5.5,4.2,5,4.6,4.6z"/></g>
<g transform="translate(145.5,289.5) scale(2.06)"><path d="M3,5.2c1.2,0,2.2-1,2.2-2.2S4.2,0.8,3,0.8C2.4,0.8,1.8,1,1.4,1.4C1,1.8,0.5,2,0,2v2c0.5,0,1,0.2,1.4,0.6 C1.8,5,2.4,5.2,3,5.2z"/></g>
<g transform="translate(181.5,289.5) scale(2.06)"><path d="M4.6,4.6C4.6,4.6,4.6,4.6,4.6,4.6C5,4.2,5.5,4,6,4V2C5.5,2,5,1.8,4.7,1.5l0,0C4.2,1,3.7,0.8,3,0.8 c-1.2,0-2.2,1-2.2,2.2c0,0.6,0.2,1.1,0.6,1.5l0,0C1.8,4.9,2,5.4,2,6h2C4,5.5,4.2,5,4.6,4.6z"/></g>
<g transform="translate(193.5,289.5) scale(2.06)"><path d="M1.4,1.4C1.4,1.4,1.4,1.4,1.4,1.4C1,1.8,0.5,2,0,2v2c0.5,0,1,0.2,1.3,0.5l0,0C1.8,5,2.3,5.2,3,5.2 c1.2,0,2.2-1,2.2-2.2c0-0.6-0.2-1.1-0.6-1.5l0,0C4.2,1.1,4,0.6,4,0H2C2,0.5,1.8,1,1.4,1.4z"/></g>
<g transform="translate(217.5,289.5) scale(2.06)"><path d="M3,0.8c-1.2,0-2.2,1-2.2,2.2s1,2.2,2.2,2.2c0.6,0,1.2-0.3,1.6-0.7C5,4.2,5.5,4,6,4V2C5.5,2,5,1.8,4.6,1.4 C4.2,1,3.6,0.8,3,0.8z"/></g>
<g transform="translate(229.5,289.5) scale(2.06)"><path d="M1.4,1.4C1.4,1.4,1.4,1.4,1.4,1.4C1.1,1.7,0.8,1.9,0.4,2C0.3,2,0.1,2,0,2v2c0.1,0,0.3,0,0.4,0 c0.4,0.1,0.7,0.3,1,0.5c0,0,0,0,0,0C1.8,5,2,5.5,2,6h2c0-0.5,0.2-1,0.5-1.3c0,0,0,0,0,0C5,4.2,5.2,3.7,5.2,3S5,1.8,4.5,1.4 c0,0,0,0,0,0C4.2,1,4,0.5,4,0H2C2,0.5,1.8,1,1.4,1.4z"/></g>
<g transform="translate(265.5,289.5) scale(2.06)"><path d="M4.6,4.6C4.6,4.6,4.6,4.6,4.6,4.6c0.3-0.3,0.6-0.5,1-0.6C5.7,4,5.9,4,6,4V2C5.9,2,5.7,2,5.6,2 c-0.4-0.1-0.7-0.3-1-0.5c0,0,0,0,0,0C4.2,1,4,0.5,4,0H2c0,0.5-0.2,1-0.5,1.3c0,0,0,0,0,0C1,1.8,0.8,2.3,0.8,3S1,4.2,1.5,4.6 c0,0,0,0,0,0C1.8,5,2,5.5,2,6h2C4,5.5,4.2,5,4.6,4.6z"/></g>
<g transform="translate(277.5,289.5) scale(2.06)"><path d="M1.4,1.4C1.4,1.4,1.4,1.4,1.4,1.4C1.1,1.7,0.8,1.9,0.4,2C0.3,2,0.1,2,0,2v2c0.1,0,0.3,0,0.4,0 c0.4,0.1,0.7,0.3,1,0.5c0,0,0,0,0,0C1.8,5,2,5.5,2,6h2c0-0.5,0.2-1,0.5-1.3c0,0,0,0,0,0C5,4.2,5.2,3.7,5.2,3S5,1.8,4.5,1.4 c0,0,0,0,0,0C4.2,1,4,0.5,4,0H2C2,0.5,1.8,1,1.4,1.4z"/></g>
<g transform="translate(325.5,289.5) scale(2.06)"><path d="M4.3,5.7C5.3,5.2,6,4.2,6,3S5.3,0.8,4.3,0.3C4.1,0.2,4,0.1,4,0H2c0,0.1-0.1,0.2-0.3,0.3C0.7,0.8,0,1.8,0,3 s0.7,2.2,1.7,2.7C1.9,5.8,2,5.9,2,6h2C4,5.9,4.1,5.8,4.3,5.7z"/></g>
<g transform="translate(133.5,301.5) scale(2.06)"><path d="M4.3,5.7C5.3,5.2,6,4.2,6,3S5.3,0.8,4.3,0.3C4.1,0.2,4,0.1,4,0H2c0,0.1-0.1,0.2-0.3,0.3C0.7,0.8,0,1.8,0,3 s0.7,2.2,1.7,2.7C1.9,5.8,2,5.9,2,6h2C4,5.9,4.1,5.8,4.3,5.7z"/></g>
<g transform="translate(157.5,301.5) scale(2.06)"><circle cx="3" cy="3" r="3"/></g>
<g transform="translate(181.5,301.5) scale(2.06)"><path d="M4.3,5.7C5.3,5.2,6,4.2,6,3S5.3,0.8,4.3,0.3C4.1,0.2,4,0.1,4,0H2c0,0.1-0.1,0.2-0.3,0.3C0.7,0.8,0,1.8,0,3 s0.7,2.2,1.7,2.7C1.9,5.8,2,5.9,2,6h2C4,5.9,4.1,5.8,4.3,5.7z"/></g>
<g transform="translate(205.5,301.5) scale(2.06)"><circle cx="3" cy="3" r="3"/></g>
<g transform="translate(229.5,301.5) scale(2.06)"><path d="M4.6,4.6C4.6,4.6,4.6,4.6,4.6,4.6c0.3-0.3,0.6-0.5,1-0.6C5.7,4,5.9,4,6,4V2C5.9,2,5.7,2,5.6,2 c-0.4-0.1-0.7-0.3-1-0.5c0,0,0,0,0,0C4.2,1,4,0.5,4,0H2c0,0.5-0.2,1-0.5,1.3c0,0,0,0,0,0C1,1.8,0.8,2.3,0.8,3S1,4.2,1.5,4.6 c0,0,0,0,0,0C1.8,5,2,5.5,2,6h2C4,5.5,4.2,5,4.6,4.6z"/></g>
<g transform="translate(241.5,301.5) scale(2.06)"><path d="M0.3,4.3C0.8,5.3,1.8,6,3,6s2.2-0.7,2.7-1.7C5.8,4.1,5.9,4,6,4V2C5.9,2,5.8,1.9,5.7,1.7C5.2,0.7,4.2,0,3,0 S0.8,0.7,0.3,1.7C0.2,1.9,0.1,2,0,2v2C0.1,4,0.2,4.1,0.3,4.3z"/></g>
<g transform="translate(253.5,301.5) scale(2.06)"><path d="M1.4,4.6C1.4,4.6,1.4,4.6,1.4,4.6c0.3,0.3,0.5,0.6,0.6,1C2,5.7,2,5.9,2,6h2c0-0.1,0-0.3,0-0.4 c0.1-0.4,0.3-0.7,0.5-1c0,0,0,0,0,0C5,4.2,5.5,4,6,4V2C5.5,2,5,1.8,4.7,1.5c0,0,0,0,0,0C4.2,1,3.7,0.8,3,0.8S1.8,1,1.4,1.5 c0,0,0,0,0,0C1,1.8,0.5,2,0,2v2C0.5,4,1,4.2,1.4,4.6z"/></g>
<g transform="translate(265.5,301.5) scale(2.06)"><path d="M4,0H2c0,1.1-0.9,2-2,2v2c1.1,0,2,0.9,2,2h2c0-1.1,0.9-2,2-2V2C4.9,2,4,1.1,4,0z"/></g>
<g transform="translate(277.5,301.5) scale(2.06)"><path d="M1.4,1.4C1.4,1.4,1.4,1.4,1.4,1.4C1.1,1.7,0.8,1.9,0.4,2C0.3,2,0.1,2,0,2v2c0.1,0,0.3,0,0.4,0 c0.4,0.1,0.7,0.3,1,0.5c0,0,0,0,0,0C1.8,5,2,5.5,2,6h2c0-0.5,0.2-1,0.5-1.3c0,0,0,0,0,0C5,4.2,5.2,3.7,5.2,3S5,1.8,4.5,1.4 c0,0,0,0,0,0C4.2,1,4,0.5,4,0H2C2,0.5,1.8,1,1.4,1.4z"/></g>
<g transform="translate(301.5,301.5) scale(2.06)"><path d="M5.2,3c0-1.2-1-2.2-2.2-2.2S0.8,1.8,0.8,3c0,0.6,0.3,1.2,0.7,1.6C1.8,5,2,5.5,2,6h2c0-0.5,0.2-1,0.6-1.4 C5,4.2,5.2,3.6,5.2,3z"/></g>
<g transform="translate(325.5,301.5) scale(2.06)"><path d="M4.3,5.7C5.3,5.2,6,4.2,6,3S5.3,0.8,4.3,0.3C4.1,0.2,4,0.1,4,0H2c0,0.1-0.1,0.2-0.3,0.3C0.7,0.8,0,1.8,0,3 s0.7,2.2,1.7,2.7C1.9,5.8,2,5.9,2,6h2C4,5.9,4.1,5.8,4.3,5.7z"/></g>
<g transform="translate(133.5,313.5) scale(2.06)"><path d="M4.6,1.4C4.6,1.4,4.6,1.4,4.6,1.4C4.2,1,4,0.5,4,0H2c0,0.5-0.2,1-0.5,1.3l0,0C1,1.8,0.8,2.3,0.8,3 c0,1.2,1,2.2,2.2,2.2c0.6,0,1.1-0.2,1.5-0.6l0,0C4.9,4.2,5.4,4,6,4V2C5.5,2,5,1.8,4.6,1.4z"/></g>
<g transform="translate(145.5,313.5) scale(2.06)"><path d="M3,5.2c1.2,0,2.2-1,2.2-2.2S4.2,0.8,3,0.8C2.4,0.8,1.8,1,1.4,1.4C1,1.8,0.5,2,0,2v2c0.5,0,1,0.2,1.4,0.6 C1.8,5,2.4,5.2,3,5.2z"/></g>
<g transform="translate(169.5,313.5) scale(2.06)"><path d="M4.6,4.6C4.6,4.6,4.6,4.6,4.6,4.6C5,4.2,5.5,4,6,4V2C5.5,2,5,1.8,4.7,1.5l0,0C4.2,1,3.7,0.8,3,0.8 c-1.2,0-2.2,1-2.2,2.2c0,0.6,0.2,1.1,0.6,1.5l0,0C1.8,4.9,2,5.4,2,6h2C4,5.5,4.2,5,4.6,4.6z"/></g>
<g transform="translate(181.5,313.5) scale(2.06)"><path d="M4,0H2c0,1.1-0.9,2-2,2v2c1.1,0,2,0.9,2,2h2c0-1.1,0.9-2,2-2V2C4.9,2,4,1.1,4,0z"/></g>
<g transform="translate(193.5,313.5) scale(2.06)"><path d="M1.4,4.6C1.4,4.6,1.4,4.6,1.4,4.6C1.8,5,2,5.5,2,6h2c0-0.5,0.2-1,0.5-1.3l0,0C5,4.2,5.2,3.7,5.2,3 c0-1.2-1-2.2-2.2-2.2C2.4,0.8,1.9,1,1.5,1.4l0,0C1.1,1.8,0.6,2,0,2v2C0.5,4,1,4.2,1.4,4.6z"/></g>
<g transform="translate(217.5,313.5) scale(2.06)"><path d="M3,0.8c-1.2,0-2.2,1-2.2,2.2s1,2.2,2.2,2.2c0.6,0,1.2-0.3,1.6-0.7C5,4.2,5.5,4,6,4V2C5.5,2,5,1.8,4.6,1.4 C4.2,1,3.6,0.8,3,0.8z"/></g>
<g transform="translate(229.5,313.5) scale(2.06)"><path d="M1.4,1.4C1.4,1.4,1.4,1.4,1.4,1.4C1,1.8,0.5,2,0,2v2c0.5,0,1,0.2,1.3,0.5l0,0C1.8,5,2.3,5.2,3,5.2 c1.2,0,2.2-1,2.2-2.2c0-0.6-0.2-1.1-0.6-1.5l0,0C4.2,1.1,4,0.6,4,0H2C2,0.5,1.8,1,1.4,1.4z"/></g>
<g transform="translate(253.5,313.5) scale(2.06)"><path d="M4.6,4.6C4.6,4.6,4.6,4.6,4.6,4.6c0.3-0.3,0.6-0.5,1-0.6C5.7,4,5.9,4,6,4V2C5.9,2,5.7,2,5.6,2 c-0.4-0.1-0.7-0.3-1-0.5c0,0,0,0,0,0C4.2,1,4,0.5,4,0H2c0,0.5-0.2,1-0.5,1.3c0,0,0,0,0,0C1,1.8,0.8,2.3,0.8,3S1,4.2,1.5,4.6 c0,0,0,0,0,0C1.8,5,2,5.5,2,6h2C4,5.5,4.2,5,4.6,4.6z"/></g>
<g transform="translate(265.5,313.5) scale(2.06)"><path d="M4,0H2c0,1.1-0.9,2-2,2v2c1.1,0,2,0.9,2,2h2c0-1.1,0.9-2,2-2V2C4.9,2,4,1.1,4,0z"/></g>
<g transform="translate(277.5,313.5) scale(2.06)"><path d="M1.4,1.4C1.4,1.4,1.4,1.4,1.4,1.4C1,1.8,0.5,2,0,2v2c0.5,0,1,0.2,1.3,0.5l0,0C1.8,5,2.3,5.2,3,5.2 c1.2,0,2.2-1,2.2-2.2c0-0.6-0.2-1.1-0.6-1.5l0,0C4.2,1.1,4,0.6,4,0H2C2,0.5,1.8,1,1.4,1.4z"/></g>
<g transform="translate(301.5,313.5) scale(2.06)"><path d="M4.3,5.7C5.3,5.2,6,4.2,6,3S5.3,0.8,4.3,0.3C4.1,0.2,4,0.1,4,0H2c0,0.1-0.1,0.2-0.3,0.3C0.7,0.8,0,1.8,0,3 s0.7,2.2,1.7,2.7C1.9,5.8,2,5.9,2,6h2C4,5.9,4.1,5.8,4.3,5.7z"/></g>
<g transform="translate(325.5,313.5) scale(2.06)"><path d="M4.3,5.7C5.3,5.2,6,4.2,6,3S5.3,0.8,4.3,0.3C4.1,0.2,4,0.1,4,0H2c0,0.1-0.1,0.2-0.3,0.3C0.7,0.8,0,1.8,0,3 s0.7,2.2,1.7,2.7C1.9,5.8,2,5.9,2,6h2C4,5.9,4.1,5.8,4.3,5.7z"/></g>
<g transform="translate(157.5,325.5) scale(2.06)"><path d="M3,0.8c-1.2,0-2.2,1-2.2,2.2s1,2.2,2.2,2.2c0.6,0,1.2-0.3,1.6-0.7C5,4.2,5.5,4,6,4V2C5.5,2,5,1.8,4.6,1.4 C4.2,1,3.6,0.8,3,0.8z"/></g>
<g transform="translate(169.5,325.5) scale(2.06)"><path d="M4.6,1.4C4.6,1.4,4.6,1.4,4.6,1.4C4.3,1.1,4.1,0.8,4,0.4C4,0.3,4,0.1,4,0H2c0,0.1,0,0.3,0,0.4 c-0.1,0.4-0.3,0.7-0.5,1c0,0,0,0,0,0C1,1.8,0.5,2,0,2v2c0.5,0,1,0.2,1.3,0.5c0,0,0,0,0,0C1.8,5,2.3,5.2,3,5.2S4.2,5,4.6,4.5 c0,0,0,0,0,0C5,4.2,5.5,4,6,4V2C5.5,2,5,1.8,4.6,1.4z"/></g>
<g transform="translate(181.5,325.5) scale(2.06)"><path d="M4.6,1.4C4.6,1.4,4.6,1.4,4.6,1.4C4.3,1.1,4.1,0.8,4,0.4C4,0.3,4,0.1,4,0H2c0,0.1,0,0.3,0,0.4 c-0.1,0.4-0.3,0.7-0.5,1c0,0,0,0,0,0C1,1.8,0.5,2,0,2v2c0.5,0,1,0.2,1.3,0.5c0,0,0,0,0,0C1.8,5,2.3,5.2,3,5.2S4.2,5,4.6,4.5 c0,0,0,0,0,0C5,4.2,5.5,4,6,4V2C5.5,2,5,1.8,4.6,1.4z"/></g>
<g transform="translate(193.5,325.5) scale(2.06)"><path d="M1.4,1.4C1.4,1.4,1.4,1.4,1.4,1.4C1,1.8,0.5,2,0,2v2c0.5,0,1,0.2,1.3,0.5l0,0C1.8,5,2.3,5.2,3,5.2 c1.2,0,2.2-1,2.2-2.2c0-0.6-0.2-1.1-0.6-1.5l0,0C4.2,1.1,4,0.6,4,0H2C2,0.5,1.8,1,1.4,1.4z"/></g>
<g transform="translate(241.5,325.5) scale(2.06)"><path d="M3,0.8c-1.2,0-2.2,1-2.2,2.2s1,2.2,2.2,2.2c0.6,0,1.2-0.3,1.6-0.7C5,4.2,5.5,4,6,4V2C5.5,2,5,1.8,4.6,1.4 C4.2,1,3.6,0.8,3,0.8z"/></g>
<g transform="translate(253.5,325.5) scale(2.06)"><path d="M4.6,1.4C4.6,1.4,4.6,1.4,4.6,1.4C4.3,1.1,4.1,0.8,4,0.4C4,0.3,4,0.1,4,0H2c0,0.1,0,0.3,0,0.4 c-0.1,0.4-0.3,0.7-0.5,1c0,0,0,0,0,0C1,1.8,0.5,2,0,2v2c0.5,0,1,0.2,1.3,0.5c0,0,0,0,0,0C1.8,5,2.3,5.2,3,5.2S4.2,5,4.6,4.5 c0,0,0,0,0,0C5,4.2,5.5,4,6,4V2C5.5,2,5,1.8,4.6,1.4z"/></g>
<g transform="translate(265.5,325.5) scale(2.06)"><path d="M1.4,1.4C1.4,1.4,1.4,1.4,1.4,1.4C1,1.8,0.5,2,0,2v2c0.5,0,1,0.2,1.3,0.5l0,0C1.8,5,2.3,5.2,3,5.2 c1.2,0,2.2-1,2.2-2.2c0-0.6-0.2-1.1-0.6-1.5l0,0C4.2,1.1,4,0.6,4,0H2C2,0.5,1.8,1,1.4,1.4z"/></g>
<g transform="translate(289.5,325.5) scale(2.06)"><path d="M3,0.8c-1.2,0-2.2,1-2.2,2.2s1,2.2,2.2,2.2c0.6,0,1.2-0.3,1.6-0.7C5,4.2,5.5,4,6,4V2C5.5,2,5,1.8,4.6,1.4 C4.2,1,3.6,0.8,3,0.8z"/></g>
<g transform="translate(301.5,325.5) scale(2.06)"><path d="M4.6,1.4C4.6,1.4,4.6,1.4,4.6,1.4C4.3,1.1,4.1,0.8,4,0.4C4,0.3,4,0.1,4,0H2c0,0.1,0,0.3,0,0.4 c-0.1,0.4-0.3,0.7-0.5,1c0,0,0,0,0,0C1,1.8,0.5,2,0,2v2c0.5,0,1,0.2,1.3,0.5c0,0,0,0,0,0C1.8,5,2.3,5.2,3,5.2S4.2,5,4.6,4.5 c0,0,0,0,0,0C5,4.2,5.5,4,6,4V2C5.5,2,5,1.8,4.6,1.4z"/></g>
<g transform="translate(313.5,325.5) scale(2.06)"><path d="M0.3,4.3C0.8,5.3,1.8,6,3,6s2.2-0.7,2.7-1.7C5.8,4.1,5.9,4,6,4V2C5.9,2,5.8,1.9,5.7,1.7C5.2,0.7,4.2,0,3,0 S0.8,0.7,0.3,1.7C0.2,1.9,0.1,2,0,2v2C0.1,4,0.2,4.1,0.3,4.3z"/></g>
<g transform="translate(325.5,325.5) scale(2.06)"><path d="M1.4,1.4C1.4,1.4,1.4,1.4,1.4,1.4C1,1.8,0.5,2,0,2v2c0.5,0,1,0.2,1.3,0.5l0,0C1.8,5,2.3,5.2,3,5.2 c1.2,0,2.2-1,2.2-2.2c0-0.6-0.2-1.1-0.6-1.5l0,0C4.2,1.1,4,0.6,4,0H2C2,0.5,1.8,1,1.4,1.4z"/></g>
<g transform="translate(37.5,37.5)"><g transform="scale(6)"><path d="M0,0v14h14V0H0z M12,12H2V2h10V12z"/></g></g>
<g transform="translate(253.5,37.5)"><g transform="scale(6)"><path d="M0,0v14h14V0H0z M12,12H2V2h10V12z"/></g></g>
<g transform="translate(37.5,253.5)"><g transform="scale(6)"><path d="M0,0v14h14V0H0z M12,12H2V2h10V12z"/></g></g>
<g transform="translate(61.5,61.5)"><g transform="scale(6)"><rect width="6" height="6"/></g></g>
<g transform="translate(277.5,61.5)"><g transform="scale(6)"><rect width="6" height="6"/></g></g>
<g transform="translate(61.5,277.5)"><g transform="scale(6)"><rect width="6" height="6"/></g></g>
</g><g transform="translate(75,400.66306483301) scale(0.36836935166994)"><path fill="#FFFFFF" d="M50.1,89.1l0-7.4q0-18.3-1.8-23.1q-2-5.5-5.7-6.8q-2.1-0.8-5.1-0.8t-5.15,0.8t-3.55,2.8t-2.25,4.2t-1.35,6.2q-0.6,5.8-0.6,17.1l0,7.2q0,12.2,0.95,17.35t2.35,7.35q3.1,4.9,9.6,4.9q7.9,0,10.25-6.65t2.35-23.15z M12.35,111.95q-8.25-9.05-8.25-26.2t8.85-27t25.05-9.85t24.45,9.35t8.25,26.55t-8.35,26.7t-25.05,9.5t-24.95-9.05z M75.4,45l24.5,0l0,73.2l5.6,0l0,1.8l-29.7,0l0-1.8l5.5,0l0-71.4l-5.9,0l0-1.8z M114.55,62.8q-2.25-2.7-2.25-6.7t2.45-6.6t7.45-2.6t7.6,2.35t2.6,6.7t-2.5,6.95t-7.8,2.6t-7.55-2.7z M107,72.4l24.5,0l0,45.8l5.6,0l0,1.8l-29.7,0l0-1.8l5.5,0l0-44l-5.9,0l0-1.8z  M191.3,74.2l0-1.8l25.8,0l0,1.8l-4.1,0l9,33.7l8.9-33.7l-6.9,0l0-1.8l13.5,0l0,1.8l-4.2,0l-12,45.8l-13.7,0l-8.7-30.7l-9.4,30.7l-13.4,0l-14.8-45.8l-4.5,0l0-1.8l30.3,0l0,1.8l-6,0l9.2,34l7.2-23.4l-2.5-10.6l-3.7,0z M247.45,114.35q-6.45-6.65-6.45-18.5t7.25-18.15t18.45-6.3q22.7,0,21.8,22.8l-28.2,0l0,3.9q0,9.8,2.5,14.8t8.7,5q11.6,0,15.2-12.4l1.8,0.3q-1.9,7.2-6.85,11.2t-14.85,4q-12.9,0-19.35-6.65z M260.4,92.2l10.3,0l0-4.9q0-8.1-0.95-11.05t-3.8-2.95t-4.2,3.15t-1.35,10.85l0,4.9z M327.6,79.25q-1-3.55-3.9-3.55t-5.2,3.6t-2.3,9.9l0,18.6q0,4.3,1.75,7.3t5,3t4.45-4.4t1.2-15.4l0-5.2q0-10.3-1-13.85z M316.2,45l0,35q3.8-8.6,13-8.6q18.7,0,18.7,24.9q0,12.7-5.15,18.7t-15.45,6q-5.2,0-7.95-1.6t-3.75-5.3l-0.7,5.9l-22.8,0l0-1.8l5.5,0l0-71.4l-5.5,0l0-1.8l24.1,0z M386.4,79.25q-1-3.55-3.9-3.55t-5.2,3.75t-2.3,10.05l0,18.3q0,4.3,1.7,7.3t5,3t4.5-4.4t1.2-15.4l0-5.2q0-10.3-1-13.85z M374.8,72.4l0,7.9q3.9-8.9,13.8-8.9q8.6,0,13.35,6.2t4.75,18.8t-5.15,18.6t-15.45,6q-4.8,0-7.2-1.2t-3.9-3.7l0,25.9l12.9,0l0,1.8l-37,0l0-1.8l5.5,0l0-67.8l-5.3,0l0-1.8l23.7,0z M433.7,96.5l2.9,0l0-7.7q0-9.5-1.05-12.75t-4.05-3.25q-1.8,0-3.25,0.95t-1.45,2.6t0.6,3.35l2.5,0q0.8,2.1,0.8,5.05t-2.5,5.1t-6.3,2.15q-8.6,0-8.6-8.3q0-12.3,20.9-12.3q11.9,0,16.45,4.05t4.55,14.85l0,20.3q0,5.2,2.9,5.2q3.4,0,4-10.3l1.5,0.1q-0.4,8.8-3.3,12.1t-9.5,3.3q-12,0-13.8-7.4q-1.3,3.8-3.9,5.6t-7.6,1.8q-14.8,0-14.8-12.1q0-7.1,5.65-9.75t17.35-2.65z M430.25,115.5q0.55,1.5,2.1,1.5t2.9-2.55t1.35-7.05l0-9.3l-0.7,0q-6.2,0-6.2,9.1l0,1.6q0,5.2,0.55,6.7z M504.7,67.2l2.8-1.7q0.6-3.1-2.4-3.1q-4.3,0-4.3,6.6q0,2.6,0.7,6q7.6,5.1,7.6,13.05t-5.5,12.35t-14.9,4.4q-3.9,0-8.1-0.8q-4.4,2.8-4.4,4.2t6.4,1.4l10.2,0q22.7,0,22.7,16.3q0,8.8-6.85,13.95t-21.35,5.15q-24.7,0-24.7-10.7q0-5.8,7.7-8l6,2.7q-0.8,2.9-0.8,5.5q0,8.6,12.8,8.6q7.8,0,12-2.9t4.2-7.2t-2.55-5.75t-10.15-1.45l-9.7,0q-8.1,0-11.6-2.7t-3.5-6.65t2.5-6.6t8.9-6.55q-11.6-3.3-11.6-15.2q0-7.5,5.4-12.1t16.2-4.6q6.5,0,11.1,2.5q-0.6-2.7-0.6-4.9q0-5.6,3-8.1t6.7-2.5t5.95,1.95t2.25,5.35t-1.8,5.05t-4.35,1.65t-4.2-1.35t-1.75-3.85z M483.5,85.9l0,5.4q0,6.7,1.15,9.1t3.5,2.4t3.4-2.35t1.05-9.65l0-4.9q0-7.8-1-10.25t-3.35-2.45t-3.55,2.55t-1.2,10.15z M523.75,114.35q-6.45-6.65-6.45-18.5t7.25-18.15t18.45-6.3q22.7,0,21.8,22.8l-28.2,0l0,3.9q0,9.8,2.5,14.8t8.7,5q11.6,0,15.2-12.4l1.8,0.3q-1.9,7.2-6.85,11.2t-14.85,4q-12.9,0-19.35-6.65z M536.7,92.2l10.3,0l0-4.9q0-8.1-0.95-11.05t-3.8-2.95t-4.2,3.15t-1.35,10.85l0,4.9z M570.7,121l0-17.9l1.2,0q2.6,8.7,7,12.2t11,3.5q10.2,0,10.2-6.5q0-2.8-2.5-4.2q-3.9-2.2-10-3.4q-6.8-1.8-11.4-4.8q-5.5-3.6-5.5-11.4t4.8-12.45t12.8-4.65q4.9,0,10.1,2.3q1.9,0.8,2.9,0.8t1.7-0.7t1.7-2.6l1.1,0l0,15.3l-1.2,0q-5.1-13-15.8-13q-4.7,0-7,1.65t-2.3,4.15q0,1.5,0.7,2.35t1.1,1.25t1.3,0.85t1.5,0.7t1.85,0.65t1.85,0.5q6.8,1.7,9.8,2.95t5.7,3.05q5.5,3.8,5.5,12.25t-5,12.8t-13.7,4.35q-6.2,0-12-2.9q-1.2-0.8-1.9-0.8q-2.2,0-4.3,3.7l-1.2,0z"/></g></svg>
